<?xml version="1.0" encoding="utf-8"?><svg xmlns="http://www.w3.org/2000/svg" xmlns:xlink="http://www.w3.org/1999/xlink" width="1920" height="912" preserveAspectRatio="xMidYMid" viewBox="0 0 1920 912" style="z-index:1;margin-right:-2px;display:block;background-repeat-y:initial;background-repeat-x:initial;background-color:rgb(241, 242, 243);animation-play-state:paused" ><g transform="" style="animation-play-state:paused" ><linearGradient id="lg-0.5933340440510928" x1="0" x2="1" y1="0" y2="0" style="animation-play-state:paused" ><stop stop-color="#683ce4" offset="0" style="animation-play-state:paused" ></stop>

  
<stop stop-color="#683ce4" offset="1" style="animation-play-state:paused" ></stop></linearGradient>
<path d="M 0 0 L 0 481 Q 96 497.524 192 453.795 T 384 467.535 T 576 456.81 T 768 481.015 T 960 457.172 T 1152 470.339 T 1344 455.285 T 1536 466.66 T 1728 462.519 T 1920 456.525 L 1920 0 Z" fill="url(#lg-0.5933340440510928)" opacity="0.4" style="opacity:0.4;animation-play-state:paused" ></path>
<path d="M 0 0 L 0 458.366 Q 96 493.992 192 458.553 T 384 474.268 T 576 476.841 T 768 464.493 T 960 478.14 T 1152 458.258 T 1344 456.866 T 1536 476.04 T 1728 462.097 T 1920 478.384 L 1920 0 Z" fill="url(#lg-0.5933340440510928)" opacity="0.4" style="opacity:0.4;animation-play-state:paused" ></path>
<path d="M 0 0 L 0 472.172 Q 96 514.521 192 476.213 T 384 470.296 T 576 467.123 T 768 460.627 T 960 455.103 T 1152 457.237 T 1344 455.812 T 1536 470.888 T 1728 452.677 T 1920 470.286 L 1920 0 Z" fill="url(#lg-0.5933340440510928)" opacity="0.4" style="opacity:0.4;animation-play-state:paused" ></path></g></svg>