<?xml version="1.0" encoding="utf-8"?>
<!-- Generator: Adobe Illustrator 16.0.3, SVG Export Plug-In . SVG Version: 6.00 Build 0)  -->
<!DOCTYPE svg PUBLIC "-//W3C//DTD SVG 1.1//EN" "http://www.w3.org/Graphics/SVG/1.1/DTD/svg11.dtd">
<svg version="1.1" id="Capa_1" xmlns="http://www.w3.org/2000/svg" xmlns:xlink="http://www.w3.org/1999/xlink" x="0px" y="0px"
	 width="1920px" height="249.132px" viewBox="0 0 1920 249.132" enable-background="new 0 0 1920 249.132" xml:space="preserve">
<g>
	<g>
		<g>
			<g transform="">
				
					<linearGradient id="SVGID_1_" gradientUnits="userSpaceOnUse" x1="-1.3442" y1="2169.7734" x2="-0.3433" y2="2169.7734" gradientTransform="matrix(1920 0 0 -547.0974 2580 1187194.25)">
					<stop  offset="0" style="stop-color:#683CE4"/>
					<stop  offset="1" style="stop-color:#683CE4"/>
				</linearGradient>
				<path opacity="0.4" fill="url(#SVGID_1_)" enable-background="new    " d="M-1.558,0v210.567
					c213.506,17.437,425.011,31.201,638.517,17.288c213.507-13.913,429.015-2.273,642.52-2.789
					c213.508-0.515,427.016-5.616,640.521-14.437L1919.999,0H-1.558z"/>
				
					<linearGradient id="SVGID_2_" gradientUnits="userSpaceOnUse" x1="-1.3442" y1="2170.252" x2="-0.3433" y2="2170.252" gradientTransform="matrix(1920 0 0 -521.141 2580 1131128.375)">
					<stop  offset="0" style="stop-color:#683CE4"/>
					<stop  offset="1" style="stop-color:#683CE4"/>
				</linearGradient>
				<path opacity="0.4" fill="url(#SVGID_2_)" enable-background="new    " d="M-1.558,0v210.567
					c213.506,1.53,427.013-2.957,640.519-14.74c213.506-11.783,428.013,8.922,641.52,34.428
					c213.505,25.506,426.012,9.735,639.52-19.625L1919.999,0H-1.558z"/>
			</g>
			<g>
				<g transform="">
					
						<linearGradient id="SVGID_3_" gradientUnits="userSpaceOnUse" x1="-1.3442" y1="2169.7734" x2="-0.3433" y2="2169.7734" gradientTransform="matrix(1920 0 0 -547.0974 2580 1187194.25)">
						<stop  offset="0" style="stop-color:#683CE4"/>
						<stop  offset="1" style="stop-color:#683CE4"/>
					</linearGradient>
					<path opacity="0.4" fill="url(#SVGID_3_)" enable-background="new    " d="M-1.56,0v210.567
						c213.506,17.437,425.012,31.201,638.518,17.288s429.014-2.273,642.52-2.789c213.506-0.515,427.016-5.616,640.521-14.437
						L1919.998,0H-1.56z"/>
					
						<linearGradient id="SVGID_4_" gradientUnits="userSpaceOnUse" x1="-1.3442" y1="2170.252" x2="-0.3433" y2="2170.252" gradientTransform="matrix(1920 0 0 -521.141 2580 1131128.375)">
						<stop  offset="0" style="stop-color:#683CE4"/>
						<stop  offset="1" style="stop-color:#683CE4"/>
					</linearGradient>
					<path opacity="0.4" fill="url(#SVGID_4_)" enable-background="new    " d="M-1.56,0v210.567
						c213.506,1.53,427.013-2.957,640.52-14.74c213.506-11.783,428.012,8.922,641.52,34.428
						c213.506,25.506,426.013,9.735,639.52-19.625L1919.998,0H-1.56z"/>
				</g>
			</g>
			<g>
				<g transform="">
					
						<linearGradient id="SVGID_5_" gradientUnits="userSpaceOnUse" x1="-1.3442" y1="2169.7734" x2="-0.3433" y2="2169.7734" gradientTransform="matrix(1920 0 0 -547.0974 2580 1187194.25)">
						<stop  offset="0" style="stop-color:#683CE4"/>
						<stop  offset="1" style="stop-color:#683CE4"/>
					</linearGradient>
					<path opacity="0.4" fill="url(#SVGID_5_)" enable-background="new    " d="M-1.558,0v210.567
						c213.506,17.437,425.011,31.201,638.517,17.288c213.507-13.913,429.015-2.273,642.52-2.789
						c213.508-0.515,427.016-5.616,640.521-14.437L1919.999,0H-1.558z"/>
					
						<linearGradient id="SVGID_6_" gradientUnits="userSpaceOnUse" x1="-1.3442" y1="2170.252" x2="-0.3433" y2="2170.252" gradientTransform="matrix(1920 0 0 -521.141 2580 1131128.375)">
						<stop  offset="0" style="stop-color:#683CE4"/>
						<stop  offset="1" style="stop-color:#683CE4"/>
					</linearGradient>
					<path opacity="0.4" fill="url(#SVGID_6_)" enable-background="new    " d="M-1.558,0v210.567
						c213.506,1.53,427.013-2.957,640.519-14.74c213.506-11.783,428.013,8.922,641.52,34.428
						c213.505,25.506,426.012,9.735,639.52-19.625L1919.999,0H-1.558z"/>
				</g>
			</g>
			<g>
				<g transform="">
					
						<linearGradient id="SVGID_7_" gradientUnits="userSpaceOnUse" x1="-1.3442" y1="2169.7734" x2="-0.3433" y2="2169.7734" gradientTransform="matrix(1920 0 0 -547.0974 2580 1187194.25)">
						<stop  offset="0" style="stop-color:#683CE4"/>
						<stop  offset="1" style="stop-color:#683CE4"/>
					</linearGradient>
					<path opacity="0.4" fill="url(#SVGID_7_)" enable-background="new    " d="M-1.56,0v210.567
						c213.506,17.437,425.012,31.201,638.518,17.288s429.014-2.273,642.52-2.789c213.506-0.515,427.016-5.616,640.521-14.437
						L1919.998,0H-1.56z"/>
					
						<linearGradient id="SVGID_8_" gradientUnits="userSpaceOnUse" x1="-1.3442" y1="2170.252" x2="-0.3433" y2="2170.252" gradientTransform="matrix(1920 0 0 -521.141 2580 1131128.375)">
						<stop  offset="0" style="stop-color:#683CE4"/>
						<stop  offset="1" style="stop-color:#683CE4"/>
					</linearGradient>
					<path opacity="0.4" fill="url(#SVGID_8_)" enable-background="new    " d="M-1.56,0v210.567
						c213.506,1.53,427.013-2.957,640.52-14.74c213.506-11.783,428.012,8.922,641.52,34.428
						c213.506,25.506,426.013,9.735,639.52-19.625L1919.998,0H-1.56z"/>
				</g>
			</g>
			<g>
				<g transform="">
					
						<linearGradient id="SVGID_9_" gradientUnits="userSpaceOnUse" x1="-1.3442" y1="2169.7734" x2="-0.3433" y2="2169.7734" gradientTransform="matrix(1920 0 0 -547.0974 2580 1187194.25)">
						<stop  offset="0" style="stop-color:#683CE4"/>
						<stop  offset="1" style="stop-color:#683CE4"/>
					</linearGradient>
					<path opacity="0.4" fill="url(#SVGID_9_)" enable-background="new    " d="M-1.558,0v210.567
						c213.506,17.437,425.011,31.201,638.517,17.288c213.507-13.913,429.015-2.273,642.52-2.789
						c213.508-0.515,427.016-5.616,640.521-14.437L1919.999,0H-1.558z"/>
					
						<linearGradient id="SVGID_10_" gradientUnits="userSpaceOnUse" x1="-1.3442" y1="2170.252" x2="-0.3433" y2="2170.252" gradientTransform="matrix(1920 0 0 -521.141 2580 1131128.375)">
						<stop  offset="0" style="stop-color:#683CE4"/>
						<stop  offset="1" style="stop-color:#683CE4"/>
					</linearGradient>
					<path opacity="0.4" fill="url(#SVGID_10_)" enable-background="new    " d="M-1.558,0v210.567
						c213.506,1.53,427.013-2.957,640.519-14.74c213.506-11.783,428.013,8.922,641.52,34.428
						c213.505,25.506,426.012,9.735,639.52-19.625L1919.999,0H-1.558z"/>
				</g>
			</g>
		</g>
	</g>
</g>
</svg>
