<svg xmlns="http://www.w3.org/2000/svg" viewBox="0 0 500 500"><g id="freepik--Shadows--inject-80"><path id="freepik--Shadow--inject-80" d="M291,270.7c-42.59-24.59-122.43-18.37-178.31,13.89L99.87,292C44,324.25,33.21,370.35,75.82,395s122.43,18.37,178.33-13.89l12.8-7.4C322.84,341.4,333.62,295.3,291,270.7Z" style="fill:#e0e0e0"></path><path id="freepik--shadow--inject-80" d="M144.23,447.43l54.84-31.66c2.18-1.25,2.18-3.29,0-4.55l-73.3-42.36a8.73,8.73,0,0,0-7.87,0L63,400.55c-2.18,1.25-2.18,3.29,0,4.54l73.34,42.34A8.67,8.67,0,0,0,144.23,447.43Z" style="fill:#e0e0e0"></path><path id="freepik--shadow--inject-80" d="M227.47,450.45l32-18.48a.92.92,0,0,0,0-1.73l-44.61-25.75a3.33,3.33,0,0,0-3,0l-32,18.48a.91.91,0,0,0,0,1.72l44.61,25.76A3.33,3.33,0,0,0,227.47,450.45Z" style="fill:#e0e0e0"></path></g><g id="freepik--Carpet--inject-80"><g id="freepik--carpet--inject-80"><path d="M310.27,306.71c0,20.05-17.6,42.17-47.06,59.18L250.81,373c-30.65,17.69-69.56,27.84-106.8,27.84-25.8,0-47.93-4.92-64-14.2-15.33-8.85-23.44-20.77-23.44-34.46,0-20.05,17.6-42.17,47.06-59.18L116,285.88C146.67,268.2,185.6,258,222.83,258c25.79,0,47.92,4.92,64,14.2C302.16,281.09,310.27,293,310.27,306.71Z" style="fill:#683CE4"></path><path d="M144,400.88c-25.8,0-47.93-4.91-64-14.19-15.33-8.85-23.44-20.78-23.44-34.48,0-20,17.6-42.16,47.07-59.17L116,285.88c30.64-17.69,69.57-27.83,106.81-27.83,25.79,0,47.92,4.9,64,14.19,15.32,8.85,23.43,20.77,23.43,34.47,0,20-17.6,42.17-47.06,59.18L250.81,373c-30.64,17.69-69.57,27.84-106.79,27.84Z" style="fill:#683CE4"></path><path d="M310.27,306.71c0,20.05-17.6,42.17-47.06,59.18L250.81,373c-30.65,17.69-69.56,27.84-106.8,27.84-25.8,0-47.93-4.92-64-14.2-15.33-8.85-23.44-20.77-23.44-34.46,0-20.05,17.6-42.17,47.06-59.18L116,285.88C146.67,268.2,185.6,258,222.83,258c25.79,0,47.92,4.92,64,14.2C302.16,281.09,310.27,293,310.27,306.71Z" style="fill:#fff;opacity:0.7000000000000001"></path><path d="M154.14,384.69h0c-20.06,0-37.28-3.83-49.81-11.07-12.08-7-18.47-16.4-18.47-27.25,0-15.75,13.73-33.07,36.72-46.35l7.25-4.18c23.78-13.73,54-21.6,82.88-21.6,20.06,0,37.28,3.82,49.82,11.06,12.08,7,18.46,16.4,18.46,27.26,0,15.74-13.73,33.07-36.72,46.34L237,363.08C213.23,376.81,183,384.69,154.14,384.69Zm0-1.44h0c28.64,0,58.58-7.8,82.15-21.41l7.25-4.18c22.55-13,36-29.88,36-45.1,0-10.32-6.14-19.31-17.75-26-12.32-7.11-29.29-10.87-49.1-10.87-28.64,0-58.59,7.81-82.16,21.41l-7.25,4.18c-22.55,13-36,29.88-36,45.11,0,10.31,6.13,19.31,17.74,26C117.35,379.49,134.33,383.25,154.13,383.25Z" style="fill:#fff"></path><path d="M160.74,372.94c-16.11,0-29.93-3.07-40-8.86-9.57-5.53-14.63-13-14.63-21.53,0-12.51,11-26.32,29.38-36.94l3.89-2.25c19.13-11,43.44-17.38,66.69-17.38,16.1,0,29.92,3.07,40,8.87,9.57,5.52,14.63,13,14.63,21.52,0,12.51-11,26.33-29.38,36.95l-3.89,2.24c-19.13,11-43.44,17.38-66.68,17.38Z" style="fill:#683CE4;opacity:0.30000000000000004"></path><path d="M167.34,361.91c-12.28,0-22.82-2.34-30.47-6.76-7.3-4.21-11.16-9.89-11.16-16.41,0-9.54,8.38-20.07,22.41-28.17l.53-.3c14.58-8.42,33.12-13.26,50.84-13.26,12.28,0,22.82,2.34,30.48,6.76,7.29,4.21,11.15,9.89,11.15,16.41,0,9.54-8.38,20.08-22.4,28.18l-.54.3c-14.58,8.42-33.11,13.25-50.84,13.25Z" style="fill:#fff;opacity:0.4"></path><path d="M289,268.51c-41.82-24.15-120.22-18-175.1,13.64l-12.41,7.16C46.59,321,36,366.26,77.85,390.41s120.22,18,175.11-13.64l12.4-7.15C320.24,337.93,330.82,292.66,289,268.51Zm-25.77,97.38L250.81,373c-30.65,17.69-69.56,27.84-106.8,27.84-25.8,0-47.93-4.92-64-14.2-15.33-8.85-23.44-20.77-23.44-34.46,0-20.05,17.6-42.17,47.06-59.18L116,285.88C146.67,268.2,185.6,258,222.83,258c25.79,0,47.92,4.92,64,14.2,15.33,8.85,23.44,20.77,23.44,34.47C310.27,326.76,292.67,348.88,263.21,365.89Z" style="fill:#683CE4"></path><path d="M289,268.51c-41.82-24.15-120.22-18-175.1,13.64l-12.41,7.16C46.59,321,36,366.26,77.85,390.41s120.22,18,175.11-13.64l12.4-7.15C320.24,337.93,330.82,292.66,289,268.51Zm-25.77,97.38L250.81,373c-30.65,17.69-69.56,27.84-106.8,27.84-25.8,0-47.93-4.92-64-14.2-15.33-8.85-23.44-20.77-23.44-34.46,0-20.05,17.6-42.17,47.06-59.18L116,285.88C146.67,268.2,185.6,258,222.83,258c25.79,0,47.92,4.92,64,14.2,15.33,8.85,23.44,20.77,23.44,34.47C310.27,326.76,292.67,348.88,263.21,365.89Z" style="fill:#fff;opacity:0.30000000000000004"></path></g></g><g id="freepik--Calculator--inject-80"><g id="freepik--calculator--inject-80"><path d="M186.45,414.8v4.09a2.06,2.06,0,0,0,.25.69l3.66,6.34a9.53,9.53,0,0,0,2.93,2.93l31.14,18a4.13,4.13,0,0,0,3.72,0l28.22-16.3a1.31,1.31,0,0,0,.78-1.07v-3.36a1.32,1.32,0,0,0-.78-1.07l-31.14-18a9.49,9.49,0,0,1-2.93-2.92l-3.66-6.35a2.14,2.14,0,0,0-2.93-.78l-28.23,16.3A2.09,2.09,0,0,0,186.45,414.8Z" style="fill:#683CE4"></path><path d="M186.45,414.8v4.09a2.06,2.06,0,0,0,.25.69l3.66,6.34a9.53,9.53,0,0,0,2.93,2.93l31.14,18a4.13,4.13,0,0,0,3.72,0l28.22-16.3a1.31,1.31,0,0,0,.78-1.07v-3.36a1.32,1.32,0,0,0-.78-1.07l-31.14-18a9.49,9.49,0,0,1-2.93-2.92l-3.66-6.35a2.14,2.14,0,0,0-2.93-.78l-28.23,16.3A2.09,2.09,0,0,0,186.45,414.8Z" style="opacity:0.4"></path><path d="M226.28,407.66,256.37,425a1.32,1.32,0,0,1,.78,1.07v3.36a1.31,1.31,0,0,1-.78,1.07l-28.22,16.3a3.8,3.8,0,0,1-1.87.44Z" style="fill:#683CE4"></path><path d="M226.28,407.66,256.37,425a1.32,1.32,0,0,1,.78,1.07v3.36a1.31,1.31,0,0,1-.78,1.07l-28.22,16.3a3.8,3.8,0,0,1-1.87.44Z" style="opacity:0.2"></path><path d="M186.45,415.53a2.11,2.11,0,0,0,.25.7l.4.7,3.26,5.64a9.63,9.63,0,0,0,2.93,2.93l31.14,18a4.07,4.07,0,0,0,3.72,0l27.18-15.69,1-.6a1.13,1.13,0,0,0,0-2.15l-31.14-18a9.49,9.49,0,0,1-2.93-2.92l-3.66-6.35a2.14,2.14,0,0,0-2.93-.78l-28.23,16.3a2.09,2.09,0,0,0-1,1.5A1.8,1.8,0,0,0,186.45,415.53Z" style="fill:#683CE4"></path><path d="M219.06,404.84l-2.12-3.5a1.47,1.47,0,0,0-2-.51l-23.66,13.66a1.39,1.39,0,0,0-.5,1.94l2.11,3.5a1.48,1.48,0,0,0,2,.51l23.66-13.66A1.4,1.4,0,0,0,219.06,404.84Z" style="fill:#683CE4"></path><path d="M219.06,404.84l-2.12-3.5a1.47,1.47,0,0,0-2-.51l-23.66,13.66a1.39,1.39,0,0,0-.5,1.94l2.11,3.5a1.48,1.48,0,0,0,2,.51l23.66-13.66A1.4,1.4,0,0,0,219.06,404.84Z" style="fill:#fff;opacity:0.75"></path><path d="M205,424l-3,1.71a1.29,1.29,0,0,1-1.18,0l-1.58-.91a.39.39,0,0,1-.23-.33v-.85a.39.39,0,0,1,.23-.33l3-1.71a1.27,1.27,0,0,1,1.17,0l1.59.92a.39.39,0,0,1,.23.32v.85A.41.41,0,0,1,205,424Z" style="fill:#683CE4"></path><path d="M205,424l-3,1.71a1.29,1.29,0,0,1-1.18,0l-1.58-.91a.39.39,0,0,1-.23-.33v-.85a.39.39,0,0,1,.23-.33l3-1.71a1.27,1.27,0,0,1,1.17,0l1.59.92a.39.39,0,0,1,.23.32v.85A.41.41,0,0,1,205,424Z" style="fill:#263238"></path><path d="M202.19,421.6l-3,1.71c-.33.19-.33.49,0,.68l1.58.91a1.29,1.29,0,0,0,1.18,0l3-1.71a.35.35,0,0,0,0-.67l-1.58-.92A1.29,1.29,0,0,0,202.19,421.6Z" style="fill:#455a64"></path><path d="M205.18,423v.74a.41.41,0,0,1-.23.33l-3,1.71a1.09,1.09,0,0,1-.58.14V425a1.11,1.11,0,0,0,.58-.14l3-1.71A.48.48,0,0,0,205.18,423Z" style="fill:#37474f"></path><path d="M211.85,420l-3,1.71a1.27,1.27,0,0,1-1.17,0l-1.58-.91a.39.39,0,0,1-.23-.33v-.85a.39.39,0,0,1,.23-.33l3-1.71a1.27,1.27,0,0,1,1.17,0l1.59.91a.43.43,0,0,1,.23.33v.85A.41.41,0,0,1,211.85,420Z" style="fill:#683CE4"></path><path d="M211.85,420l-3,1.71a1.27,1.27,0,0,1-1.17,0l-1.58-.91a.39.39,0,0,1-.23-.33v-.85a.39.39,0,0,1,.23-.33l3-1.71a1.27,1.27,0,0,1,1.17,0l1.59.91a.43.43,0,0,1,.23.33v.85A.41.41,0,0,1,211.85,420Z" style="fill:#263238"></path><path d="M209.09,417.62l-3,1.71c-.33.19-.33.49,0,.68l1.58.91a1.27,1.27,0,0,0,1.17,0l3-1.71a.36.36,0,0,0,0-.68l-1.59-.91A1.27,1.27,0,0,0,209.09,417.62Z" style="fill:#455a64"></path><path d="M212.08,419v.75a.4.4,0,0,1-.24.33l-3,1.71a1.12,1.12,0,0,1-.59.14v-.83a1.12,1.12,0,0,0,.59-.14l3-1.71A.52.52,0,0,0,212.08,419Z" style="fill:#37474f"></path><path d="M218.74,416.06l-3,1.71a1.27,1.27,0,0,1-1.17,0l-1.59-.92a.39.39,0,0,1-.23-.32v-.86a.43.43,0,0,1,.23-.32l3-1.71a1.27,1.27,0,0,1,1.17,0l1.58.91a.39.39,0,0,1,.23.33v.85A.39.39,0,0,1,218.74,416.06Z" style="fill:#683CE4"></path><path d="M218.74,416.06l-3,1.71a1.27,1.27,0,0,1-1.17,0l-1.59-.92a.39.39,0,0,1-.23-.32v-.86a.43.43,0,0,1,.23-.32l3-1.71a1.27,1.27,0,0,1,1.17,0l1.58.91a.39.39,0,0,1,.23.33v.85A.39.39,0,0,1,218.74,416.06Z" style="fill:#263238"></path><path d="M216,413.64l-3,1.71a.36.36,0,0,0,0,.68l1.59.91a1.27,1.27,0,0,0,1.17,0l3-1.71c.33-.19.33-.49,0-.68l-1.58-.91A1.27,1.27,0,0,0,216,413.64Z" style="fill:#455a64"></path><path d="M219,415v.75a.39.39,0,0,1-.23.33l-3,1.71a1.22,1.22,0,0,1-.59.14v-.83a1.12,1.12,0,0,0,.59-.14l3-1.71A.45.45,0,0,0,219,415Z" style="fill:#37474f"></path><path d="M225.64,412.08l-3,1.71a1.36,1.36,0,0,1-1.18,0l-1.58-.92a.39.39,0,0,1-.23-.32v-.86a.39.39,0,0,1,.23-.32l3-1.71a1.29,1.29,0,0,1,1.18,0l1.58.91a.39.39,0,0,1,.23.32v.86A.39.39,0,0,1,225.64,412.08Z" style="fill:#683CE4"></path><path d="M225.64,412.08l-3,1.71a1.36,1.36,0,0,1-1.18,0l-1.58-.92a.39.39,0,0,1-.23-.32v-.86a.39.39,0,0,1,.23-.32l3-1.71a1.29,1.29,0,0,1,1.18,0l1.58.91a.39.39,0,0,1,.23.32v.86A.39.39,0,0,1,225.64,412.08Z" style="fill:#263238"></path><path d="M222.88,409.66l-3,1.71a.36.36,0,0,0,0,.68l1.58.91a1.29,1.29,0,0,0,1.18,0l3-1.71c.33-.19.33-.49,0-.68l-1.58-.91A1.29,1.29,0,0,0,222.88,409.66Z" style="fill:#455a64"></path><path d="M225.87,411v.75a.4.4,0,0,1-.23.33l-3,1.71a1.22,1.22,0,0,1-.59.14v-.83a1.22,1.22,0,0,0,.59-.14l3-1.71A.49.49,0,0,0,225.87,411Z" style="fill:#37474f"></path><path d="M211.86,428l-3,1.71a1.29,1.29,0,0,1-1.18,0l-3-1.72a.43.43,0,0,1-.23-.32v-.86a.42.42,0,0,1,.23-.32l3-1.71a1.27,1.27,0,0,1,1.17,0l3,1.72a.39.39,0,0,1,.23.32v.85A.39.39,0,0,1,211.86,428Z" style="fill:#e0e0e0"></path><path d="M207.71,424.79l-3,1.71a.36.36,0,0,0,0,.68l3,1.71a1.29,1.29,0,0,0,1.18,0l3-1.71a.35.35,0,0,0,0-.67l-3-1.72A1.27,1.27,0,0,0,207.71,424.79Z" style="fill:#fafafa"></path><path d="M212.09,426.94v.74a.39.39,0,0,1-.23.33l-3,1.71a1.09,1.09,0,0,1-.58.14V429a1.11,1.11,0,0,0,.58-.14l3-1.71A.48.48,0,0,0,212.09,426.94Z" style="fill:#ebebeb"></path><path d="M212.09,426.94v-.1a.37.37,0,0,0-.12-.26A.34.34,0,0,1,212.09,426.94Z" style="fill:#fafafa"></path><path d="M218.75,424l-3,1.71a1.29,1.29,0,0,1-1.18,0l-3-1.72a.41.41,0,0,1-.23-.32v-.86a.39.39,0,0,1,.23-.32l3-1.71a1.29,1.29,0,0,1,1.18,0l3,1.71a.43.43,0,0,1,.23.33v.85A.41.41,0,0,1,218.75,424Z" style="fill:#e0e0e0"></path><path d="M214.59,420.79l-3,1.71a.36.36,0,0,0,0,.68l3,1.71a1.29,1.29,0,0,0,1.18,0l3-1.71a.36.36,0,0,0,0-.68l-3-1.71A1.29,1.29,0,0,0,214.59,420.79Z" style="fill:#fafafa"></path><path d="M219,422.93v.75a.41.41,0,0,1-.23.33l-3,1.71a1.12,1.12,0,0,1-.59.14V425a1.12,1.12,0,0,0,.59-.14l3-1.71A.5.5,0,0,0,219,422.93Z" style="fill:#ebebeb"></path><path d="M219,422.93v-.09a.33.33,0,0,0-.13-.26A.32.32,0,0,1,219,422.93Z" style="fill:#fafafa"></path><path d="M225.64,420l-3,1.71a1.27,1.27,0,0,1-1.17,0l-3-1.72a.39.39,0,0,1-.23-.33v-.85a.37.37,0,0,1,.23-.32l3-1.71a1.29,1.29,0,0,1,1.18,0l3,1.71a.39.39,0,0,1,.22.33s0,.82,0,.85A.43.43,0,0,1,225.64,420Z" style="fill:#e0e0e0"></path><path d="M221.48,416.79l-3,1.71a.35.35,0,0,0,0,.67l3,1.72a1.27,1.27,0,0,0,1.17,0l3-1.71a.36.36,0,0,0,0-.68l-3-1.71A1.29,1.29,0,0,0,221.48,416.79Z" style="fill:#fafafa"></path><path d="M225.86,418.93v.75a.39.39,0,0,1-.23.33l-3,1.71a1.12,1.12,0,0,1-.59.14V421a1.12,1.12,0,0,0,.59-.14l3-1.71A.45.45,0,0,0,225.86,418.93Z" style="fill:#ebebeb"></path><path d="M225.86,418.93v-.1a.35.35,0,0,0-.12-.25A.31.31,0,0,1,225.86,418.93Z" style="fill:#fafafa"></path><path d="M218.05,431.59l-3,1.71a1.36,1.36,0,0,1-1.18,0l-3-1.72a.39.39,0,0,1-.23-.33v-.85a.39.39,0,0,1,.23-.33l3-1.71a1.36,1.36,0,0,1,1.18,0l3,1.72a.39.39,0,0,1,.23.32v.86A.39.39,0,0,1,218.05,431.59Z" style="fill:#e0e0e0"></path><path d="M213.9,428.36l-3,1.71c-.33.19-.33.49,0,.68l3,1.72a1.29,1.29,0,0,0,1.18,0l3-1.71c.33-.19.33-.49,0-.68l-3-1.72A1.36,1.36,0,0,0,213.9,428.36Z" style="fill:#fafafa"></path><path d="M218.28,430.51v.75a.4.4,0,0,1-.23.33l-3,1.71a1.22,1.22,0,0,1-.59.14v-.83a1.22,1.22,0,0,0,.59-.14l3-1.71A.49.49,0,0,0,218.28,430.51Z" style="fill:#ebebeb"></path><path d="M218.28,430.51v-.1a.33.33,0,0,0-.12-.25A.32.32,0,0,1,218.28,430.51Z" style="fill:#fafafa"></path><path d="M224.94,427.59l-3,1.71a1.36,1.36,0,0,1-1.18,0l-3-1.72a.39.39,0,0,1-.23-.33v-.85a.39.39,0,0,1,.23-.33l3-1.71a1.27,1.27,0,0,1,1.17,0l3,1.72a.39.39,0,0,1,.23.32v.86A.4.4,0,0,1,224.94,427.59Z" style="fill:#e0e0e0"></path><path d="M220.79,424.36l-3,1.71c-.33.19-.33.49,0,.68l3,1.72a1.29,1.29,0,0,0,1.18,0l3-1.71a.36.36,0,0,0,0-.68l-3-1.72A1.27,1.27,0,0,0,220.79,424.36Z" style="fill:#fafafa"></path><path d="M225.17,426.51v.75a.4.4,0,0,1-.23.33l-3,1.71a1.22,1.22,0,0,1-.59.14v-.83a1.25,1.25,0,0,0,.59-.14l3-1.71A.49.49,0,0,0,225.17,426.51Z" style="fill:#ebebeb"></path><path d="M225.17,426.51v-.1a.33.33,0,0,0-.12-.25A.32.32,0,0,1,225.17,426.51Z" style="fill:#fafafa"></path><path d="M231.83,423.58l-3,1.71a1.29,1.29,0,0,1-1.18,0l-3-1.71a.43.43,0,0,1-.23-.33v-.85a.43.43,0,0,1,.23-.33l3-1.71a1.27,1.27,0,0,1,1.17,0l3,1.72a.39.39,0,0,1,.23.32v.86A.37.37,0,0,1,231.83,423.58Z" style="fill:#e0e0e0"></path><path d="M227.68,420.36l-3,1.71a.36.36,0,0,0,0,.68l3,1.72a1.29,1.29,0,0,0,1.18,0l3-1.71a.36.36,0,0,0,0-.68l-3-1.72A1.27,1.27,0,0,0,227.68,420.36Z" style="fill:#fafafa"></path><path d="M232.06,422.51v.75a.41.41,0,0,1-.23.33l-3,1.71a1.18,1.18,0,0,1-.58.14v-.83a1.21,1.21,0,0,0,.58-.14l3-1.71A.49.49,0,0,0,232.06,422.51Z" style="fill:#ebebeb"></path><path d="M232.06,422.51v-.1a.33.33,0,0,0-.12-.25A.32.32,0,0,1,232.06,422.51Z" style="fill:#fafafa"></path><path d="M224.24,435.16l-3,1.71a1.27,1.27,0,0,1-1.17,0l-3-1.72a.39.39,0,0,1-.23-.32V434a.37.37,0,0,1,.23-.32l3-1.71a1.29,1.29,0,0,1,1.18,0l3,1.72a.37.37,0,0,1,.23.32s0,.82,0,.85A.39.39,0,0,1,224.24,435.16Z" style="fill:#e0e0e0"></path><path d="M220.09,431.94l-3,1.71a.36.36,0,0,0,0,.68l3,1.71a1.27,1.27,0,0,0,1.17,0l3-1.71a.35.35,0,0,0,0-.67l-3-1.72A1.29,1.29,0,0,0,220.09,431.94Z" style="fill:#fafafa"></path><path d="M224.47,434.09v.74a.39.39,0,0,1-.23.33l-3,1.71a1.12,1.12,0,0,1-.59.14v-.83a1.12,1.12,0,0,0,.59-.14l3-1.71A.44.44,0,0,0,224.47,434.09Z" style="fill:#ebebeb"></path><path d="M224.47,434.09V434a.37.37,0,0,0-.12-.26A.32.32,0,0,1,224.47,434.09Z" style="fill:#fafafa"></path><path d="M231.13,431.16l-3,1.71a1.27,1.27,0,0,1-1.17,0l-3-1.72a.39.39,0,0,1-.23-.32V430a.37.37,0,0,1,.23-.32l3-1.71a1.29,1.29,0,0,1,1.18,0l3,1.71a.39.39,0,0,1,.23.33v.85A.39.39,0,0,1,231.13,431.16Z" style="fill:#e0e0e0"></path><path d="M227,427.94l-3,1.71c-.33.18-.33.49,0,.68l3,1.71a1.27,1.27,0,0,0,1.17,0l3-1.71c.33-.18.33-.49,0-.68l-3-1.71A1.29,1.29,0,0,0,227,427.94Z" style="fill:#fafafa"></path><path d="M231.36,430.08v.75a.39.39,0,0,1-.23.33l-3,1.71a1.12,1.12,0,0,1-.59.14v-.83a1.12,1.12,0,0,0,.59-.14l3-1.71A.46.46,0,0,0,231.36,430.08Z" style="fill:#ebebeb"></path><path d="M231.36,430.08V430a.35.35,0,0,0-.12-.26A.33.33,0,0,1,231.36,430.08Z" style="fill:#fafafa"></path><path d="M238,427.16l-3,1.71a1.29,1.29,0,0,1-1.18,0l-3-1.72a.39.39,0,0,1-.23-.33V426a.37.37,0,0,1,.23-.32l3-1.71a1.29,1.29,0,0,1,1.18,0l3,1.71a.39.39,0,0,1,.23.33v.85A.39.39,0,0,1,238,427.16Z" style="fill:#e0e0e0"></path><path d="M233.87,423.94l-3,1.71a.35.35,0,0,0,0,.67l3,1.72a1.29,1.29,0,0,0,1.18,0l3-1.71c.33-.18.33-.49,0-.68l-3-1.71A1.29,1.29,0,0,0,233.87,423.94Z" style="fill:#fafafa"></path><path d="M238.25,426.08v.75a.39.39,0,0,1-.23.33l-3,1.71a1.12,1.12,0,0,1-.59.14v-.83a1.12,1.12,0,0,0,.59-.14l3-1.71A.49.49,0,0,0,238.25,426.08Z" style="fill:#ebebeb"></path><path d="M238.25,426.08V426a.35.35,0,0,0-.12-.25A.33.33,0,0,1,238.25,426.08Z" style="fill:#fafafa"></path><path d="M230.44,438.74l-3,1.71a1.36,1.36,0,0,1-1.18,0l-3-1.72a.41.41,0,0,1-.23-.33v-.85a.43.43,0,0,1,.23-.33l3-1.71a1.33,1.33,0,0,1,1.17,0l3,1.72a.41.41,0,0,1,.23.32v.86A.39.39,0,0,1,230.44,438.74Z" style="fill:#e0e0e0"></path><path d="M226.29,435.51l-3,1.71a.36.36,0,0,0,0,.68l3,1.72a1.29,1.29,0,0,0,1.18,0l3-1.71a.36.36,0,0,0,0-.68l-3-1.72A1.34,1.34,0,0,0,226.29,435.51Z" style="fill:#fafafa"></path><path d="M230.67,437.66v.75a.4.4,0,0,1-.23.33l-3,1.71a1.18,1.18,0,0,1-.58.14v-.83a1.21,1.21,0,0,0,.58-.14l3-1.71A.49.49,0,0,0,230.67,437.66Z" style="fill:#ebebeb"></path><path d="M230.67,437.66v-.1a.33.33,0,0,0-.12-.25A.32.32,0,0,1,230.67,437.66Z" style="fill:#fafafa"></path><path d="M237.33,434.74l-3,1.71a1.34,1.34,0,0,1-1.17,0l-3-1.72a.41.41,0,0,1-.23-.33v-.85a.41.41,0,0,1,.23-.33l3-1.71a1.29,1.29,0,0,1,1.18,0l3,1.72a.43.43,0,0,1,.23.32v.86A.42.42,0,0,1,237.33,434.74Z" style="fill:#e0e0e0"></path><path d="M233.17,431.51l-3,1.71a.36.36,0,0,0,0,.68l3,1.72a1.27,1.27,0,0,0,1.17,0l3-1.71a.36.36,0,0,0,0-.68l-3-1.72A1.29,1.29,0,0,0,233.17,431.51Z" style="fill:#fafafa"></path><path d="M237.56,433.66v.75a.42.42,0,0,1-.23.33l-3,1.71a1.22,1.22,0,0,1-.59.14v-.83a1.22,1.22,0,0,0,.59-.14l3-1.71A.54.54,0,0,0,237.56,433.66Z" style="fill:#ebebeb"></path><path d="M237.56,433.66v-.1a.31.31,0,0,0-.13-.25A.31.31,0,0,1,237.56,433.66Z" style="fill:#fafafa"></path><path d="M244.21,430.73l-3,1.71a1.27,1.27,0,0,1-1.17,0l-3-1.71a.39.39,0,0,1-.23-.33v-.85a.39.39,0,0,1,.23-.33l3-1.71a1.29,1.29,0,0,1,1.18,0l3,1.72a.39.39,0,0,1,.23.32s0,.82,0,.86A.37.37,0,0,1,244.21,430.73Z" style="fill:#f28f8f"></path><path d="M240.06,427.51l-3,1.71a.36.36,0,0,0,0,.68l3,1.72a1.27,1.27,0,0,0,1.17,0l3-1.71c.33-.19.33-.49,0-.68l-3-1.72A1.29,1.29,0,0,0,240.06,427.51Z" style="fill:#ffa8a7"></path><path d="M244.44,429.66v.75a.41.41,0,0,1-.23.33l-3,1.71a1.22,1.22,0,0,1-.59.14v-.83a1.22,1.22,0,0,0,.59-.14l3-1.71A.45.45,0,0,0,244.44,429.66Z" style="opacity:0.1"></path><path d="M232.52,416l-3,1.71a1.27,1.27,0,0,1-1.17,0l-3-1.72a.39.39,0,0,1-.23-.33v-.85a.4.4,0,0,1,.23-.33l3-1.71a1.36,1.36,0,0,1,1.18,0l3,1.72a.39.39,0,0,1,.23.33v.85A.39.39,0,0,1,232.52,416Z" style="fill:#683CE4"></path><path d="M232.52,416l-3,1.71a1.27,1.27,0,0,1-1.17,0l-3-1.72a.39.39,0,0,1-.23-.33v-.85a.4.4,0,0,1,.23-.33l3-1.71a1.36,1.36,0,0,1,1.18,0l3,1.72a.39.39,0,0,1,.23.33v.85A.39.39,0,0,1,232.52,416Z" style="opacity:0.30000000000000004"></path><path d="M228.37,412.78l-3,1.71c-.33.19-.33.5,0,.68l3,1.72a1.27,1.27,0,0,0,1.17,0l3-1.71c.33-.19.33-.49,0-.68l-3-1.72A1.36,1.36,0,0,0,228.37,412.78Z" style="fill:#683CE4"></path><path d="M228.37,412.78l-3,1.71c-.33.19-.33.5,0,.68l3,1.72a1.27,1.27,0,0,0,1.17,0l3-1.71c.33-.19.33-.49,0-.68l-3-1.72A1.36,1.36,0,0,0,228.37,412.78Z" style="opacity:0.2"></path><path d="M232.75,414.93v.75a.39.39,0,0,1-.23.33l-3,1.71a1.22,1.22,0,0,1-.59.14V417a1.12,1.12,0,0,0,.59-.14l3-1.71A.49.49,0,0,0,232.75,414.93Z" style="opacity:0.1"></path><path d="M238.72,419.58l-3,1.71a1.29,1.29,0,0,1-1.18,0l-3-1.71a.42.42,0,0,1-.23-.33v-.85a.41.41,0,0,1,.23-.33l3-1.71a1.29,1.29,0,0,1,1.18,0l3,1.72a.42.42,0,0,1,.23.32v.86A.39.39,0,0,1,238.72,419.58Z" style="fill:#683CE4"></path><path d="M238.72,419.58l-3,1.71a1.29,1.29,0,0,1-1.18,0l-3-1.71a.42.42,0,0,1-.23-.33v-.85a.41.41,0,0,1,.23-.33l3-1.71a1.29,1.29,0,0,1,1.18,0l3,1.72a.42.42,0,0,1,.23.32v.86A.39.39,0,0,1,238.72,419.58Z" style="opacity:0.30000000000000004"></path><path d="M234.56,416.36l-3,1.71a.36.36,0,0,0,0,.68l3,1.72a1.36,1.36,0,0,0,1.18,0l3-1.71a.36.36,0,0,0,0-.68l-3-1.72A1.29,1.29,0,0,0,234.56,416.36Z" style="fill:#683CE4"></path><path d="M234.56,416.36l-3,1.71a.36.36,0,0,0,0,.68l3,1.72a1.36,1.36,0,0,0,1.18,0l3-1.71a.36.36,0,0,0,0-.68l-3-1.72A1.29,1.29,0,0,0,234.56,416.36Z" style="opacity:0.2"></path><path d="M239,418.51v.74a.41.41,0,0,1-.23.33l-3,1.71a1.12,1.12,0,0,1-.59.14v-.82a1.22,1.22,0,0,0,.59-.14l3-1.71A.59.59,0,0,0,239,418.51Z" style="opacity:0.1"></path><path d="M244.91,423.16l-3,1.71a1.29,1.29,0,0,1-1.18,0l-3-1.72a.39.39,0,0,1-.23-.33V422a.4.4,0,0,1,.23-.33l3-1.71a1.33,1.33,0,0,1,1.17,0l3,1.72a.39.39,0,0,1,.23.33v.85A.39.39,0,0,1,244.91,423.16Z" style="fill:#683CE4"></path><path d="M244.91,423.16l-3,1.71a1.29,1.29,0,0,1-1.18,0l-3-1.72a.39.39,0,0,1-.23-.33V422a.4.4,0,0,1,.23-.33l3-1.71a1.33,1.33,0,0,1,1.17,0l3,1.72a.39.39,0,0,1,.23.33v.85A.39.39,0,0,1,244.91,423.16Z" style="opacity:0.30000000000000004"></path><path d="M240.76,419.93l-3,1.71c-.33.19-.33.5,0,.68l3,1.72a1.29,1.29,0,0,0,1.18,0l3-1.71a.36.36,0,0,0,0-.68l-3-1.72A1.34,1.34,0,0,0,240.76,419.93Z" style="fill:#683CE4"></path><path d="M240.76,419.93l-3,1.71c-.33.19-.33.5,0,.68l3,1.72a1.29,1.29,0,0,0,1.18,0l3-1.71a.36.36,0,0,0,0-.68l-3-1.72A1.34,1.34,0,0,0,240.76,419.93Z" style="opacity:0.2"></path><path d="M245.14,422.08v.75a.39.39,0,0,1-.23.33l-3,1.71a1.22,1.22,0,0,1-.59.14v-.83A1.15,1.15,0,0,0,242,424l3-1.71A.49.49,0,0,0,245.14,422.08Z" style="opacity:0.1"></path><path d="M251.1,426.73l-3,1.71a1.27,1.27,0,0,1-1.17,0l-3-1.71a.4.4,0,0,1-.23-.33v-.85a.39.39,0,0,1,.23-.33l3-1.71a1.29,1.29,0,0,1,1.18,0l3,1.72a.37.37,0,0,1,.23.32v.86A.37.37,0,0,1,251.1,426.73Z" style="fill:#683CE4"></path><path d="M251.1,426.73l-3,1.71a1.27,1.27,0,0,1-1.17,0l-3-1.71a.4.4,0,0,1-.23-.33v-.85a.39.39,0,0,1,.23-.33l3-1.71a1.29,1.29,0,0,1,1.18,0l3,1.72a.37.37,0,0,1,.23.32v.86A.37.37,0,0,1,251.1,426.73Z" style="opacity:0.30000000000000004"></path><path d="M247,423.51l-3,1.71c-.33.19-.33.49,0,.68l3,1.72a1.34,1.34,0,0,0,1.17,0l3-1.71c.33-.19.33-.49,0-.68l-3-1.72A1.29,1.29,0,0,0,247,423.51Z" style="fill:#683CE4"></path><path d="M247,423.51l-3,1.71c-.33.19-.33.49,0,.68l3,1.72a1.34,1.34,0,0,0,1.17,0l3-1.71c.33-.19.33-.49,0-.68l-3-1.72A1.29,1.29,0,0,0,247,423.51Z" style="opacity:0.2"></path><path d="M251.33,425.66v.74a.39.39,0,0,1-.23.33l-3,1.71a1.12,1.12,0,0,1-.59.14v-.82a1.22,1.22,0,0,0,.59-.14l3-1.71A.53.53,0,0,0,251.33,425.66Z" style="opacity:0.1"></path></g></g><g id="freepik--Table--inject-80"><g id="freepik--table--inject-80"><g id="freepik--table--inject-80"><path id="freepik--shadow--inject-80" d="M246.51,346.9c-40.47,23.36-40.47,61.24,0,84.6s106.07,23.36,146.54,0,40.46-61.24,0-84.6S287,323.53,246.51,346.9Z" style="opacity:0.1"></path><g id="freepik--table--inject-80"><path d="M229.49,363.91a2.88,2.88,0,0,1,1.7-2.36,9,9,0,0,1,8.17,0,2.88,2.88,0,0,1,1.7,2.36l-1.7,42.61h0a2.05,2.05,0,0,1-1.19,1.63,6.42,6.42,0,0,1-5.79,0,2.05,2.05,0,0,1-1.19-1.63h0Z" style="fill:#455a64"></path><path d="M239.36,361.55a9,9,0,0,0-8.17,0,2.88,2.88,0,0,0-1.7,2.36l.57,14.14a62.6,62.6,0,0,0,10.11,8.27l.89-22.41A2.88,2.88,0,0,0,239.36,361.55Z" style="fill:#263238"></path><path d="M409.07,363.91a2.87,2.87,0,0,0-1.69-2.36,9.07,9.07,0,0,0-8.18,0,2.87,2.87,0,0,0-1.69,2.36l1.69,42.61h0a2,2,0,0,0,1.19,1.63,6.4,6.4,0,0,0,5.78,0,2.05,2.05,0,0,0,1.19-1.63h0Z" style="fill:#455a64"></path><path d="M407.38,361.55a9.07,9.07,0,0,0-8.18,0,2.87,2.87,0,0,0-1.69,2.36l.91,22.86a64.33,64.33,0,0,0,10.05-7.86l.6-15A2.87,2.87,0,0,0,407.38,361.55Z" style="fill:#263238"></path><path d="M325.56,395.89a2.87,2.87,0,0,0-1.69-2.36,9.07,9.07,0,0,0-8.18,0,2.87,2.87,0,0,0-1.69,2.36l1.69,42.61h0a2,2,0,0,0,1.19,1.63,6.4,6.4,0,0,0,5.78,0,2.05,2.05,0,0,0,1.19-1.63h0Z" style="fill:#455a64"></path><path d="M325,409.29l.53-13.4a2.86,2.86,0,0,0-1.7-2.36,9,9,0,0,0-8.17,0,2.87,2.87,0,0,0-1.69,2.36l.53,13.4C317.93,409.42,321.63,409.42,325,409.29Z" style="fill:#263238"></path><path d="M423.4,333.74h-.1c0-15.31-10-30.62-30.25-42.3-40.47-23.37-106.08-23.37-146.54,0-20.24,11.68-30.27,27-30.26,42.3h-.09V342h0c.24,15.11,10.38,30.18,30.35,41.71C287,407,352.58,407,393.05,383.67c20-11.53,30.11-26.6,30.35-41.71h0Z" style="fill:#37474f"></path><path d="M246.51,291.44C206,314.8,206,352.68,246.51,376s106.07,23.37,146.54,0,40.46-61.24,0-84.6S287,268.07,246.51,291.44Z" style="fill:#455a64"></path></g></g><path id="freepik--shadow--inject-80" d="M288.07,347.34,330.27,323a1.2,1.2,0,0,0,0-2.27l-58.81-34a4.34,4.34,0,0,0-3.94,0l-42.21,24.37a1.2,1.2,0,0,0,0,2.27l58.82,34A4.34,4.34,0,0,0,288.07,347.34Z" style="fill:#37474f"></path><g id="freepik--Books--inject-80"><path id="freepik--shadow--inject-80" d="M355,380.79l-42.2-24.36a1.2,1.2,0,0,1,0-2.28l58.81-33.95a4.34,4.34,0,0,1,3.94,0l42.21,24.36a1.21,1.21,0,0,1,0,2.28l-58.82,34A4.34,4.34,0,0,1,355,380.79Z" style="fill:#37474f"></path><g id="freepik--Book--inject-80"><path d="M316,355.42l1.61-.86-1.46-.35A1.12,1.12,0,0,0,316,355.42Z" style="fill:#683CE4"></path><path d="M316,355.42l1.61-.86-1.46-.35A1.12,1.12,0,0,0,316,355.42Z" style="opacity:0.5"></path><path d="M358.54,376.84a3.6,3.6,0,0,1-3.26,0l-36.65-21.17,54.86-31.16,1.28-.75,36.66,20.65a1,1,0,0,1,0,1.89Z" style="fill:#683CE4"></path><path d="M344.78,337.37,332,344.73,323.72,340l-9.62,5.56v6.43c0,.84.94,2,1.28,1.84a9.22,9.22,0,0,1,1.85.65,14,14,0,0,1,2.65,2L349.25,340Z" style="fill:#683CE4"></path><path d="M344.78,337.37,332,344.73,323.72,340l-9.62,5.56v6.43c0,.84.94,2,1.28,1.84a9.22,9.22,0,0,1,1.85.65,14,14,0,0,1,2.65,2L349.25,340Z" style="opacity:0.15"></path><path d="M319.38,346.29v7l-.11-.07a3.27,3.27,0,0,0-1.57-.49,1.65,1.65,0,0,0-1,.24v-8.22Z" style="fill:#37474f"></path><path d="M321.18,355.65a2.24,2.24,0,0,0-.46-1.19,4.32,4.32,0,0,0-.45-.51l-.16-.15-.2-.17-.17-.13-.36-.24v-6.94l1.79,1v8.29Z" style="fill:#e0e0e0"></path><path d="M314.1,351.94c0,.84.94,2,1.28,1.84h0l1.28-.84v-5.3l-1.29-2.21-.7-.25-.58.33Z" style="opacity:0.4"></path><path d="M356.91,368v8a2.15,2.15,0,0,1-1.09-.26l-4-2.32-30.62-17.68v-8.33Z" style="fill:#ebebeb"></path><path d="M410.51,338.07v6a2.4,2.4,0,0,1-1.09,1.88L362,373.33l-4,2.32a2.15,2.15,0,0,1-1.09.26v-7.06Z" style="fill:#f5f5f5"></path><path d="M373.49,314.17l-54.86,31.68v.73c0,.41-.58.56-1.28.15s-1.28-.91-1.28-1.62l-.07-.69,55.9-32.28.23-.13a.72.72,0,0,1,.09.34v.34C372.22,313.1,372.79,313.75,373.49,314.17Z" style="fill:#683CE4"></path><path d="M373.49,314.17l-54.86,31.68v.73c0,.41-.58.56-1.28.15s-1.28-.91-1.28-1.62l-.07-.69,55.9-32.28.23-.13a.72.72,0,0,1,.09.34v.34C372.22,313.1,372.79,313.75,373.49,314.17Z" style="opacity:0.1"></path><path d="M355.28,367l-35.84-20.69c-.46-.24-.87-.43-1.05-.34l.24-.13,54.86-31.68.64-.37a2.06,2.06,0,0,1,1.73.25l35.57,20.54a1,1,0,0,1,0,1.88L358.54,367A3.6,3.6,0,0,1,355.28,367Z" style="fill:#683CE4"></path><path d="M372.13,312l-.23.13L316,344.42a.43.43,0,0,0-.12-.15,1.06,1.06,0,0,0-.19-.11l-.4-.23-.5-.29a.51.51,0,0,0-.63.05l-.07.06a1,1,0,0,0-.16.23,1.57,1.57,0,0,0-.15.32c0,.11-.08.24-.11.36s-.06.28-.08.43a2,2,0,0,0,0,.26c0,.07,0,.13,0,.2a3.93,3.93,0,0,0,0,.49v-1.57a3.35,3.35,0,0,1,1.63-2.51L368,311.42a3.3,3.3,0,0,1,2.91-.21l.66.39,0,0,.28.16a0,0,0,0,1,0,0A.54.54,0,0,1,372.13,312Z" style="fill:#683CE4"></path><path d="M355.28,376.83l-2.21-1.28-33.19-19.16a2.09,2.09,0,0,0-.45-1.18,4.87,4.87,0,0,0-1.45-1.28,3.27,3.27,0,0,0-1.57-.49,1.7,1.7,0,0,0-1,.34,5.76,5.76,0,0,1-.61-2.75h-1.25c0,1.74.57,3.48,1.27,3.88l.64.37c.36.21.64.22.64,0V355c0-.38.57-.36,1.28,0s1.28,1,1.28,1.42v.34c0,.19.49.62,1.08,1l32.09,18.53,3.48,2h0a3.47,3.47,0,0,0,1.63.38v-1.45A3.22,3.22,0,0,1,355.28,376.83Z" style="fill:#683CE4"></path><path d="M355.28,376.83l-2.21-1.28-33.19-19.16a2.09,2.09,0,0,0-.45-1.18,4.87,4.87,0,0,0-1.45-1.28,3.27,3.27,0,0,0-1.57-.49,1.7,1.7,0,0,0-1,.34,5.76,5.76,0,0,1-.61-2.75h-1.25c0,1.74.57,3.48,1.27,3.88l.64.37c.36.21.64.22.64,0V355c0-.38.57-.36,1.28,0s1.28,1,1.28,1.42v.34c0,.19.49.62,1.08,1l32.09,18.53,3.48,2h0a3.47,3.47,0,0,0,1.63.38v-1.45A3.22,3.22,0,0,1,355.28,376.83Z" style="opacity:0.30000000000000004"></path><path d="M355.29,367h0l-2.21-1.28L327.57,351l-8.13-4.7c-.58-.34-1.05-.46-1.08-.28,0,0,0,0,0,0v.37c0,.41-.57.41-1.28,0a1.7,1.7,0,0,1-1-1.28v-.41c0-.2-.08-.42-.19-.47a1.6,1.6,0,0,0-.19-.11l-.4-.23-.5-.29a.51.51,0,0,0-.63.05l-.07.06a.58.58,0,0,0-.11.15.35.35,0,0,0-.05.08,1.57,1.57,0,0,0-.15.32c0,.11-.08.24-.11.36s-.06.28-.08.43a2,2,0,0,0,0,.26c0,.07,0,.13,0,.2a3.93,3.93,0,0,0,0,.49v5h1.25v-5c0-.13,0-.26,0-.39l0-.31v0a3.62,3.62,0,0,0,1.9,2.36,3.15,3.15,0,0,0,1.53.48,1.69,1.69,0,0,0,1.13-.42l.11.07.22.13,32.09,18.53,3.48,2h0a3.31,3.31,0,0,0,1.6.37V367.4A3.37,3.37,0,0,1,355.29,367Z" style="fill:#683CE4"></path><path d="M355.29,367h0l-2.21-1.28L327.57,351l-8.13-4.7c-.58-.34-1.05-.46-1.08-.28,0,0,0,0,0,0v.37c0,.41-.57.41-1.28,0a1.7,1.7,0,0,1-1-1.28v-.41c0-.2-.08-.42-.19-.47a1.6,1.6,0,0,0-.19-.11l-.4-.23-.5-.29a.51.51,0,0,0-.63.05l-.07.06a.58.58,0,0,0-.11.15.35.35,0,0,0-.05.08,1.57,1.57,0,0,0-.15.32c0,.11-.08.24-.11.36s-.06.28-.08.43a2,2,0,0,0,0,.26c0,.07,0,.13,0,.2a3.93,3.93,0,0,0,0,.49v5h1.25v-5c0-.13,0-.26,0-.39l0-.31v0a3.62,3.62,0,0,0,1.9,2.36,3.15,3.15,0,0,0,1.53.48,1.69,1.69,0,0,0,1.13-.42l.11.07.22.13,32.09,18.53,3.48,2h0a3.31,3.31,0,0,0,1.6.37V367.4A3.37,3.37,0,0,1,355.29,367Z" style="opacity:0.30000000000000004"></path><path d="M412.1,335.51V337a1.12,1.12,0,0,1-.65.93h0L362,366.46l-3.47,2h0a3.44,3.44,0,0,1-1.63.38V367.4a3.22,3.22,0,0,0,1.63-.39l2.21-1.27h0l50.67-29.27A1.1,1.1,0,0,0,412.1,335.51Z" style="fill:#683CE4"></path><path d="M412.1,335.51V337a1.12,1.12,0,0,1-.65.93h0L362,366.46l-3.47,2h0a3.44,3.44,0,0,1-1.63.38V367.4a3.22,3.22,0,0,0,1.63-.39l2.21-1.27h0l50.67-29.27A1.1,1.1,0,0,0,412.1,335.51Z" style="opacity:0.2"></path><path d="M412.1,345.33v1.48a1.12,1.12,0,0,1-.65.93h0L362,376.28l-3.47,2h0a3.44,3.44,0,0,1-1.63.38v-1.45a3.22,3.22,0,0,0,1.63-.39l2.21-1.27h0l50.67-29.26A1.12,1.12,0,0,0,412.1,345.33Z" style="fill:#683CE4"></path><path d="M412.1,345.33v1.48a1.12,1.12,0,0,1-.65.93h0L362,376.28l-3.47,2h0a3.44,3.44,0,0,1-1.63.38v-1.45a3.22,3.22,0,0,0,1.63-.39l2.21-1.27h0l50.67-29.26A1.12,1.12,0,0,0,412.1,345.33Z" style="opacity:0.2"></path></g><g id="freepik--book--inject-80"><polygon points="324.35 344.07 358.85 363.74 415.85 331.03 381.35 311.36 324.35 344.07" style="fill:#683CE4"></polygon><polygon points="324.35 344.07 358.85 363.74 415.85 331.03 381.35 311.36 324.35 344.07" style="fill:#fff;opacity:0.4"></polygon><path d="M359.25,362.24,326,343.14a13.83,13.83,0,0,0-.18-8.63l33.06,18.9S359.49,355.49,359.25,362.24Z" style="fill:#f5f5f5"></path><path d="M357.16,350.71a7,7,0,0,1,3.19,5.51v6.43c0,2-1.43,2.85-3.19,1.84l-32.8-18.83v-1.59l32.36,18.45c1.06.61,1.92.12,1.92-1.1l0-6a4.22,4.22,0,0,0-1.92-3.3L324.36,333.7v-1.81Z" style="fill:#683CE4"></path><path d="M357.16,350.71a7,7,0,0,1,3.19,5.51v6.43c0,2-1.43,2.85-3.19,1.84l-32.8-18.83v-1.59l32.36,18.45c1.06.61,1.92.12,1.92-1.1l0-6a4.22,4.22,0,0,0-1.92-3.3L324.36,333.7v-1.81Z" style="fill:#fff;opacity:0.6000000000000001"></path><path d="M324.36,331.9l57-32.71L414.15,318a7,7,0,0,1,3.19,5.5V330a2.21,2.21,0,0,1-.93,2.05l-57,32.71a2.21,2.21,0,0,0,.94-2.06v-6.43a7,7,0,0,0-3.2-5.51Z" style="fill:#683CE4"></path><path d="M324.36,331.9l57-32.71L414.15,318a7,7,0,0,1,3.19,5.5V330a2.21,2.21,0,0,1-.93,2.05l-57,32.71a2.21,2.21,0,0,0,.94-2.06v-6.43a7,7,0,0,0-3.2-5.51Z" style="fill:#fff;opacity:0.4"></path><path d="M359.42,353.09a6.41,6.41,0,0,1,.94,3.13v6.43a2.21,2.21,0,0,1-.94,2.06l57-32.71a2.21,2.21,0,0,0,.93-2.05v-6.44a6.46,6.46,0,0,0-.93-3.13Z" style="fill:#683CE4"></path><path d="M359.42,353.09a6.41,6.41,0,0,1,.94,3.13v6.43a2.21,2.21,0,0,1-.94,2.06l57-32.71a2.21,2.21,0,0,0,.93-2.05v-6.44a6.46,6.46,0,0,0-.93-3.13Z" style="fill:#fff;opacity:0.7000000000000001"></path><path d="M408.89,324.65a22.27,22.27,0,0,1,0,11.69l-2.64,1.53a22.48,22.48,0,0,0,0-11.69Z" style="fill:#455a64"></path><path d="M371,346.5a22.37,22.37,0,0,1,0,11.69l-2.65,1.53a22.37,22.37,0,0,0,0-11.69Z" style="fill:#455a64"></path></g></g><g id="freepik--Penciles--inject-80"><path id="freepik--shadow--inject-80" d="M293.4,377.18l-3.87-4.82h0L259,352.8h0l-.84-.54-1.37-.88-.1-.06,0,0-1.33-.84h0l-5.4-3.44c-1-.78-2.71.63-3.4,2.1h0a3.19,3.19,0,0,0-.25.69,1.38,1.38,0,0,0,.38,1.52l4.4,2.81,1.2.76h0l1,.63.1.06,1.14.72h0l0,0,1,.61,31.08,19.88h0l5.9,1.45,1.61.39a.23.23,0,0,0,.21-.05.24.24,0,0,0,0-.32Z" style="fill:#37474f"></path><path id="freepik--shadow--inject-80" d="M300.87,371.3a1.69,1.69,0,0,0,0-.23,1.09,1.09,0,0,0-.38-.66l-5.31-3.6-1.25-.84h0l-.94-.64h0a.05.05,0,0,1,0,0l-1.27-.86h0l-29-19.73h0l-7.28-1.55a.23.23,0,0,0-.21.37l.93,1.1h0l1.07,1.25,2.8,3.27h0l28.82,19.58s0,0,0,0l.93.63.09.06.84.57.24.16h0l0,0,0,0,1.27.84h0l5.32,3.6.13.07,0,0h.05l.2,0h.21l.14,0,.07,0,.18-.07h0a2.68,2.68,0,0,0,.67-.46h0a4.66,4.66,0,0,0,.63-.69h0l.18-.25a.25.25,0,0,0,0-.07l.13-.2.11-.19,0-.09a4.15,4.15,0,0,0,.36-.89,2.26,2.26,0,0,0,.08-.44C300.88,371.4,300.87,371.35,300.87,371.3Z" style="fill:#37474f"></path><g id="freepik--Pencil--inject-80"><path d="M254.11,354l.6.38.72.46,33,21.1a3.39,3.39,0,0,1,.6-2.52c.67-1.12,1.65-2,2.33-2l-32.78-21-1.39-.88C258,350.21,255,354.64,254.11,354Z" style="fill:#683CE4"></path><path d="M254.11,354l.6.38.72.46,33,21.1a3.39,3.39,0,0,1,.6-2.52c.67-1.12,1.65-2,2.33-2l-32.78-21-1.39-.88C258,350.21,255,354.64,254.11,354Z" style="fill:#fff;opacity:0.7000000000000001"></path><path d="M258.49,350.43l-1.34-.85c-.38-.26-1.15.41-1.85,1.31-.92,1.2-1.7,2.8-1.2,3.14l1,.63.36.22c-.51-.35.27-1.95,1.2-3.14.66-.86,1.41-1.52,1.8-1.33h0Z" style="fill:#ebebeb"></path><path d="M258.16,350.22c-.89-.6-3.93,3.85-3.05,4.45l1.34.86c-.88-.61,2.16-5.06,3.05-4.45Z" style="fill:#683CE4"></path><path d="M260.77,351.89l-1.32-.84c-.86-.6-3.85,3.66-3.12,4.4l0,0,1.34.84C256.85,355.71,259.9,351.28,260.77,351.89Z" style="fill:#ebebeb"></path><path d="M289.18,372.59l-40.42-25a4.35,4.35,0,0,0-.64,1.37,1.38,1.38,0,0,0,.38,1.52l5.61,3.58.6.38.72.46,33,21.1a3.39,3.39,0,0,1,.6-2.52S289.16,372.63,289.18,372.59Z" style="fill:#683CE4;opacity:0.15"></path><path d="M257.17,349.58h0c-.38-.26-1.15.41-1.85,1.31-.91,1.18-1.68,2.74-1.22,3.12l-5.58-3.56a1.38,1.38,0,0,1-.38-1.52c.4-1.66,2.45-3.69,3.65-2.79Z" style="fill:#f28f8f"></path><path d="M294.78,376.48c-.5.62-.47.94-.47.94l-5.9-1.45c-.55-.93-.09-2.37.77-3.38l.26.16Z" style="fill:#f28f8f"></path><path d="M295.92,377.81l-1.61-.39s-.06-.32.47-.94l1.37,1h0a.22.22,0,0,1,0,.32A.2.2,0,0,1,295.92,377.81Z" style="fill:#37474f"></path><path d="M291.34,371.45h0l3.87,4.82a.79.79,0,0,0-.43.21l-5.34-3.73-.26-.16A2.87,2.87,0,0,1,291.34,371.45Z" style="fill:#ffa8a7"></path><path d="M294.78,376.48a.59.59,0,0,1,.43-.21l.94,1.17Z" style="fill:#455a64"></path></g><g id="freepik--pencil--inject-80"><path d="M261.84,348.3,257,342.67a.22.22,0,0,1,.22-.36l7.28,1.54Z" style="fill:#ffa8a7"></path><path d="M257.25,342.31a.22.22,0,0,0-.22.36l.94,1.1h0a1.25,1.25,0,0,1,.72-1.08l.12-.05Z" style="fill:#263238"></path><path d="M297.06,366l-32.53-22.11a3.79,3.79,0,0,0-2.69,4.44l32.57,22.14C293.56,369.85,296.19,365.4,297.06,366Z" style="fill:#683CE4"></path><path d="M294.83,364.44l-1.27-.85c-.36-.26-1.12.36-1.81,1.21-.92,1.12-1.55,2.76-1.07,3.1l.93.63.34.22c-.48-.34.15-2,1.07-3.1.66-.81,1.39-1.42,1.77-1.23h0Z" style="fill:#ebebeb"></path><path d="M294.51,364.23c-.83-.61-3.71,3.71-2.88,4.31l1.27.86c-.84-.6,2-4.92,2.88-4.31Z" style="fill:#683CE4"></path><path d="M297,365.9l-1.25-.84c-.81-.6-3.63,3.54-3,4.26l0,0,1.27.85C293.27,369.59,296.16,365.29,297,365.9Z" style="fill:#ebebeb"></path><path d="M301.76,372.68h0L262,346.12l-5-3.44.93,1.09h0l3.87,4.53h0l28.82,19.58s0,0,0,0l.93.63.09.06,1.08.73h0l0,0,1.27.85h0l5.33,3.61.13.06,0,0h0a1.12,1.12,0,0,0,.36,0h0a1.66,1.66,0,0,0,.42-.12h0a3.65,3.65,0,0,0,1.31-1.15Z" style="opacity:0.15"></path><path d="M302.29,369.5,297,365.9c-.35-.26-1.11.36-1.8,1.2-.92,1.12-1.56,2.75-1.09,3.11h0l5.33,3.61c1.06.71,2.78-1.27,3.2-2.85A1.33,1.33,0,0,0,302.29,369.5Z" style="fill:#f28f8f"></path><path d="M300.6,370a4,4,0,0,0-1.48,3.24.92.92,0,0,0,.46.7c1.06.41,2.63-1.43,3-2.92a1.35,1.35,0,0,0-.3-1.46C301.92,369.27,301.27,369.4,300.6,370Z" style="opacity:0.1"></path></g></g></g></g><g id="freepik--Character--inject-80"><path id="freepik--shadow--inject-80" d="M77.54,316.91c-31.26.66-30.09,11-20.16,16.73s25.56,8,36.81,15.9c9.71,6.8,22.94,19,44.39,25.57,18,5.47,33.23,4.55,42.32.82,12.39-5.08,12.22-15.07,12.22-15.07s4.55,2.17,15.62-1.82,20.8-18-6.46-34.63S77.54,316.91,77.54,316.91Z" style="opacity:0.1"></path><g id="freepik--character--inject-80"><g id="freepik--Arm--inject-80"><path d="M239.06,293.29a54.34,54.34,0,0,1,6.29,2.77c3.78,1.92,11.82,5.41,18.37,6a28,28,0,0,0,15.42-2.91c3.88-1.91,8.36-7.78,1.19-9.24s-20.1-8.85-20.1-8.85Z" style="fill:#ffa8a7"></path><path d="M164.41,216.41c13.52,3.06,17.41,10.39,24.19,22.65s15,24.64,15,24.64,25,9.15,34.18,11.19c9.29,2.08,11,1,19.38,2.77,7.38,1.59,12.93,1.66,12.53,3.88s-2.81,3.22-4.91,3.72c-4.45,1.06-9.71-.81-12.53.43l-13,7.63s-34.88-4.08-41.51-5.58-9-3.25-13.88-9.67c-6.05-8-17.47-24.86-17.47-24.86Z" style="fill:#ffa8a7"></path><path d="M163.06,214.81c6.73,1.54,10.43,3.71,14.77,8s8.58,12.07,8.58,12.07c-5.52,10.38-11.37,17.27-18,22l-4-4.21Z" style="fill:#683CE4"></path><path d="M163.06,214.81c6.73,1.54,10.43,3.71,14.77,8s8.58,12.07,8.58,12.07c-5.52,10.38-11.37,17.27-18,22l-4-4.21Z" style="opacity:0.45"></path></g><g id="freepik--character--inject-80"><g id="freepik--Bottom--inject-80"><path d="M67.45,324.58c3-1.43,33.31-.64,36.38,1.86,3.69,3,40.41,16.41,40.41,16.41l28.17,25.56c-11.84,3-32.33.22-48.46-8.21-9.55-5-17.6-11.55-25.95-17.48-4.52-3.21-8-5.45-10-6.13-6.14-2.09-15.58-5.79-23-9.2C65,327.39,64.47,326,67.45,324.58Z" style="fill:#ffa8a7"></path><path d="M57.6,322.52C56.16,320.6,61.89,313.9,70,313c6.37-.73,9.27.44,13.77,1.07,4.33.6,11.1-2.29,14.88-2.9,7.82-1.27,9.09,3.56,8.52,6.12s-1.39,5.47-6.72,7.38S69.58,326.13,57.6,322.52Z" style="fill:#455a64"></path><path d="M109.14,329.48c-2.69,4.62-8.93,3.25-14.2,2.25C90,330.8,72,326,69.59,329.51c-4.91-1.9-9.75-4.61-12-7,0,0,1.29-5,11.49-2.53,6.67,1.61,18.89,2.44,22.65,2,4.93-.61,11.64-5.09,16.77-3C110.72,322,109.82,325,109.14,329.48Z" style="fill:#37474f"></path><path d="M213,330.19c-1.24-8.32-9.21-19-17-26.48-10.38-10-32.1-26.23-32.1-26.23l-.41,2h0l-59.71-12.21c-3.87,7.92-8.43,24.2-8.45,35.71,0,10.73,1.63,23.64,20.41,37.58,11.39,8.45,16.09,14.49,24.65,19,9.29,4.87,21.91,12.85,35.21,8,7.65-2.81,12.7-7.51,12.76-16.09h0c1.52.92,10.84,2.58,17.15-1C211.4,347.11,214.3,338.82,213,330.19Z" style="fill:#ffa8a7"></path><path d="M192.27,352.36a12.73,12.73,0,0,1-3.85-1c-2.32-14.46-17.08-25.17-38-42.14a43.37,43.37,0,0,0,3.9-10.09c-.74,3.49,2,6.55.91,9.07,4.66,4.18,17.38,12.1,24.86,20.69C185.07,334.66,191.54,341.86,192.27,352.36Z" style="fill:#f28f8f"></path><path d="M150.37,359.3c-7.47.7-22.09-4.31-30.71-11.84-2.74-2.4-9.75-8.25-13.35-15.43-1-2.06,26,18.41,26,18.41S141.94,356.92,150.37,359.3Z" style="fill:#f28f8f"></path><path d="M96.81,275.85,167.43,280s23.25,16.13,35,30.63c0,0-11.34-.44-21.23,5.67-8.64,5.34-11.3,9.19-11.3,9.19a33.34,33.34,0,0,0-23.52,2.38C131,335.53,130,348.43,130,348.43s-23.27-13.61-28.88-21.56C91.6,313.37,93.7,286.86,96.81,275.85Z" style="fill:#683CE4"></path><path d="M96.81,275.85,167.43,280s23.25,16.13,35,30.63c0,0-11.34-.44-21.23,5.67-8.64,5.34-11.3,9.19-11.3,9.19a33.34,33.34,0,0,0-23.52,2.38C131,335.53,130,348.43,130,348.43s-23.27-13.61-28.88-21.56C91.6,313.37,93.7,286.86,96.81,275.85Z" style="opacity:0.45"></path><path d="M165.92,299.73s0,7.39-4.79,12l12,10.4c-1.52,1.41-3.21,3.31-3.21,3.31-6.18-6.2-16.6-13.71-16.6-13.71S162.44,307.85,165.92,299.73Z" style="opacity:0.25"></path></g><g id="freepik--Top--inject-80"><path d="M109.16,213.21c-2.13,1.48-5.17,5.64-7.79,16.4-3.92,16.06-6.08,37.36-8,68.07C122.24,310,158.53,306.87,174,285c0,0-1.28-9-4.7-15.81,1-11.43,1.9-18.19,2.35-29.44.39-9.68,1-21.92-12-26.53A74.4,74.4,0,0,0,126,209.35,66.84,66.84,0,0,0,109.16,213.21Z" style="fill:#683CE4"></path><path d="M109.16,213.21c-2.13,1.48-5.17,5.64-7.79,16.4-3.92,16.06-6.08,37.36-8,68.07C122.24,310,158.53,306.87,174,285c0,0-1.28-9-4.7-15.81,1-11.43,1.9-18.19,2.35-29.44.39-9.68,1-21.92-12-26.53A74.4,74.4,0,0,0,126,209.35,66.84,66.84,0,0,0,109.16,213.21Z" style="fill:#fff;opacity:0.85"></path><path d="M115.33,188.4c-2.62,2.68-3.13,10.76.49,14.55-3.21,3.78-2.86,8.63.66,12.37-2,4.61-1.2,8,3.1,10.86-1,4.73,1.83,8.52,7.23,8.91-.39,3.56,2.17,5,4.68,6s2.59,2.46,2.39,4.16a8.09,8.09,0,0,0,.51-8.93,6.77,6.77,0,0,0-5.27-3.27,7.1,7.1,0,0,0-3.94-8.64c1-3.61,1.16-6.38-1.15-9.46,2.48-3.37,3-6.71.86-10.34a12.52,12.52,0,0,0,2.59-1.82s.37-6-4.17-9.86C117.49,188,115.33,188.4,115.33,188.4Z" style="fill:#37474f"></path><path d="M147.82,188.33c-1.63,3.37-.85,11.65,3.78,14.1-1.84,4.6,1.63,10.39,5.84,11.06-.47,5,1.4,8,6.38,9.33.55,4.8,4.43,7.49,9.67,6.16.76,3.5,3.66,4.11,6.36,4.24s3.23,1.52,3.58,3.19a8.07,8.07,0,0,0-2.34-8.62,6.75,6.75,0,0,0-6-1.43,7.1,7.1,0,0,0-6.47-7c-.19-3.74-.92-6.42-4.09-8.61,1.29-4,.68-7.29-2.45-10.08a9.36,9.36,0,0,0,2.22-3.4,13.8,13.8,0,0,0-7.42-7.17C149.75,187.29,147.82,188.33,147.82,188.33Z" style="fill:#37474f"></path><path d="M127.48,202.83c-3.85-5.1-14.15-12-16.94-25-3.13-14.61,2.69-26.07,10.76-29.36,0,0,1.41-10.41,14.93-14.81,10.66-3.46,26.28-.73,35.4,5.65,5,3.48,9.1,7.68,11.29,13.19a26.87,26.87,0,0,1,.3,18.66,20.65,20.65,0,0,1-8.65,10.57A43.85,43.85,0,0,1,161.8,186c-2.74.56-5.51,1-8.25,1.61a21.77,21.77,0,0,0-4.23,1,14.83,14.83,0,0,0-2.51,2L132.41,202C131.31,202.83,128.62,202.93,127.48,202.83Z" style="fill:#37474f"></path><path d="M129.74,179.94a1.85,1.85,0,0,1-.37.25c-2,1-1.66-2.26-3.31-4.63a5,5,0,0,0-3.9-2c-3-.13-5,.95-6.26,3.06-2.29,3.8-.76,10.19,4.36,12.57a7.5,7.5,0,0,0,8.22-.84l-1.65,23.94s6.84,8.07,16.31,11.9c12.38,5,15.85-2.08,11-7.8l.74-6.95a29.6,29.6,0,0,0,8.74-.69,18.85,18.85,0,0,0,13.63-13c1.34-4.66,1.26-9.2,1.75-14,.29-2.86.94-7.36,1-9.22a20,20,0,0,0-.34-4.91c-5.43-2-10.35-1.88-15.45-1.43-1.52-8.09-5.13-11.41-5.13-11.41a31.52,31.52,0,0,1,.71,11.83,55.87,55.87,0,0,1-14.14-.08s-.7-7.58-4.19-10.58A18.68,18.68,0,0,1,139,166a19.26,19.26,0,0,1-7.72,7.15,11.25,11.25,0,0,1-.63,5.36A3.59,3.59,0,0,1,129.74,179.94Z" style="fill:#ffa8a7"></path><path d="M150.3,172.63l-6.88,2.78a3.89,3.89,0,0,1,2.12-4.95A3.62,3.62,0,0,1,150.3,172.63Z" style="fill:#263238"></path><path d="M149.47,192.1l9.05,3.33a5.06,5.06,0,0,1-6.37,2.91A4.7,4.7,0,0,1,149.47,192.1Z" style="fill:#b16668"></path><path d="M150.87,194.78a3.36,3.36,0,0,0-1.57.44,4.62,4.62,0,0,0,2.85,3.12,4.75,4.75,0,0,0,2.2.25,3.73,3.73,0,0,0,0-.47A3.43,3.43,0,0,0,150.87,194.78Z" style="fill:#f28f8f"></path><path d="M145.14,179.46a3,3,0,1,0,3-3.09A3,3,0,0,0,145.14,179.46Z" style="fill:#263238"></path><path d="M167.91,178.74a3,3,0,1,0,3-3.09A3,3,0,0,0,167.91,178.74Z" style="fill:#263238"></path><path d="M175.27,174.26l-7.1-2.35a3.59,3.59,0,0,1,4.6-2.45A3.93,3.93,0,0,1,175.27,174.26Z" style="fill:#263238"></path><polygon points="159.09 175.95 159.87 190.54 167.68 188.32 159.09 175.95" style="fill:#f28f8f"></polygon><path d="M154.84,209.43c-6.3-1-10.81-1.85-17.59-7.25a19.07,19.07,0,0,1-5.82-9.21s.64,7.23,3.14,10.56c6.54,8.71,19.86,9.41,19.86,9.41Z" style="fill:#f28f8f"></path><path d="M156.33,199.48h0C156.4,199.61,156.48,199.77,156.33,199.48Z" style="fill:#b16668"></path><path d="M149.08,197.72h0C149,197.73,149,197.74,149.08,197.72Z" style="fill:#b16668"></path></g></g><g id="freepik--Backpack--inject-80"><path d="M164.83,435.34c5.1-6.84,17.65-23.58,25.53-38.14,7.11-13.15,3.29-27,2.76-35.26-.54,23.53-18.05,46.58-35,67.9-4.12,5.14-7.25,4.67-10.62,2.8l-1.86,2.7S157.86,443.89,164.83,435.34Z" style="fill:#37474f"></path><path d="M170.12,308.07c-4,2.19-11.25,6-11.25,6l2.42,1.4s3.42-2.92,5.05-2L189.85,327a3.28,3.28,0,0,1,1.73,4.34s3.87-4.25,2.57-8.59-2-3.62-7.81-7.11S172.77,306.91,170.12,308.07Z" style="fill:#263238"></path><path d="M188.84,336.25c3.14-2.2,6-5.07,6-8.57s.91-7-3-9.28-15.38-9.42-17.89-10.33-3.82,0-3.82,0,.85-.39,3.89,1.39,15.59,8.84,17,9.85a5.74,5.74,0,0,1,1.62,6.33,15.11,15.11,0,0,1-3.8,4.49Z" style="fill:#37474f"></path><path d="M174.58,313.21c-21.07-12.16-50.41-4.95-65.53,16.11L67.43,387.27a4.88,4.88,0,0,0-.93,2.78c0,1.61,0,8.83,0,9.76a4.66,4.66,0,0,0,2.41,4.1l67.25,38.82a5.88,5.88,0,0,0,7.56-1.63l41.61-57.94a45,45,0,0,0,8.81-26.76c0-1.51,0-7.46,0-8.93A38.52,38.52,0,0,0,174.58,313.21Z" style="fill:#683CE4"></path><path d="M174.58,313.21c-21.07-12.16-50.41-4.95-65.53,16.11L67.43,387.27a4.88,4.88,0,0,0-.93,2.78c0,1.61,0,8.83,0,9.76a4.66,4.66,0,0,0,2.41,4.1l67.25,38.82a5.88,5.88,0,0,0,7.56-1.63l41.61-57.94a45,45,0,0,0,8.81-26.76c0-1.51,0-7.46,0-8.93A38.52,38.52,0,0,0,174.58,313.21Z" style="opacity:0.2"></path><path d="M67.43,387.27a4.88,4.88,0,0,0-.93,2.78c0,1.61,0,8.83,0,9.76a4.66,4.66,0,0,0,2.41,4.1l67.25,38.82a5.66,5.66,0,0,0,3.71.65V362.15H85.47Z" style="opacity:0.15"></path><path d="M67.43,387.27l41.62-57.95c15.12-21.06,44.46-28.27,65.53-16.11s25.88,39.1,10.75,60.16l-41.61,57.95a5.88,5.88,0,0,1-7.56,1.62L68.91,394.12A4.63,4.63,0,0,1,67.43,387.27Z" style="fill:#683CE4"></path><path d="M139,432.64a4.6,4.6,0,0,1-2.29-.6L69.43,393.21a3.57,3.57,0,0,1-1.15-5.33l41.62-57.95a52.52,52.52,0,0,1,42-21.58,44.32,44.32,0,0,1,22.18,5.77,37.39,37.39,0,0,1,18.18,24.69c2.47,11.49-.28,23.54-7.76,33.95l-41.61,57.95A4.85,4.85,0,0,1,139,432.64Z" style="opacity:0.25"></path><path d="M139,432.64a4.85,4.85,0,0,0,3.9-1.93l41.61-57.95a45.31,45.31,0,0,0,8.1-19.12c-.1-.62-.21-1.24-.34-1.86a37.39,37.39,0,0,0-18.18-24.69,44.32,44.32,0,0,0-22.18-5.77,52.5,52.5,0,0,0-42,21.59L72.49,395,136.68,432A4.6,4.6,0,0,0,139,432.64Z" style="opacity:0.25"></path><path d="M166.1,400.19l-22.39,31.13a5.88,5.88,0,0,1-7.55,1.62L68.91,394.12a4.62,4.62,0,0,1-1.48-6.84l2.68-3.63,66.05,38.13a5.87,5.87,0,0,0,7.55-1.63l21.17-29.55c8.7-12.72,12.6-65.92-18.09-83a39.16,39.16,0,0,0-14.47-5,47.44,47.44,0,0,1,25.3,9.65C184.79,332.75,178.81,383.11,166.1,400.19Z" style="fill:#683CE4"></path><path d="M139.87,422.45a5.66,5.66,0,0,1-3.71-.65L68.91,383a4.66,4.66,0,0,1-2.41-4v11.11a4.66,4.66,0,0,0,2.41,4.07l67.25,38.82a5.6,5.6,0,0,0,3.71.65Z" style="fill:#683CE4"></path><path d="M139.87,422.45a5.66,5.66,0,0,1-3.71-.65L68.91,383a4.66,4.66,0,0,1-2.41-4v11.11a4.66,4.66,0,0,0,2.41,4.07l67.25,38.82a5.6,5.6,0,0,0,3.71.65Z" style="opacity:0.15"></path><path d="M146.8,307.57c-20.93-11.67-34.84-2.31-42.57,14S92.3,343,85,352.36L67.43,376.11A4.63,4.63,0,0,0,68.91,383l67.25,38.82a5.87,5.87,0,0,0,7.55-1.63l21.16-29.55C173.57,377.88,177.48,324.68,146.8,307.57Z" style="fill:#683CE4"></path><path d="M146.8,307.57c-20.93-11.67-34.84-2.31-42.57,14S92.3,343,85,352.36L67.43,376.11A4.63,4.63,0,0,0,68.91,383l67.25,38.82a5.87,5.87,0,0,0,7.55-1.63l21.16-29.55C173.57,377.88,177.48,324.68,146.8,307.57Z" style="opacity:0.1"></path><path d="M148.81,378.05l-48.1-27.7a6,6,0,0,0-7.64,1.58L81,368.1a4.73,4.73,0,0,0-1,2.71c0,1,0,4.5,0,5.39a4.54,4.54,0,0,0,2.37,4.06l48.62,28a5.87,5.87,0,0,0,7.55-1.63l11.71-16.36a4.8,4.8,0,0,0,.92-2.79c0-1,0-4.53,0-5.47A4.67,4.67,0,0,0,148.81,378.05Z" style="fill:#683CE4"></path><path d="M148.81,378.05l-48.1-27.7a6,6,0,0,0-7.64,1.58L81,368.1a4.73,4.73,0,0,0-1,2.71c0,1,0,4.5,0,5.39a4.54,4.54,0,0,0,2.37,4.06l48.62,28a5.87,5.87,0,0,0,7.55-1.63l11.71-16.36a4.8,4.8,0,0,0,.92-2.79c0-1,0-4.53,0-5.47A4.67,4.67,0,0,0,148.81,378.05Z" style="opacity:0.2"></path><path d="M82.41,374.89l48.62,28a5.87,5.87,0,0,0,7.55-1.64l11.71-16.36a4.64,4.64,0,0,0-1.48-6.85l-48.1-27.7a6,6,0,0,0-7.64,1.58L81,368.1A4.52,4.52,0,0,0,82.41,374.89Z" style="fill:#683CE4"></path><path d="M82.41,374.89l48.62,28a5.87,5.87,0,0,0,7.55-1.64l11.71-16.36a4.64,4.64,0,0,0-1.48-6.85l-48.1-27.7a6,6,0,0,0-7.64,1.58L81,368.1A4.52,4.52,0,0,0,82.41,374.89Z" style="fill:#fff;opacity:0.1"></path><path d="M91.81,372.29l-1.38-1c-1.05-.74-3.48-2.72-3.38-5.18a2.61,2.61,0,0,1,5-.85,2.61,2.61,0,0,1,5,1.25c-.1,2.47-2.68,4.25-3.79,4.9Z" style="fill:#fff"></path><path d="M94,376.49l.13-1.13c.1-.87.5-2.95,2-3.68a1.77,1.77,0,0,1,2.13,2.72,1.77,1.77,0,0,1,.85,3.35c-1.49.74-3.38-.23-4.13-.67Z" style="fill:#fff"></path><polygon points="90.2 355.77 147.51 388.78 148.64 387.2 91.36 354.21 90.2 355.77" style="fill:#fafafa"></polygon><path d="M148.58,388.78h-2.2l-1,8.15c0,1.91,4.28,1.91,4.28,0Z" style="fill:#37474f"></path><circle cx="147.48" cy="387.8" r="1.86" style="fill:#455a64"></circle><path d="M138.75,323.85l-9,5.19a2.27,2.27,0,0,0-1,2.79l3.35,8.57a2.27,2.27,0,0,0,3,1.28l10.18-4.11a2.26,2.26,0,0,0,1.2-3.07l-4.52-9.65A2.27,2.27,0,0,0,138.75,323.85Z" style="fill:#37474f"></path><path d="M134.24,339.76a.19.19,0,0,1-.17-.12l-3.36-8.57a.19.19,0,0,1,.08-.22l9-5.19.1,0a.16.16,0,0,1,.16.1l4.52,9.65a.15.15,0,0,1,0,.14c0,.07-.08.1-.1.1l-10.18,4.11Z" style="fill:#455a64"></path><path d="M134.29,335.3h0a.9.9,0,0,1-.48-1.19l1.77-4.2a.92.92,0,0,1,1.2-.48h0a.9.9,0,0,1,.48,1.19l-1.77,4.2A.91.91,0,0,1,134.29,335.3Z" style="fill:#683CE4"></path><path d="M137.86,336.54h0a.91.91,0,0,1-.48-1.2l1.77-4.2a.92.92,0,0,1,1.2-.48h0a.91.91,0,0,1,.48,1.19l-1.77,4.2A.92.92,0,0,1,137.86,336.54Z" style="fill:#683CE4"></path></g><g id="freepik--arm--inject-80"><path d="M109.16,213.21c-12,3.2-18.7,12.38-22,23.38s-9,30.42-11,39c-2.58,11.14,0,15,7.62,19.5s26.81,10.78,38.05,11.52c5.43.35,15.46-3.47,20.13-2.35a50.6,50.6,0,0,1,9.47,3.88s4.86-2.47-2.12-9.54-9.09-10.57-17.15-11c-6.9-.37-11,1.32-13.47.15-7.14-3.45-17.7-10.59-17.7-10.59l12.25-29.78S117.22,223.64,109.16,213.21Z" style="fill:#ffa8a7"></path><path d="M110.33,212.77c-4.86.6-12.85,3.22-17.53,10.29-3.79,5.72-5.65,13.53-5.65,13.53a28.41,28.41,0,0,1,14.26,4.94,22.92,22.92,0,0,1,9.32,12.13l3.39-6.26S118.39,228,110.33,212.77Z" style="fill:#683CE4"></path><path d="M110.33,212.77c-4.86.6-12.85,3.22-17.53,10.29-3.79,5.72-5.65,13.53-5.65,13.53a28.41,28.41,0,0,1,14.26,4.94,22.92,22.92,0,0,1,9.32,12.13l3.39-6.26S118.39,228,110.33,212.77Z" style="opacity:0.45"></path></g><g id="freepik--Notebooks--inject-80"><g id="freepik--Notebook--inject-80"><polygon points="229.1 311.14 229.64 311.46 230.14 311.74 246.93 321.44 287.27 344.73 328.31 321.04 328.31 321.44 287.28 345.12 229.8 311.93 229.31 311.65 229.1 311.53 229.1 311.14" style="fill:#683CE4"></polygon><polygon points="229.1 311.14 229.64 311.46 230.14 311.74 246.93 321.44 287.27 344.73 328.31 321.04 328.31 321.44 287.28 345.12 229.8 311.93 229.31 311.65 229.1 311.53 229.1 311.14" style="opacity:0.1"></polygon><path d="M229.64,311.46l.5.28,16.79,9.7,40.35,23.29,41-23.69-.35-.2-1.37-.79-55.42-32-.5-.29-.53-.31-41,23.69Z" style="fill:#683CE4"></path><polygon points="229.1 311.53 229.1 311.14 287.28 344.73 287.28 345.12 229.1 311.53" style="fill:#683CE4"></polygon><polygon points="229.1 311.53 229.1 311.14 287.28 344.73 287.28 345.12 229.1 311.53" style="fill:#fff;opacity:0.4"></polygon><polygon points="229.59 307.82 287.08 341.01 327.96 317.41 327.96 320.73 287.08 344.33 229.59 311.14 229.59 307.82" style="fill:#ebebeb"></polygon><polygon points="229.59 311.15 229.59 307.82 287.08 341.01 287.08 344.34 229.59 311.15" style="fill:#fafafa"></polygon><polygon points="229.1 307.25 229.64 307.56 230.14 307.84 246.93 317.54 287.27 340.83 328.31 317.15 328.31 317.54 287.28 341.23 229.8 308.04 229.31 307.75 229.1 307.64 229.1 307.25" style="fill:#683CE4"></polygon><polygon points="229.1 307.25 229.64 307.56 230.14 307.84 246.93 317.54 287.27 340.83 328.31 317.15 328.31 317.54 287.28 341.23 229.8 308.04 229.31 307.75 229.1 307.64 229.1 307.25" style="opacity:0.1"></polygon><path d="M229.64,307.56l.5.28,16.79,9.7,40.35,23.29,41-23.68L328,317l-1.37-.79-55.42-32-.5-.29-.53-.31-41,23.69Z" style="fill:#683CE4"></path><path d="M229.64,307.56l.5.28,16.79,9.7,40.35,23.29,41-23.68L328,317l-1.37-.79-55.42-32-.5-.29-.53-.31-41,23.69Z" style="fill:#fff;opacity:0.2"></path><polygon points="229.1 307.64 229.1 307.25 287.28 340.83 287.28 341.22 229.1 307.64" style="fill:#683CE4"></polygon><polygon points="229.1 307.64 229.1 307.25 287.28 340.83 287.28 341.22 229.1 307.64" style="fill:#fff;opacity:0.4"></polygon><g id="freepik--notebook--inject-80"><path d="M285.89,338.51a.44.44,0,0,1,0-.83,1.59,1.59,0,0,1,1.44,0c.4.22.4.6,0,.83A1.65,1.65,0,0,1,285.89,338.51Z" style="fill:#37474f"></path><path d="M281.94,343.13a1.85,1.85,0,0,0,3,1.73,4.21,4.21,0,0,0,.82-.62l-.48-.27a4,4,0,0,1-.61.43,1.33,1.33,0,0,1-2.21-1.27,5.49,5.49,0,0,1,2.48-4.3,2.36,2.36,0,0,1,1-.32,1.16,1.16,0,0,1,.62.14l0,0a1.71,1.71,0,0,0,.65-.12,1.53,1.53,0,0,0-.43-.37,1.65,1.65,0,0,0-1.19-.17,2.93,2.93,0,0,0-.92.35A6.1,6.1,0,0,0,281.94,343.13Z" style="fill:#683CE4"></path><path d="M282.4,336.49a.44.44,0,0,1,0-.83,1.59,1.59,0,0,1,1.44,0,.44.44,0,0,1,0,.83A1.59,1.59,0,0,1,282.4,336.49Z" style="fill:#37474f"></path><path d="M278.45,341.11a1.85,1.85,0,0,0,3,1.74,5.2,5.2,0,0,0,.82-.62l-.48-.28a4.07,4.07,0,0,1-.61.44,1.33,1.33,0,0,1-2.21-1.28,5.47,5.47,0,0,1,2.48-4.29,2.06,2.06,0,0,1,1-.32,1.16,1.16,0,0,1,.62.14l0,0a1.4,1.4,0,0,0,.65-.12,1.5,1.5,0,0,0-.43-.36,1.66,1.66,0,0,0-1.19-.18,3.24,3.24,0,0,0-.92.36A6.06,6.06,0,0,0,278.45,341.11Z" style="fill:#683CE4"></path><path d="M278.91,334.47c-.4-.22-.4-.6,0-.83a1.62,1.62,0,0,1,1.44,0,.44.44,0,0,1,0,.83A1.59,1.59,0,0,1,278.91,334.47Z" style="fill:#37474f"></path><path d="M275,339.09a1.85,1.85,0,0,0,3,1.74,3.69,3.69,0,0,0,.82-.62l-.48-.27a4.12,4.12,0,0,1-.6.43,1.33,1.33,0,0,1-2.21-1.28A5.5,5.5,0,0,1,278,334.8a2.26,2.26,0,0,1,1-.32,1.16,1.16,0,0,1,.62.14l0,0a1.56,1.56,0,0,0,.65-.11,1.51,1.51,0,0,0-.43-.37,1.65,1.65,0,0,0-1.19-.17,2.84,2.84,0,0,0-.92.35A6.07,6.07,0,0,0,275,339.09Z" style="fill:#683CE4"></path><path d="M275.42,332.46a.44.44,0,0,1,0-.83,1.59,1.59,0,0,1,1.44,0,.44.44,0,0,1,0,.83A1.59,1.59,0,0,1,275.42,332.46Z" style="fill:#37474f"></path><path d="M271.46,337.08a1.85,1.85,0,0,0,3,1.73,4.26,4.26,0,0,0,.82-.61l-.48-.28a3.48,3.48,0,0,1-.6.43,1.34,1.34,0,0,1-2.22-1.27,5.5,5.5,0,0,1,2.48-4.29,2.09,2.09,0,0,1,1-.32,1.07,1.07,0,0,1,.62.13l0,0a1.44,1.44,0,0,0,.66-.12,1.69,1.69,0,0,0-.43-.37,1.71,1.71,0,0,0-1.19-.17,2.59,2.59,0,0,0-.92.36A6,6,0,0,0,271.46,337.08Z" style="fill:#683CE4"></path><path d="M271.93,330.44a.44.44,0,0,1,0-.83,1.57,1.57,0,0,1,1.43,0,.44.44,0,0,1,0,.83A1.57,1.57,0,0,1,271.93,330.44Z" style="fill:#37474f"></path><path d="M268,335.06a1.85,1.85,0,0,0,3,1.74,4.78,4.78,0,0,0,.82-.62l-.48-.28a4,4,0,0,1-.6.44,1.34,1.34,0,0,1-2.22-1.28,5.47,5.47,0,0,1,2.48-4.29,2.09,2.09,0,0,1,1-.32,1.16,1.16,0,0,1,.62.14l0,0a1.61,1.61,0,0,0,.66-.11,1.51,1.51,0,0,0-.43-.37,1.72,1.72,0,0,0-1.19-.18,3,3,0,0,0-.92.36A6.06,6.06,0,0,0,268,335.06Z" style="fill:#683CE4"></path><path d="M268.43,328.43a.44.44,0,0,1,0-.83,1.59,1.59,0,0,1,1.44,0,.44.44,0,0,1,0,.83A1.59,1.59,0,0,1,268.43,328.43Z" style="fill:#37474f"></path><path d="M264.48,333.05a1.85,1.85,0,0,0,3,1.73,4.21,4.21,0,0,0,.82-.62l-.48-.27a3.55,3.55,0,0,1-.61.43,1.33,1.33,0,0,1-2.21-1.27,5.49,5.49,0,0,1,2.48-4.3,2.36,2.36,0,0,1,1-.32,1.16,1.16,0,0,1,.62.14l0,0a1.54,1.54,0,0,0,.65-.12,1.64,1.64,0,0,0-.42-.37,1.72,1.72,0,0,0-1.19-.17,2.89,2.89,0,0,0-.93.35A6.1,6.1,0,0,0,264.48,333.05Z" style="fill:#683CE4"></path><path d="M264.94,326.41a.44.44,0,0,1,0-.83,1.59,1.59,0,0,1,1.44,0,.44.44,0,0,1,0,.83A1.59,1.59,0,0,1,264.94,326.41Z" style="fill:#37474f"></path><path d="M261,331a1.85,1.85,0,0,0,3,1.74,5.2,5.2,0,0,0,.82-.62l-.48-.28a4.07,4.07,0,0,1-.61.44,1.33,1.33,0,0,1-2.21-1.28,5.47,5.47,0,0,1,2.48-4.29,2.09,2.09,0,0,1,1-.32,1.16,1.16,0,0,1,.62.14l0,0a1.4,1.4,0,0,0,.65-.12,1.5,1.5,0,0,0-.43-.36,1.71,1.71,0,0,0-1.19-.18,3.24,3.24,0,0,0-.92.36A6.06,6.06,0,0,0,261,331Z" style="fill:#683CE4"></path><path d="M261.45,324.39a.43.43,0,0,1,0-.82,1.62,1.62,0,0,1,1.44,0c.4.23.4.61,0,.83A1.59,1.59,0,0,1,261.45,324.39Z" style="fill:#37474f"></path><path d="M257.5,329a1.85,1.85,0,0,0,3,1.74,4.21,4.21,0,0,0,.82-.62l-.48-.27a4.83,4.83,0,0,1-.61.43A1.33,1.33,0,0,1,258,329a5.49,5.49,0,0,1,2.48-4.29,2.32,2.32,0,0,1,.95-.32,1.17,1.17,0,0,1,.63.14l0,0a1.71,1.71,0,0,0,.65-.12,1.53,1.53,0,0,0-.43-.37,1.65,1.65,0,0,0-1.19-.17,2.93,2.93,0,0,0-.92.35A6.09,6.09,0,0,0,257.5,329Z" style="fill:#683CE4"></path><path d="M258,322.38a.44.44,0,0,1,0-.83,1.59,1.59,0,0,1,1.44,0,.44.44,0,0,1,0,.83A1.59,1.59,0,0,1,258,322.38Z" style="fill:#37474f"></path><path d="M254,327a1.85,1.85,0,0,0,3,1.74,4.78,4.78,0,0,0,.82-.62l-.48-.28a4.19,4.19,0,0,1-.6.44,1.61,1.61,0,0,1-1.58.18,1.58,1.58,0,0,1-.63-1.46,5.46,5.46,0,0,1,2.47-4.29,2.13,2.13,0,0,1,1-.32,1.07,1.07,0,0,1,.62.13l.05,0a1.42,1.42,0,0,0,.65-.12,1.69,1.69,0,0,0-.43-.37,1.71,1.71,0,0,0-1.19-.17,2.79,2.79,0,0,0-.92.36A6.07,6.07,0,0,0,254,327Z" style="fill:#683CE4"></path><path d="M254.47,320.36a.44.44,0,0,1,0-.83,1.59,1.59,0,0,1,1.44,0,.44.44,0,0,1,0,.83A1.59,1.59,0,0,1,254.47,320.36Z" style="fill:#37474f"></path><path d="M250.51,325a1.85,1.85,0,0,0,3,1.74,4.78,4.78,0,0,0,.82-.62l-.48-.28a3.55,3.55,0,0,1-.6.44A1.34,1.34,0,0,1,251,325a5.49,5.49,0,0,1,2.48-4.29,2.22,2.22,0,0,1,1-.32,1.16,1.16,0,0,1,.62.14l0,0a1.58,1.58,0,0,0,.66-.11,1.51,1.51,0,0,0-.43-.37,1.72,1.72,0,0,0-1.19-.18,3,3,0,0,0-.92.36A6.06,6.06,0,0,0,250.51,325Z" style="fill:#683CE4"></path><path d="M251,318.35a.44.44,0,0,1,0-.83,1.57,1.57,0,0,1,1.43,0,.44.44,0,0,1,0,.83A1.57,1.57,0,0,1,251,318.35Z" style="fill:#37474f"></path><path d="M247,323a1.85,1.85,0,0,0,3,1.73,3.93,3.93,0,0,0,.82-.62l-.48-.27a3.92,3.92,0,0,1-.6.43,1.33,1.33,0,0,1-2.22-1.27,5.46,5.46,0,0,1,2.48-4.29,2.25,2.25,0,0,1,1-.33,1.16,1.16,0,0,1,.62.14l0,0a1.61,1.61,0,0,0,.66-.12,1.69,1.69,0,0,0-.43-.37,1.71,1.71,0,0,0-1.19-.17,2.7,2.7,0,0,0-.93.36A6.06,6.06,0,0,0,247,323Z" style="fill:#683CE4"></path><path d="M247.49,316.33c-.4-.22-.4-.6,0-.83a1.57,1.57,0,0,1,1.43,0,.44.44,0,0,1,0,.83A1.57,1.57,0,0,1,247.49,316.33Z" style="fill:#37474f"></path><path d="M243.53,321a1.85,1.85,0,0,0,3,1.74,3.93,3.93,0,0,0,.82-.62l-.48-.27a4.74,4.74,0,0,1-.6.43,1.34,1.34,0,0,1-2.22-1.28,5.49,5.49,0,0,1,2.48-4.29,2.22,2.22,0,0,1,1-.32,1.16,1.16,0,0,1,.62.14l0,0a1.61,1.61,0,0,0,.66-.11,1.51,1.51,0,0,0-.43-.37,1.66,1.66,0,0,0-1.19-.17,2.76,2.76,0,0,0-.92.35A6.08,6.08,0,0,0,243.53,321Z" style="fill:#683CE4"></path><path d="M244,314.32a.44.44,0,0,1,0-.83,1.57,1.57,0,0,1,1.43,0,.44.44,0,0,1,0,.83A1.57,1.57,0,0,1,244,314.32Z" style="fill:#37474f"></path><path d="M240,318.94a1.85,1.85,0,0,0,3,1.73,4.59,4.59,0,0,0,.82-.61l-.48-.28a3.55,3.55,0,0,1-.61.43,1.33,1.33,0,0,1-2.21-1.27,5.47,5.47,0,0,1,2.48-4.29,2.09,2.09,0,0,1,1-.32,1.07,1.07,0,0,1,.62.13l0,0a1.46,1.46,0,0,0,.66-.12,1.88,1.88,0,0,0-.43-.37,1.72,1.72,0,0,0-1.19-.17,2.7,2.7,0,0,0-.93.36A6.06,6.06,0,0,0,240,318.94Z" style="fill:#683CE4"></path><path d="M240.5,312.3a.44.44,0,0,1,0-.83,1.59,1.59,0,0,1,1.44,0,.44.44,0,0,1,0,.83A1.59,1.59,0,0,1,240.5,312.3Z" style="fill:#37474f"></path><path d="M236.55,316.92a1.85,1.85,0,0,0,3,1.74,5.2,5.2,0,0,0,.82-.62l-.48-.28a4.07,4.07,0,0,1-.61.44,1.33,1.33,0,0,1-2.21-1.28,5.47,5.47,0,0,1,2.48-4.29,2.09,2.09,0,0,1,1-.32,1.16,1.16,0,0,1,.62.14l0,0a1.54,1.54,0,0,0,.65-.11,1.39,1.39,0,0,0-.43-.37,1.71,1.71,0,0,0-1.19-.18,3.24,3.24,0,0,0-.92.36A6.08,6.08,0,0,0,236.55,316.92Z" style="fill:#683CE4"></path><path d="M237,310.29a.44.44,0,0,1,0-.83,1.59,1.59,0,0,1,1.44,0,.44.44,0,0,1,0,.83A1.59,1.59,0,0,1,237,310.29Z" style="fill:#37474f"></path><path d="M233.06,314.91a1.84,1.84,0,0,0,3,1.73,4.21,4.21,0,0,0,.82-.62l-.48-.27a4,4,0,0,1-.61.43,1.33,1.33,0,0,1-2.21-1.27,5.49,5.49,0,0,1,2.48-4.3,2.32,2.32,0,0,1,1-.32,1.2,1.2,0,0,1,.63.14l0,0a.34.34,0,1,0,.22-.49,1.71,1.71,0,0,0-1.19-.17,2.93,2.93,0,0,0-.92.35A6.1,6.1,0,0,0,233.06,314.91Z" style="fill:#683CE4"></path><path d="M233.52,308.27a.44.44,0,0,1,0-.83,1.59,1.59,0,0,1,1.44,0,.44.44,0,0,1,0,.83A1.59,1.59,0,0,1,233.52,308.27Z" style="fill:#37474f"></path><path d="M229.56,312.89a1.85,1.85,0,0,0,3,1.74,4.78,4.78,0,0,0,.82-.62l-.48-.28a3.55,3.55,0,0,1-.6.44,1.33,1.33,0,0,1-2.21-1.28,5.46,5.46,0,0,1,2.47-4.29,2.13,2.13,0,0,1,1-.32,1.07,1.07,0,0,1,.62.14l0,0a1.42,1.42,0,0,0,.65-.12,1.65,1.65,0,0,0-.43-.36,1.72,1.72,0,0,0-1.19-.18,3,3,0,0,0-.92.36A6.07,6.07,0,0,0,229.56,312.89Z" style="fill:#683CE4"></path><path d="M229.56,312.89a1.85,1.85,0,0,0,3,1.74,4,4,0,0,0,.54-.38,4.89,4.89,0,0,0-.05.66,1.84,1.84,0,0,0,3,1.73,3.06,3.06,0,0,0,.53-.38,5.14,5.14,0,0,0,0,.66,1.85,1.85,0,0,0,3,1.74,4.7,4.7,0,0,0,.53-.38,4.89,4.89,0,0,0-.05.66,1.85,1.85,0,0,0,3,1.73,4.33,4.33,0,0,0,.54-.37,3.66,3.66,0,0,0-.06.65,1.85,1.85,0,0,0,3,1.74,4.7,4.7,0,0,0,.53-.38,5,5,0,0,0,0,.66,1.85,1.85,0,0,0,3,1.73,3.56,3.56,0,0,0,.54-.38,3.85,3.85,0,0,0-.06.66,1.85,1.85,0,0,0,3,1.74,4.8,4.8,0,0,0,.54-.38,3.68,3.68,0,0,0-.06.66,1.85,1.85,0,0,0,3,1.74,4,4,0,0,0,.54-.38,4.87,4.87,0,0,0-.05.65,1.85,1.85,0,0,0,3,1.74,4.7,4.7,0,0,0,.53-.38,5.14,5.14,0,0,0-.05.66,1.85,1.85,0,0,0,3,1.74,4.7,4.7,0,0,0,.53-.38,4.89,4.89,0,0,0,0,.66,1.85,1.85,0,0,0,3,1.73,3.56,3.56,0,0,0,.54-.38,3.85,3.85,0,0,0-.06.66,1.85,1.85,0,0,0,3,1.74,4.8,4.8,0,0,0,.54-.38,3.68,3.68,0,0,0-.06.66,1.85,1.85,0,0,0,3,1.73,3.23,3.23,0,0,0,.54-.37,3.63,3.63,0,0,0-.05.65,1.85,1.85,0,0,0,3,1.74,4,4,0,0,0,.54-.38,5.14,5.14,0,0,0-.05.66,1.85,1.85,0,0,0,3,1.74,4.7,4.7,0,0,0,.53-.38,4.89,4.89,0,0,0-.05.66,1.85,1.85,0,0,0,3,1.73,4.21,4.21,0,0,0,.82-.62l-.48-.27a4,4,0,0,1-.61.43,1.33,1.33,0,0,1-2.21-1.27,5.49,5.49,0,0,1,2.48-4.3,2.36,2.36,0,0,1,1-.32,1.16,1.16,0,0,1,.62.14l0,0a1.71,1.71,0,0,0,.65-.12,1.53,1.53,0,0,0-.43-.37,1.65,1.65,0,0,0-1.19-.17,2.93,2.93,0,0,0-.92.35,6.21,6.21,0,0,0-2.62,3.74l-.26-.16a4.07,4.07,0,0,1-.61.44,1.33,1.33,0,0,1-2.21-1.28,5.47,5.47,0,0,1,2.48-4.29,2.06,2.06,0,0,1,1-.32,1.16,1.16,0,0,1,.62.14l0,0a1.4,1.4,0,0,0,.65-.12,1.5,1.5,0,0,0-.43-.36,1.71,1.71,0,0,0-1.19-.18,3.24,3.24,0,0,0-.92.36,6.14,6.14,0,0,0-2.62,3.73l-.27-.15a4.12,4.12,0,0,1-.6.43,1.33,1.33,0,0,1-2.21-1.28A5.5,5.5,0,0,1,278,334.8a2.26,2.26,0,0,1,1-.32,1.16,1.16,0,0,1,.62.14l0,0a1.56,1.56,0,0,0,.65-.11,1.51,1.51,0,0,0-.43-.37,1.65,1.65,0,0,0-1.19-.17,2.84,2.84,0,0,0-.92.35,6.17,6.17,0,0,0-2.62,3.73l-.27-.15a3.48,3.48,0,0,1-.6.43,1.34,1.34,0,0,1-2.22-1.27,5.5,5.5,0,0,1,2.48-4.29,2.09,2.09,0,0,1,1-.32,1.07,1.07,0,0,1,.62.13l0,0a1.44,1.44,0,0,0,.66-.12,1.69,1.69,0,0,0-.43-.37,1.71,1.71,0,0,0-1.19-.17,2.59,2.59,0,0,0-.92.36,6.12,6.12,0,0,0-2.62,3.73l-.27-.16a4,4,0,0,1-.6.44,1.34,1.34,0,0,1-2.22-1.28,5.47,5.47,0,0,1,2.48-4.29,2.09,2.09,0,0,1,1-.32,1.16,1.16,0,0,1,.62.14l0,0a1.61,1.61,0,0,0,.66-.11,1.51,1.51,0,0,0-.43-.37,1.72,1.72,0,0,0-1.19-.18,3,3,0,0,0-.92.36A6.17,6.17,0,0,0,268.1,334l-.27-.15a3.55,3.55,0,0,1-.61.43,1.33,1.33,0,0,1-2.21-1.27,5.49,5.49,0,0,1,2.48-4.3,2.36,2.36,0,0,1,1-.32,1.16,1.16,0,0,1,.62.14l0,0a1.54,1.54,0,0,0,.65-.12,1.64,1.64,0,0,0-.42-.37,1.72,1.72,0,0,0-1.19-.17,2.89,2.89,0,0,0-.93.35,6.15,6.15,0,0,0-2.61,3.74l-.27-.16a4.07,4.07,0,0,1-.61.44,1.33,1.33,0,0,1-2.21-1.28,5.47,5.47,0,0,1,2.48-4.29,2.09,2.09,0,0,1,1-.32,1.16,1.16,0,0,1,.62.14l0,0a1.4,1.4,0,0,0,.65-.12,1.5,1.5,0,0,0-.43-.36,1.71,1.71,0,0,0-1.19-.18,3.24,3.24,0,0,0-.92.36,6.14,6.14,0,0,0-2.62,3.73l-.26-.15a4.83,4.83,0,0,1-.61.43A1.33,1.33,0,0,1,258,329a5.49,5.49,0,0,1,2.48-4.29,2.32,2.32,0,0,1,.95-.32,1.17,1.17,0,0,1,.63.14l0,0a1.71,1.71,0,0,0,.65-.12,1.53,1.53,0,0,0-.43-.37,1.65,1.65,0,0,0-1.19-.17,2.93,2.93,0,0,0-.92.35,6.17,6.17,0,0,0-2.62,3.73l-.27-.15a3.55,3.55,0,0,1-.6.44,1.61,1.61,0,0,1-1.58.18,1.58,1.58,0,0,1-.63-1.46,5.46,5.46,0,0,1,2.47-4.29,2.13,2.13,0,0,1,1-.32,1.07,1.07,0,0,1,.62.13l.05,0a1.42,1.42,0,0,0,.65-.12,1.69,1.69,0,0,0-.43-.37,1.71,1.71,0,0,0-1.19-.17,2.79,2.79,0,0,0-.92.36,6.14,6.14,0,0,0-2.62,3.73l-.27-.16a3.55,3.55,0,0,1-.6.44A1.34,1.34,0,0,1,251,325a5.49,5.49,0,0,1,2.48-4.29,2.22,2.22,0,0,1,1-.32,1.16,1.16,0,0,1,.62.14l0,0a1.58,1.58,0,0,0,.66-.11,1.51,1.51,0,0,0-.43-.37,1.72,1.72,0,0,0-1.19-.18,3,3,0,0,0-.92.36,6.17,6.17,0,0,0-2.62,3.73l-.27-.15a3.92,3.92,0,0,1-.6.43,1.33,1.33,0,0,1-2.22-1.27,5.46,5.46,0,0,1,2.48-4.29,2.25,2.25,0,0,1,1-.33,1.16,1.16,0,0,1,.62.14l0,0a1.61,1.61,0,0,0,.66-.12,1.69,1.69,0,0,0-.43-.37,1.71,1.71,0,0,0-1.19-.17,2.7,2.7,0,0,0-.93.36,6.14,6.14,0,0,0-2.61,3.73l-.27-.15a4.74,4.74,0,0,1-.6.43,1.34,1.34,0,0,1-2.22-1.28,5.49,5.49,0,0,1,2.48-4.29,2.22,2.22,0,0,1,1-.32,1.16,1.16,0,0,1,.62.14l0,0a1.61,1.61,0,0,0,.66-.11,1.51,1.51,0,0,0-.43-.37,1.66,1.66,0,0,0-1.19-.17,2.76,2.76,0,0,0-.92.35,6.17,6.17,0,0,0-2.62,3.73l-.27-.15a3.55,3.55,0,0,1-.61.43,1.33,1.33,0,0,1-2.21-1.27,5.47,5.47,0,0,1,2.48-4.29,2.09,2.09,0,0,1,1-.32,1.07,1.07,0,0,1,.62.13l0,0a1.46,1.46,0,0,0,.66-.12,1.88,1.88,0,0,0-.43-.37,1.72,1.72,0,0,0-1.19-.17,2.7,2.7,0,0,0-.93.36,6.1,6.1,0,0,0-2.61,3.73l-.27-.16a4.07,4.07,0,0,1-.61.44,1.33,1.33,0,0,1-2.21-1.28,5.47,5.47,0,0,1,2.48-4.29,2.09,2.09,0,0,1,1-.32,1.16,1.16,0,0,1,.62.14l0,0a1.54,1.54,0,0,0,.65-.11,1.39,1.39,0,0,0-.43-.37,1.71,1.71,0,0,0-1.19-.18,3.24,3.24,0,0,0-.92.36,6.18,6.18,0,0,0-2.62,3.73l-.26-.15a4,4,0,0,1-.61.43,1.33,1.33,0,0,1-2.21-1.27,5.49,5.49,0,0,1,2.48-4.3,2.32,2.32,0,0,1,1-.32,1.2,1.2,0,0,1,.63.14l0,0a.34.34,0,1,0,.22-.49,1.71,1.71,0,0,0-1.19-.17,2.93,2.93,0,0,0-.92.35,6.17,6.17,0,0,0-2.62,3.74l-.27-.16a3.55,3.55,0,0,1-.6.44,1.33,1.33,0,0,1-2.21-1.28,5.46,5.46,0,0,1,2.47-4.29,2.13,2.13,0,0,1,1-.32,1.07,1.07,0,0,1,.62.14l0,0a1.42,1.42,0,0,0,.65-.12,1.65,1.65,0,0,0-.43-.36,1.72,1.72,0,0,0-1.19-.18,3,3,0,0,0-.92.36A6.07,6.07,0,0,0,229.56,312.89Z" style="opacity:0.4"></path></g></g><g id="freepik--notebook--inject-80"><path d="M276.68,275.62l-41.4,24.19-.59.93v.75a1.1,1.1,0,0,0,.59.93l54,31.15a2,2,0,0,0,1,.25,2,2,0,0,0,1-.25L332,310.06v-.75Z" style="fill:#683CE4"></path><path d="M276.68,275.62l-41.4,24.19-.59.93v.75a1.1,1.1,0,0,0,.59.93l54,31.15a2,2,0,0,0,1,.25,2,2,0,0,0,1-.25L332,310.06v-.75Z" style="opacity:0.2"></path><path d="M290.21,333.07a2,2,0,0,1-1-.25l-54-31.15a1,1,0,0,1,0-1.86l40.14-24.92L332,309.31,291.2,332.82A2,2,0,0,1,290.21,333.07Z" style="fill:#683CE4"></path><path d="M275.42,272.7l-39.83,23-.27.39v4.68h0a.48.48,0,0,0,.27.39l54,31.16a1.53,1.53,0,0,0,1.35,0l39.82-23v-4.68Z" style="fill:#f5f5f5"></path><path d="M290.21,327.77v4.68a1.44,1.44,0,0,1-.67-.16l-54-31.16a.48.48,0,0,1-.27-.39v-4.68a.48.48,0,0,0,.27.39l54,31.16A1.33,1.33,0,0,0,290.21,327.77Z" style="fill:#e0e0e0"></path><path d="M276.68,273.05l-41.4,22.42-.59.93v.75a1.1,1.1,0,0,0,.59.93l54,31.15a2,2,0,0,0,1,.24,2,2,0,0,0,1-.24L332,305.72V305Z" style="fill:#683CE4"></path><path d="M276.68,273.05l-41.4,22.42-.59.93v.75a1.1,1.1,0,0,0,.59.93l54,31.15a2,2,0,0,0,1,.24,2,2,0,0,0,1-.24L332,305.72V305Z" style="opacity:0.2"></path><path d="M290.21,328.73a2,2,0,0,1-1-.25l-54-31.15a1,1,0,0,1,0-1.86l40.14-23.15L332,305,291.2,328.48A2,2,0,0,1,290.21,328.73Z" style="fill:#683CE4"></path><path d="M325.65,303.9a.39.39,0,0,0,0,.73,1.4,1.4,0,0,0,1.26,0,.39.39,0,0,0,0-.73A1.4,1.4,0,0,0,325.65,303.9Z" style="fill:#263238"></path><path d="M321.86,301.71a.39.39,0,0,0,0,.73,1.4,1.4,0,0,0,1.26,0,.39.39,0,0,0,0-.73A1.4,1.4,0,0,0,321.86,301.71Z" style="fill:#263238"></path><path d="M318.07,299.52a.39.39,0,0,0,0,.73,1.4,1.4,0,0,0,1.26,0,.39.39,0,0,0,0-.73A1.4,1.4,0,0,0,318.07,299.52Z" style="fill:#263238"></path><path d="M314.28,297.33a.39.39,0,0,0,0,.73,1.38,1.38,0,0,0,1.25,0,.39.39,0,0,0,0-.73A1.38,1.38,0,0,0,314.28,297.33Z" style="fill:#263238"></path><path d="M310.48,295.14a.39.39,0,0,0,0,.73,1.4,1.4,0,0,0,1.26,0,.39.39,0,0,0,0-.73A1.4,1.4,0,0,0,310.48,295.14Z" style="fill:#263238"></path><path d="M306.69,293a.39.39,0,0,0,0,.73,1.4,1.4,0,0,0,1.26,0,.39.39,0,0,0,0-.73A1.4,1.4,0,0,0,306.69,293Z" style="fill:#263238"></path><path d="M302.9,290.76a.39.39,0,0,0,0,.73,1.4,1.4,0,0,0,1.26,0,.39.39,0,0,0,0-.73A1.4,1.4,0,0,0,302.9,290.76Z" style="fill:#263238"></path><path d="M299.1,288.57a.39.39,0,0,0,0,.73,1.4,1.4,0,0,0,1.26,0,.39.39,0,0,0,0-.73A1.4,1.4,0,0,0,299.1,288.57Z" style="fill:#263238"></path><path d="M295.31,286.38a.39.39,0,0,0,0,.73,1.4,1.4,0,0,0,1.26,0,.39.39,0,0,0,0-.73A1.4,1.4,0,0,0,295.31,286.38Z" style="fill:#263238"></path><path d="M291.33,284.08a.39.39,0,0,0,0,.73,1.4,1.4,0,0,0,1.26,0,.39.39,0,0,0,0-.73A1.4,1.4,0,0,0,291.33,284.08Z" style="fill:#263238"></path><path d="M287.36,281.78c-.35.21-.35.53,0,.73a1.32,1.32,0,0,0,1.25,0c.35-.2.35-.52,0-.73A1.38,1.38,0,0,0,287.36,281.78Z" style="fill:#263238"></path><path d="M283.38,279.48c-.35.21-.35.53,0,.73a1.32,1.32,0,0,0,1.25,0c.35-.2.35-.52,0-.73A1.38,1.38,0,0,0,283.38,279.48Z" style="fill:#263238"></path><path d="M279.4,277.19c-.35.2-.35.52,0,.73a1.4,1.4,0,0,0,1.26,0,.39.39,0,0,0,0-.73A1.34,1.34,0,0,0,279.4,277.19Z" style="fill:#263238"></path><path d="M275.42,274.89a.39.39,0,0,0,0,.73,1.4,1.4,0,0,0,1.26,0c.35-.21.35-.53,0-.73A1.4,1.4,0,0,0,275.42,274.89Z" style="fill:#263238"></path><path d="M329.7,301.54a1.65,1.65,0,0,0-1.69.12,5.25,5.25,0,0,0-2.13,3.06,1.17,1.17,0,0,0,.46.06,4.75,4.75,0,0,1,1.9-2.72,1.61,1.61,0,0,1,.77-.23.84.84,0,0,1,.45.12,1.71,1.71,0,0,1,.64,1.56,2.36,2.36,0,0,1,0,.37l.44.25a4.44,4.44,0,0,0,.05-.62A2.18,2.18,0,0,0,329.7,301.54Z" style="fill:#683CE4"></path><path d="M330.48,304.38a.52.52,0,0,1,0,.11l-.08-.05Z" style="fill:#263238"></path><path d="M325.91,299.35a1.67,1.67,0,0,0-1.7.12,5.3,5.3,0,0,0-2.13,3.06,1.24,1.24,0,0,0,.47.06,4.75,4.75,0,0,1,1.9-2.72,1.61,1.61,0,0,1,.77-.23.87.87,0,0,1,.45.12,1.7,1.7,0,0,1,.64,1.55c0,.13,0,.25,0,.38l.44.25a4.46,4.46,0,0,0,0-.63A2.17,2.17,0,0,0,325.91,299.35Z" style="fill:#683CE4"></path><path d="M322.11,297.16a1.65,1.65,0,0,0-1.69.12,5.3,5.3,0,0,0-2.13,3.06,1.19,1.19,0,0,0,.46.06,4.75,4.75,0,0,1,1.9-2.72,1.68,1.68,0,0,1,.78-.23.89.89,0,0,1,.45.12,1.73,1.73,0,0,1,.64,1.55c0,.13,0,.25,0,.38l.44.25a4.44,4.44,0,0,0,0-.63A2.15,2.15,0,0,0,322.11,297.16Z" style="fill:#683CE4"></path><path d="M318.32,295a1.65,1.65,0,0,0-1.69.12,5.3,5.3,0,0,0-2.13,3.06,1.17,1.17,0,0,0,.46.06,4.75,4.75,0,0,1,1.9-2.72,1.64,1.64,0,0,1,.77-.23.9.9,0,0,1,.46.12,1.73,1.73,0,0,1,.64,1.56,2.4,2.4,0,0,1,0,.37l.45.25a4.4,4.4,0,0,0,0-.62A2.18,2.18,0,0,0,318.32,295Z" style="fill:#683CE4"></path><path d="M314.53,292.78a1.7,1.7,0,0,0-1.7.12,5.28,5.28,0,0,0-2.12,3.06,1.17,1.17,0,0,0,.46.06,4.69,4.69,0,0,1,1.9-2.71,1.53,1.53,0,0,1,.77-.24.87.87,0,0,1,.45.12,1.71,1.71,0,0,1,.64,1.56,2.36,2.36,0,0,1,0,.37l.44.25a4.44,4.44,0,0,0,0-.62A2.18,2.18,0,0,0,314.53,292.78Z" style="fill:#683CE4"></path><path d="M310.73,290.59a1.68,1.68,0,0,0-1.69.12,5.3,5.3,0,0,0-2.13,3.06,1.24,1.24,0,0,0,.47.06,4.73,4.73,0,0,1,1.89-2.72,1.68,1.68,0,0,1,.78-.23.89.89,0,0,1,.45.12,1.71,1.71,0,0,1,.64,1.56c0,.12,0,.25,0,.37l.44.25a4.44,4.44,0,0,0,.05-.62A2.16,2.16,0,0,0,310.73,290.59Z" style="fill:#683CE4"></path><path d="M306.94,288.4a1.68,1.68,0,0,0-1.69.12,5.3,5.3,0,0,0-2.13,3.06,1.17,1.17,0,0,0,.46.06,4.69,4.69,0,0,1,1.9-2.71,1.59,1.59,0,0,1,.77-.24.9.9,0,0,1,.46.12,1.73,1.73,0,0,1,.64,1.56,2.31,2.31,0,0,1,0,.37l.45.26a4.64,4.64,0,0,0,0-.63A2.16,2.16,0,0,0,306.94,288.4Z" style="fill:#683CE4"></path><path d="M303.15,286.21a1.68,1.68,0,0,0-1.69.12,5.25,5.25,0,0,0-2.13,3.06,1.17,1.17,0,0,0,.46.06,4.69,4.69,0,0,1,1.9-2.71,1.53,1.53,0,0,1,.77-.24.9.9,0,0,1,.46.12,1.73,1.73,0,0,1,.63,1.56,2.3,2.3,0,0,1,0,.37l.44.26a4.7,4.7,0,0,0,0-.63A2.18,2.18,0,0,0,303.15,286.21Z" style="fill:#683CE4"></path><path d="M299.36,284a1.7,1.7,0,0,0-1.7.12,5.3,5.3,0,0,0-2.13,3.06,1.24,1.24,0,0,0,.47.06,4.69,4.69,0,0,1,1.9-2.71,1.53,1.53,0,0,1,.77-.24.87.87,0,0,1,.45.12,1.71,1.71,0,0,1,.64,1.56,2.3,2.3,0,0,1,0,.37l.44.26a4.7,4.7,0,0,0,.05-.63A2.18,2.18,0,0,0,299.36,284Z" style="fill:#683CE4"></path><path d="M295.38,281.72a1.7,1.7,0,0,0-1.7.12,5.24,5.24,0,0,0-2.12,3.06,1.17,1.17,0,0,0,.46.06,4.69,4.69,0,0,1,1.9-2.71,1.53,1.53,0,0,1,.77-.24.87.87,0,0,1,.45.12,1.71,1.71,0,0,1,.64,1.56,2.3,2.3,0,0,1,0,.37l.44.26a4.7,4.7,0,0,0,.05-.63A2.18,2.18,0,0,0,295.38,281.72Z" style="fill:#683CE4"></path><path d="M291.4,279.42a1.68,1.68,0,0,0-1.69.12,5.25,5.25,0,0,0-2.13,3.07,1.38,1.38,0,0,0,.46.05,4.72,4.72,0,0,1,1.9-2.71,1.53,1.53,0,0,1,.77-.24.9.9,0,0,1,.46.12,1.73,1.73,0,0,1,.63,1.56,2.3,2.3,0,0,1,0,.37l.44.26a4.58,4.58,0,0,0,0-.63A2.18,2.18,0,0,0,291.4,279.42Z" style="fill:#683CE4"></path><path d="M287.42,277.13a1.65,1.65,0,0,0-1.69.11,5.29,5.29,0,0,0-2.13,3.07,1.38,1.38,0,0,0,.46.05,4.72,4.72,0,0,1,1.9-2.71,1.56,1.56,0,0,1,.77-.24.9.9,0,0,1,.46.12,1.73,1.73,0,0,1,.63,1.56,2.3,2.3,0,0,1,0,.37l.44.26a3.41,3.41,0,0,0,.05-.63A2.16,2.16,0,0,0,287.42,277.13Z" style="fill:#683CE4"></path><path d="M283.44,274.83a1.65,1.65,0,0,0-1.69.11,5.29,5.29,0,0,0-2.13,3.07,1.38,1.38,0,0,0,.46.05,4.72,4.72,0,0,1,1.9-2.71,1.56,1.56,0,0,1,.77-.24.9.9,0,0,1,.46.12,1.73,1.73,0,0,1,.64,1.56,2.31,2.31,0,0,1,0,.37l.45.26a4.44,4.44,0,0,0,0-.63A2.14,2.14,0,0,0,283.44,274.83Z" style="fill:#683CE4"></path><path d="M279.46,272.53a1.63,1.63,0,0,0-1.69.12,5.26,5.26,0,0,0-2.13,3.06,1.41,1.41,0,0,0,.46.05,4.75,4.75,0,0,1,1.9-2.71,1.59,1.59,0,0,1,.77-.24.9.9,0,0,1,.46.12,1.75,1.75,0,0,1,.64,1.56c0,.13,0,.25,0,.37l.44.26a4.44,4.44,0,0,0,0-.63A2.14,2.14,0,0,0,279.46,272.53Z" style="fill:#683CE4"></path><g style="opacity:0.30000000000000004"><path d="M329.7,301.54a1.65,1.65,0,0,0-1.69.12,5.25,5.25,0,0,0-2.13,3.06,1.17,1.17,0,0,0,.46.06,4.75,4.75,0,0,1,1.9-2.72,1.61,1.61,0,0,1,.77-.23.84.84,0,0,1,.45.12,1.71,1.71,0,0,1,.64,1.56,2.36,2.36,0,0,1,0,.37l.44.25a4.44,4.44,0,0,0,.05-.62A2.18,2.18,0,0,0,329.7,301.54Z"></path><path d="M325.91,299.35a1.67,1.67,0,0,0-1.7.12,5.3,5.3,0,0,0-2.13,3.06,1.24,1.24,0,0,0,.47.06,4.75,4.75,0,0,1,1.9-2.72,1.61,1.61,0,0,1,.77-.23.87.87,0,0,1,.45.12,1.7,1.7,0,0,1,.64,1.55c0,.13,0,.25,0,.38l.44.25a4.46,4.46,0,0,0,0-.63A2.17,2.17,0,0,0,325.91,299.35Z"></path><path d="M322.11,297.16a1.65,1.65,0,0,0-1.69.12,5.3,5.3,0,0,0-2.13,3.06,1.19,1.19,0,0,0,.46.06,4.75,4.75,0,0,1,1.9-2.72,1.68,1.68,0,0,1,.78-.23.89.89,0,0,1,.45.12,1.73,1.73,0,0,1,.64,1.55c0,.13,0,.25,0,.38l.44.25a4.44,4.44,0,0,0,0-.63A2.15,2.15,0,0,0,322.11,297.16Z"></path><path d="M318.32,295a1.65,1.65,0,0,0-1.69.12,5.3,5.3,0,0,0-2.13,3.06,1.17,1.17,0,0,0,.46.06,4.75,4.75,0,0,1,1.9-2.72,1.64,1.64,0,0,1,.77-.23.9.9,0,0,1,.46.12,1.73,1.73,0,0,1,.64,1.56,2.4,2.4,0,0,1,0,.37l.45.25a4.4,4.4,0,0,0,0-.62A2.18,2.18,0,0,0,318.32,295Z"></path><path d="M314.53,292.78a1.7,1.7,0,0,0-1.7.12,5.28,5.28,0,0,0-2.12,3.06,1.17,1.17,0,0,0,.46.06,4.69,4.69,0,0,1,1.9-2.71,1.53,1.53,0,0,1,.77-.24.87.87,0,0,1,.45.12,1.71,1.71,0,0,1,.64,1.56,2.36,2.36,0,0,1,0,.37l.44.25a4.44,4.44,0,0,0,0-.62A2.18,2.18,0,0,0,314.53,292.78Z"></path><path d="M310.73,290.59a1.68,1.68,0,0,0-1.69.12,5.3,5.3,0,0,0-2.13,3.06,1.24,1.24,0,0,0,.47.06,4.73,4.73,0,0,1,1.89-2.72,1.68,1.68,0,0,1,.78-.23.89.89,0,0,1,.45.12,1.71,1.71,0,0,1,.64,1.56c0,.12,0,.25,0,.37l.44.25a4.44,4.44,0,0,0,.05-.62A2.16,2.16,0,0,0,310.73,290.59Z"></path><path d="M306.94,288.4a1.68,1.68,0,0,0-1.69.12,5.3,5.3,0,0,0-2.13,3.06,1.17,1.17,0,0,0,.46.06,4.69,4.69,0,0,1,1.9-2.71,1.59,1.59,0,0,1,.77-.24.9.9,0,0,1,.46.12,1.73,1.73,0,0,1,.64,1.56,2.31,2.31,0,0,1,0,.37l.45.26a4.64,4.64,0,0,0,0-.63A2.16,2.16,0,0,0,306.94,288.4Z"></path><path d="M303.15,286.21a1.68,1.68,0,0,0-1.69.12,5.25,5.25,0,0,0-2.13,3.06,1.17,1.17,0,0,0,.46.06,4.69,4.69,0,0,1,1.9-2.71,1.53,1.53,0,0,1,.77-.24.9.9,0,0,1,.46.12,1.73,1.73,0,0,1,.63,1.56,2.3,2.3,0,0,1,0,.37l.44.26a4.7,4.7,0,0,0,0-.63A2.18,2.18,0,0,0,303.15,286.21Z"></path><path d="M279.46,272.53a1.63,1.63,0,0,0-1.69.12,5.26,5.26,0,0,0-2.13,3.06,1.41,1.41,0,0,0,.46.05,4.75,4.75,0,0,1,1.9-2.71,1.59,1.59,0,0,1,.77-.24.9.9,0,0,1,.46.12,1.75,1.75,0,0,1,.64,1.56c0,.13,0,.25,0,.37l.44.26a4.44,4.44,0,0,0,0-.63A2.14,2.14,0,0,0,279.46,272.53Z"></path><path d="M279.46,272.53a1.63,1.63,0,0,0-1.69.12,5.23,5.23,0,0,0-2.13,3.06,1.41,1.41,0,0,0,.46.05,4.72,4.72,0,0,1,1.9-2.71,1.59,1.59,0,0,1,.77-.24.9.9,0,0,1,.46.12,1.73,1.73,0,0,1,.64,1.56c0,.13,0,.25,0,.37l.44.26a4.44,4.44,0,0,0,0-.63A2.14,2.14,0,0,0,279.46,272.53Z"></path><path d="M279.46,272.53a1.63,1.63,0,0,0-1.69.12,5.23,5.23,0,0,0-2.13,3.06,1.41,1.41,0,0,0,.46.05,4.72,4.72,0,0,1,1.9-2.71,1.59,1.59,0,0,1,.77-.24.9.9,0,0,1,.46.12,1.73,1.73,0,0,1,.64,1.56c0,.13,0,.25,0,.37l.44.26a4.44,4.44,0,0,0,0-.63A2.14,2.14,0,0,0,279.46,272.53Z"></path><path d="M279.46,272.53a1.63,1.63,0,0,0-1.69.12,5.23,5.23,0,0,0-2.13,3.06,1.41,1.41,0,0,0,.46.05,4.72,4.72,0,0,1,1.9-2.71,1.59,1.59,0,0,1,.77-.24.9.9,0,0,1,.46.12,1.73,1.73,0,0,1,.64,1.56c0,.13,0,.25,0,.37l.44.26a4.44,4.44,0,0,0,0-.63A2.14,2.14,0,0,0,279.46,272.53Z"></path><path d="M279.46,272.53a1.63,1.63,0,0,0-1.69.12,5.23,5.23,0,0,0-2.13,3.06,1.41,1.41,0,0,0,.46.05,4.72,4.72,0,0,1,1.9-2.71,1.59,1.59,0,0,1,.77-.24.9.9,0,0,1,.46.12,1.73,1.73,0,0,1,.64,1.56c0,.13,0,.25,0,.37l.44.26a4.44,4.44,0,0,0,0-.63A2.14,2.14,0,0,0,279.46,272.53Z"></path><path d="M279.46,272.53a1.63,1.63,0,0,0-1.69.12,5.26,5.26,0,0,0-2.13,3.06,1.41,1.41,0,0,0,.46.05,4.75,4.75,0,0,1,1.9-2.71,1.59,1.59,0,0,1,.77-.24.9.9,0,0,1,.46.12,1.75,1.75,0,0,1,.64,1.56c0,.13,0,.25,0,.37l.44.26a4.44,4.44,0,0,0,0-.63A2.14,2.14,0,0,0,279.46,272.53Z"></path></g></g></g><path id="freepik--Thumb--inject-80" d="M252.23,285.69c2.82-1.24,8.08.63,12.53-.43,2.1-.5,4.48-1.42,4.91-3.72s-5.15-2.29-12.53-3.88Z" style="fill:#ffa8a7"></path></g></g></svg>