<svg xmlns="http://www.w3.org/2000/svg" xmlns:xlink="http://www.w3.org/1999/xlink" viewBox="0 0 500 500"><defs><clipPath id="freepik--clip-path--inject-72"><path d="M111.47,324.06a7.25,7.25,0,0,1-3.49-.86,2.72,2.72,0,0,1-1.31-1.72c0-.52-.93-13.59-.93-13.59l4.14-3.41,8.23,3s-1.53,13.49-1.53,14-1,1.53-1.74,1.94A7.69,7.69,0,0,1,111.47,324.06Z" style="fill:none"></path></clipPath></defs><g id="freepik--Shadows--inject-72"><path id="freepik--shadows--inject-72" d="M27.05,353.17l46.48-26.84a5.4,5.4,0,0,1,4.86,0l31.74,18.33,43.78-25.31a4,4,0,0,1,3.65,0l59.18,34.17a1.11,1.11,0,0,1,0,2.1L112,416.09a4,4,0,0,1-3.65,0L49.26,382a1.11,1.11,0,0,1,0-2.11l9.59-5.54L27.05,356C25.71,355.2,25.71,353.94,27.05,353.17Z" style="opacity:0.1"></path><g id="freepik--shadows--inject-72" style="opacity:0.1"><path d="M426,363.29l20.89-12.06c2.81-1.63,2.81-4.26,0-5.89L423.66,332a11.3,11.3,0,0,0-10.21,0l-21,12c-2.82,1.62-2.82,4.24,0,5.87l23.28,13.44A11.25,11.25,0,0,0,426,363.29Z"></path><path id="freepik--Shadow--inject-72" d="M370,357l53.41-30.84a1.24,1.24,0,0,0,0-2.35l-43.84-25.2a4.51,4.51,0,0,0-4.08,0L322.2,329.37a1.24,1.24,0,0,0,0,2.35L365.94,357A4.51,4.51,0,0,0,370,357Z"></path></g><g id="freepik--shadows--inject-72" style="opacity:0.1"><path d="M345.09,410.81,366,398.75c2.81-1.63,2.81-4.26,0-5.89l-23.19-13.38a11.28,11.28,0,0,0-10.2,0l-21,12c-2.82,1.62-2.82,4.25,0,5.88l23.28,13.44A11.31,11.31,0,0,0,345.09,410.81Z"></path><path id="freepik--shadow--inject-72" d="M288.72,403.92l53.41-30.84a1.24,1.24,0,0,0,0-2.35l-43.84-25.2a4.51,4.51,0,0,0-4.08,0L240.9,376.31a1.24,1.24,0,0,0,0,2.35l43.74,25.26A4.51,4.51,0,0,0,288.72,403.92Z"></path></g><g id="freepik--shadows--inject-72" style="opacity:0.1"><path d="M264.91,461.88l20.88-12.06c2.82-1.63,2.82-4.26,0-5.89l-23.18-13.38a11.31,11.31,0,0,0-10.2,0l-21,12c-2.82,1.61-2.83,4.24,0,5.87l23.28,13.44A11.31,11.31,0,0,0,264.91,461.88Z"></path><path id="freepik--shadow--inject-72" d="M207.42,450.86,260.83,420a1.24,1.24,0,0,0,0-2.35L217,392.46a4.54,4.54,0,0,0-4.08,0L159.6,423.25a1.24,1.24,0,0,0,0,2.35l43.74,25.26A4.51,4.51,0,0,0,207.42,450.86Z"></path></g><ellipse id="freepik--shadow--inject-72" cx="279.6" cy="267.41" rx="37.7" ry="21.77" style="fill:#e0e0e0"></ellipse></g><g id="freepik--Blackboard--inject-72"><g id="freepik--Board--inject-72"><polygon points="242.35 156.74 79.75 250.62 79.75 249.42 242.35 155.54 242.35 156.74" style="fill:#37474f"></polygon><polygon points="238.49 153.31 242.35 155.54 79.75 249.42 75.89 247.19 238.49 153.31" style="fill:#455a64"></polygon><polygon points="75.89 247.19 79.75 249.42 79.75 250.62 75.89 248.38 75.89 247.19" style="fill:#263238"></polygon><polygon points="238.49 153.31 75.89 247.19 75.89 139.11 238.49 45.23 238.49 153.31" style="fill:#683CE4"></polygon><g style="opacity:0.2"><polygon points="238.49 153.31 75.89 247.19 75.89 139.11 238.49 45.23 238.49 153.31"></polygon></g><polygon points="79.3 240.67 79.3 141.69 235.08 51.75 235.08 150.73 79.3 240.67" style="fill:#37474f"></polygon><polygon points="79.3 238.15 79.3 240.66 235.07 150.73 235.07 51.74 232.88 53.01 232.88 149.47 79.3 238.15" style="fill:#263238"></polygon><g style="opacity:0.30000000000000004"><polygon points="79.3 240.67 75.89 247.19 238.49 153.31 235.08 150.73 79.3 240.67"></polygon></g><g style="opacity:0.15"><polygon points="235.08 51.75 238.49 45.23 75.89 139.11 79.3 141.69 235.08 51.75"></polygon></g><polygon points="72.91 137.4 75.89 139.11 75.89 247.19 72.91 245.47 72.91 137.4" style="fill:#683CE4"></polygon><g style="opacity:0.35000000000000003"><polygon points="72.91 137.4 75.89 139.11 75.89 247.19 72.91 245.47 72.91 137.4"></polygon></g><polygon points="238.49 45.23 235.51 43.52 72.91 137.4 75.89 139.11 238.49 45.23" style="fill:#683CE4"></polygon><g style="opacity:0.1"><polygon points="238.49 45.23 235.51 43.52 72.91 137.4 75.89 139.11 238.49 45.23"></polygon></g><path d="M98.75,157c-.58-.22,6.67-10.55,7.18-11.31,1.62-2.41,6.79-2.83,7.34.08a23.29,23.29,0,0,1-.12,8.41c4.13-8.36,7.46-17,12.9-24.92,1.9-2.77,8-2.58,7.48.95-1.28,8.61-4,17-7.06,25.38,5.8-13.5,9.76-27.54,12.84-40.85.88-3.78,8.09-3.65,7.89.12a138.59,138.59,0,0,1-3.27,23.68c1.38-3,2.72-6.05,4-9.09,1.8-4.14,9-3.35,7.74,1l-1.41,5c1.9-3.88,3.76-7.78,5.53-11.69,1.5-3.3,8.55-4,7.89.12,0,.3-.11.6-.16.9h0l0,.06c-.25,1.48-.55,2.95-.88,4.42q3.25-7,6.12-14.1c2.21-5.43,3.52-11.81,7.23-16.78,1.7-2.27,5.27-2.71,6.94-.67,3.24,3.94,1.3,9,.08,13.77a180.75,180.75,0,0,1-6.76,20.68q-1.8,4.59-3.77,9.13c2.1-3,4.12-6,6-9.12,7.68-12.4,11.16-25.58,18-38.14,1.74-3.18,7.62-2.26,7.49,1-.43,9.8-3.47,19.29-7.84,28.75-1.5,3.24-3.11,6.45-4.75,9.65q7.41-9.6,14.11-19.53c1.64-2.44,6.71-2.8,7.34.08a31.11,31.11,0,0,1-.91,16.87c-1.41,4.26-9.16,3.26-7.75-1,.28-.84.5-1.65.7-2.45q-11.26,15.48-24.27,30.11c-2.16,2.44-7.09,1.1-6.86-1.69a27.2,27.2,0,0,1,1.16-5.64c-5.31,7.14-11,14.13-16.65,21.09-3.09,3.8-9,1.45-6.94-2.7,3.31-6.69,6.59-13.4,9.7-20.14A182.9,182.9,0,0,1,148.18,173c-3.06,3.73-9.17,1.45-6.93-2.7q1.81-3.37,3.6-6.76c-2.11,1-4.58.4-5.42-1.18-1.39,2.12-2.82,4.22-4.38,6.28-1.94,2.55-5.31,2.43-6.8.6a127,127,0,0,1-13.94,21.14c-2.66,3.25-8.31,2.11-7.34-1.86a179.1,179.1,0,0,1,7.21-21.62,66.49,66.49,0,0,1-5.48,7.36c-2.26,2.61-6.81.94-6.85-1.7-.06-3.76,1.07-7.6,2.13-11.42-2.54,2.22-5.57,3.37-9.28,2C90.2,161.44,94.24,155.27,98.75,157Z" style="fill:#fff;opacity:0.03"></path><g id="freepik--Skuad--inject-72"><path d="M163.58,198.31l30-17.3a.56.56,0,0,0,.24-.46V157.33c0-.25-.2-.29-.36-.07l-30,40.52C163.25,198.06,163.34,198.45,163.58,198.31Zm13.11-12.58,12.5-16.84v9.62Z" style="fill:#683CE4"></path></g><g id="freepik--Chalk--inject-72"><path d="M110.32,228.79a2.48,2.48,0,0,0-1.12-1.94.77.77,0,0,0-.79-.08h0l-12.69,7.32,1.59,2.75L110,229.52h0A.8.8,0,0,0,110.32,228.79Z" style="fill:#fafafa"></path><path d="M96.51,234.17a2.5,2.5,0,0,1,1.13,2c0,.71-.51,1-1.13.65a2.49,2.49,0,0,1-1.12-2C95.39,234.11,95.89,233.82,96.51,234.17Z" style="fill:#e6e6e6"></path></g><g id="freepik--Abecedary--inject-72"><g style="opacity:0.30000000000000004"><rect x="78.12" y="178.68" width="158.14" height="0.25" transform="translate(-68.3 102.42) rotate(-29.97)" style="fill:#fff"></rect><rect x="78.12" y="170.48" width="158.14" height="0.25" transform="translate(-64.2 101.32) rotate(-29.97)" style="fill:#fff"></rect><rect x="78.12" y="166.17" width="158.14" height="0.25" transform="translate(-62.05 100.75) rotate(-29.97)" style="fill:#fff"></rect><rect x="78.12" y="160.94" width="158.14" height="0.25" transform="translate(-59.44 100.05) rotate(-29.97)" style="fill:#fff"></rect><rect x="78.12" y="152.74" width="158.14" height="0.25" transform="translate(-55.34 98.95) rotate(-29.97)" style="fill:#fff"></rect><rect x="78.12" y="148.43" width="158.14" height="0.25" transform="translate(-53.19 98.38) rotate(-29.97)" style="fill:#fff"></rect><rect x="78.12" y="143.2" width="158.14" height="0.25" transform="translate(-50.57 97.68) rotate(-29.97)" style="fill:#fff"></rect><rect x="78.12" y="135" width="158.14" height="0.25" transform="translate(-46.48 96.58) rotate(-29.97)" style="fill:#fff"></rect><rect x="78.12" y="130.69" width="158.14" height="0.25" transform="translate(-44.33 96) rotate(-29.97)" style="fill:#fff"></rect><rect x="78.12" y="125.46" width="158.14" height="0.25" transform="translate(-41.71 95.3) rotate(-29.97)" style="fill:#fff"></rect><rect x="78.12" y="117.26" width="158.14" height="0.25" transform="translate(-37.62 94.21) rotate(-29.97)" style="fill:#fff"></rect><rect x="78.12" y="112.95" width="158.14" height="0.25" transform="translate(-35.47 93.63) rotate(-29.97)" style="fill:#fff"></rect></g><path d="M90.15,162.12a22.5,22.5,0,0,0,.54-2.36c0-.12,0-.22,0-.32a1.86,1.86,0,0,1,.31-1.08l1.19-4.53c.19-.7.45-1.74.87-2s1.34,2.09,1.52,2.59a10.23,10.23,0,0,0,.53,1.46c.29.12.39.4.39,1,.17.59.3,1.23.47,1.71.25.71.54.67.54,1.5a1,1,0,0,1-.56.88c-.38.22-.81-1.09-.92-1.65s-.28-1.51-.43-1.54-.21-.05-.41.07c-.72.42-1.44.81-2.35,1.34-.24.14-.3.25-.48,1.16L91,162.14c-.06.35-.11.67-.15.8a.8.8,0,0,1-.42.54c-.27.15-.43.11-.43-.35A3.82,3.82,0,0,1,90.15,162.12Zm3.45-5.21c.15-.09.26-.16.61-.4-.18-.67-.78-2-1.06-2.72-.06-.14-.11-.21-.15-.19s-.91,3.35-1.08,4.23Z" style="fill:#fff"></path><path d="M97.9,153.78a7.23,7.23,0,0,1,2.63-4.07c1.29-.75,2.37.34,2.37,1.93a8.82,8.82,0,0,1-.09,1.22,11.53,11.53,0,0,0-.09,1.3c0,.9.19,1.07.47.9a1.38,1.38,0,0,0,.26-.35.73.73,0,0,1,.23-.34c.23-.13.35-.05.35.33a2.15,2.15,0,0,1-.93,1.6c-.55.32-1,0-1.13-.69a5.43,5.43,0,0,1-2.06,2.6c-1.12.65-2.42-.05-2.42-1.88A8.9,8.9,0,0,1,97.9,153.78Zm2.19,3.07a4.7,4.7,0,0,0,1.8-3.61,3.15,3.15,0,0,1,.21-.94,1.91,1.91,0,0,0,0-.53,1.09,1.09,0,0,0-1.45-.87c-1.43.83-2.29,3.27-2.29,4.91A1.08,1.08,0,0,0,100.09,156.85Z" style="fill:#fff"></path><path d="M112.06,149.79a3.21,3.21,0,0,1,0-.46l0-2.39v-1.38c0-.91,0-2.13,0-3.36a1.91,1.91,0,0,1,.44-1.14,10.63,10.63,0,0,1,1.93-1.52c.55-.31,1.38-.26,1.38.69a3.93,3.93,0,0,1-.6,1.82c1.07-.23,1.8.43,1.8,2.25a6.12,6.12,0,0,1-2.66,5.2,9.87,9.87,0,0,1-1,.7,2.4,2.4,0,0,0-.23.11c-.16.09-.14.25-.41.4s-.74.19-.74-.31C112,150.17,112.05,150,112.06,149.79Zm1.35-6.8c.15-.13.49-.39.74-.57.23-.35.82-.93.82-1.47,0-.26-.33-.28-.86,0-.26.15-1.23.85-1.23,1.37l0,1.3C113.05,143.47,113.21,143.19,113.41,143Zm.18,5.7a4.56,4.56,0,0,0,2.6-4c0-1.41-1-1.63-1.82-1.15-.47.27-.75,1.05-1.08,1.24l-.24.1a.55.55,0,0,0-.16.25c0,.22,0,.5,0,.72,0,.88.08,1.73.08,2.64,0,.18,0,.36,0,.54A6.16,6.16,0,0,0,113.59,148.69Z" style="fill:#fff"></path><path d="M118.42,139.19l0-1.19c0-.17,0-.67,0-.74a.91.91,0,0,1,.44-.89c.17-.09.44-.07.44.2v.68c0,1,0,1.71,0,2.66a4.32,4.32,0,0,1,1.52-1.72c1.61-.92,2.45-.19,2.45,2.42a6.86,6.86,0,0,1-2.94,5.75,2.13,2.13,0,0,1-1,.3,1,1,0,0,1-.41.53c-.33.19-.46-.22-.47-.67C118.39,145.52,118.43,141.06,118.42,139.19Zm1.86,5.94a4.72,4.72,0,0,0,1.8-2.45,7,7,0,0,0,.25-2.21c0-1.39-1-1.33-1.69-.92a3.55,3.55,0,0,0-1.32,1.71c-.07.1,0,2.78,0,3.3a4.34,4.34,0,0,0,.08.91A1.78,1.78,0,0,0,120.28,145.13Z" style="fill:#fff"></path><path d="M132.05,132.14c.3-1.42,1.13-3.43,2.36-4.14,1.07-.62,2.23-.31,2.23,1.5,0,.33-.08,1-.42,1.19s-.38-.52-.38-1.07-.82-.74-1.39-.41c-1.59.91-2,4.93-2,6.24,0,1.72,1,2.13,2.05,1.55a6.94,6.94,0,0,0,1.91-1.58c.2-.27.25-.63.53-.79s.44.06.44.47a1.19,1.19,0,0,1-.15.64,7.79,7.79,0,0,1-2.61,2.4c-1.47.84-3,1-3-2.26A20.3,20.3,0,0,1,132.05,132.14Z" style="fill:#fff"></path><path d="M141.15,126.31a1.14,1.14,0,0,1,1.58,1.21c0,.35-.28,1.52-.62.45-.17-.51-.67-.49-1.14-.21-1.14.66-1.84,2.63-1.84,4.16,0,1.88.76,1.86,1.9,1.2a2.71,2.71,0,0,0,1-.68l.19-.25a2.89,2.89,0,0,1,.27-.29c.13-.07.5-.07.5.57a1.64,1.64,0,0,1-.52,1l-.37.22c-.44.25-.84.57-1.29.83-1.35.78-2.51.74-2.51-1.69C138.26,130.18,139.28,127.39,141.15,126.31Z" style="fill:#fff"></path><path d="M151.46,119.65a1.9,1.9,0,0,1,.9-1.82l.93-.54c1.61-.93,4-.43,4,2.92a8.34,8.34,0,0,1-3.9,7,6.1,6.1,0,0,1-1.07.51,1.8,1.8,0,0,1-.34.41c-.49.28-.57-.82-.57-1.55Zm1.42,6.54.76-.44a6.57,6.57,0,0,0,2.82-4.77c0-2.41-1.64-3.37-3-2.56a4.84,4.84,0,0,0-1.05.73,14.81,14.81,0,0,0-.08,2.12c0,1.21,0,3.75.14,5C152.48,126.36,152.68,126.3,152.88,126.19Z" style="fill:#fff"></path><path d="M161.5,114.51a1.22,1.22,0,0,1,1.49.28,4.11,4.11,0,0,0,0-.47v-2.7a1.07,1.07,0,0,1,.49-1c.27-.16.35.17.35.54,0,.17,0,.85,0,1.08,0,.42,0,1.14,0,2.22,0,.87,0,1.85,0,2.82s0,2,0,2.93c0,.73-.12,1.14-.49,1.35s-.4-.18-.45-.6a4.55,4.55,0,0,1-1.91,2c-1.61.93-2.4-.16-2.4-2.34S159.6,115.58,161.5,114.51Zm-.41,7.15a3.79,3.79,0,0,0,1.81-2.33,15.47,15.47,0,0,0,.06-2c0-1.3-.72-2-1.47-1.61a4.94,4.94,0,0,0-2.05,4.31C159.44,121.63,160.2,122.17,161.09,121.66Z" style="fill:#fff"></path><path d="M172.76,111.3a1.16,1.16,0,0,1-.07-.48c0-.17.05-.37.07-.56,0-.8-.06-1.58-.06-2.43,0-.51-.06-1.62.47-1.93.28-.16.51,0,.8-.12s.9-.53,1.45-.88,1.22-.74,1.67-1,.72-.39.72.27a1.21,1.21,0,0,1-.42.86c-3.63,2.07-3.84,2.17-3.84,2.16v2.36c0,.06,0,.08,0,.07l1.63-.91c.23-.14.45-.36.71-.51s.46,0,.46.46a1.18,1.18,0,0,1-.37.8l-2,1.17c-.36.21-.4.26-.4.3s0,.23,0,.43,0,.76,0,1.31v1.16c0,.17.38-.12.68-.24.64-.31,2.33-1.22,2.06-1.06l.78-.44c.34-.19.42.23.42.58a1.2,1.2,0,0,1-.65,1.08.92.92,0,0,1-.49.09,7.41,7.41,0,0,0-1.88.89c-.39.22-.81.54-1.26.8-.3.18-.53-.06-.53-.55Z" style="fill:#fff"></path><path d="M181.4,103c1-.57,2.17-.3,2.17,1.39a1.08,1.08,0,0,1-.34.87c-.19.18-.43.36-.73.68l-3.14,3.32c.24,1.63,1.5,1,2.18.64a12.3,12.3,0,0,0,1.64-1.56c.34-.2.48-.06.48.44,0,1-2.11,2.26-2.6,2.54-1.31.76-2.61-.08-2.61-2.11C178.45,106.48,179.5,104.12,181.4,103Zm1.31,1.49c-.14-.65-.67-.66-1.45-.21a5.13,5.13,0,0,0-1.93,3.86C180.21,107.24,182,105.4,182.71,104.51Z" style="fill:#fff"></path><path d="M192.23,102.55V96.81c0-.45,0-2,.47-2.25s.63-.16,1-.35l2.38-1.38c.13-.07.45-.37.58-.44s.62.11.62.56a1,1,0,0,1-.44.92,6.48,6.48,0,0,1-.83.24l-1.44.88-1.37.83a.29.29,0,0,0-.09.17c0,.6,0,.88,0,2.37,0,.2.17.15.34.06a16.88,16.88,0,0,0,1.81-1.32,5.86,5.86,0,0,1,.64-.54c.38-.22.39.34.39.48,0,.66-.32.94-.91,1.28-.74.43-1.47,1.14-2.23,1.58v.52c0,.86,0,1.7,0,2.75,0,.41,0,1-.4,1.23s-.59-.12-.59-.68C192.14,103.58,192.23,102.87,192.23,102.55Z" style="fill:#fff"></path><path d="M199,98.42c0-.55,0-2.27,0-3.93l0,0-.88.59c-.25.14-.43-.09-.43-.39a1.16,1.16,0,0,1,.43-1l.91-.5.05,0c0-.51.13-1.23.15-1.38a4.84,4.84,0,0,1,2.05-3.63c.31-.19,1.36-.33,1.36.38,0,.18,0,.64-.25.78-.47.27-.5-.28-1.1.07-1,.61-1.24,1.93-1.3,3.28.5-.27.74-.43,1-.56a4.73,4.73,0,0,0,.56-.35h0a2.25,2.25,0,0,1,.36-.24c.17-.1.38-.1.38.4a1,1,0,0,1-.55,1c-.23.14-.59.24-1.55.79l-.21.1c0,.74,0,1.54,0,2.46,0,.44,0,.85,0,1.25a18,18,0,0,0,.17,1.87c.06.52-.1.8-.33.93-.5.29-.64.19-.64-.45C199.14,99.81,199,99.1,199,98.42Z" style="fill:#fff"></path><path d="M213.51,82.47a1.67,1.67,0,0,1,1.56-.17,1,1,0,0,1,.56,1,1.3,1.3,0,0,1-.14.61.9.9,0,0,1-.14.2c-.31.18-.42-.43-.65-.47a1.1,1.1,0,0,0-1.23.1c-1.07.62-2.21,3.59-2.21,5.39,0,2.43,1,2.82,2.29,2.07a2.25,2.25,0,0,0,1.39-2.31c0-.23,0-.86,0-1.18a6.35,6.35,0,0,1-.92.61c-.29.17-.66.12-.66-.36a1.06,1.06,0,0,1,.6-1l.43-.21.24-.11c.27-.16.65-.56.93-.72s.47.12.47.44a1.27,1.27,0,0,1-.24.76c0,.61,0,1.33,0,1.9,0,.73.06.87.06,1,0,.73-.13.92-.33,1s-.42,0-.48-.12a5.68,5.68,0,0,1-1.6,1.56c-2,1.17-3,0-3-3.16C210.41,87.79,211.57,83.59,213.51,82.47Z" style="fill:#fff"></path><path d="M219.54,81.05a1.32,1.32,0,0,1,2.18.84,1.49,1.49,0,0,0,.13.41.62.62,0,0,1,.33.58v2.61c0,.56,0,1.33-.11,2.47-.12,1.87-.21,3.85-1.68,4.7-.34.2-1.73.79-1.73-.1a.93.93,0,0,1,.4-.91c.14-.07.26,0,.41,0a2.36,2.36,0,0,0,1-.38c.58-.33.71-1.65.75-2.57,0-.43.08-1.23.1-1.8a4.21,4.21,0,0,1-1.69,2.17c-1.56.9-2.44.19-2.44-2.32C217.15,84.6,217.91,82,219.54,81.05Zm.16,6.79c1-.59,1.53-2.46,1.61-3.61a1.42,1.42,0,0,0-.08-.6,1.65,1.65,0,0,1-.12-.57.93.93,0,0,0-1.39-.86c-1.29.75-1.67,2.49-1.67,4.08C218.05,88.28,218.79,88.37,219.7,87.84Z" style="fill:#fff"></path><path d="M95.49,169.42c0-.35,0-.91.4-1.12.19-.11.45.21.45.61l0,3.25c0,.1,0,.13.08.1a29.63,29.63,0,0,0,3.22-1.89c0-1.13-.06-2.21-.06-3.35,0-.51.09-1,.4-1.16s.45.37.45.95,0,1.58.06,3a1.8,1.8,0,0,1,.12.54,2.94,2.94,0,0,1,0,.37l0,.23c.08,2.5.09,3.39.09,3.74a1.18,1.18,0,0,1-.45,1c-.29.17-.43,0-.43-.82l0-3.25c-.12.07-.65.41-3.29,1.93a.49.49,0,0,0-.07.27c0,1.08.07,2.28.07,3.45a1.26,1.26,0,0,1-.48.79c-.17.1-.42,0-.42-.34C95.55,174.91,95.49,173.57,95.49,169.42Z" style="fill:#fff"></path><path d="M102.31,164.65a1.71,1.71,0,0,1,.51-1.18c.21-.13.38,0,.38.33,0,.74,0,1.8,0,2.73v.55a4.1,4.1,0,0,1,1.54-1.87,2.1,2.1,0,0,1,1.48-.33c1.14.35,1.26,1.29,1.24,2.88v2.7c0,.4,0,1.31-.49,1.6-.3.17-.5-.08-.5-.54,0-1,.13-2.09.13-3.12s-.09-2.92-1.85-1.9a3.82,3.82,0,0,0-1.54,2.55v3c0,.3,0,.69,0,1s0,.84-.38,1.06c-.16.09-.52.26-.52-.47Z" style="fill:#fff"></path><path d="M116.26,165l.53-.22v-.63c0-1.61,0-5,.1-6.66l-.37.21c-.28.16-.62.33-.62-.25a1.2,1.2,0,0,1,.74-1.18c.26-.14.69-.42,1-.59l.47-.28c.21-.12.4-.35.59-.46s.47.2.47.4a1.53,1.53,0,0,1-.68,1.24c-.08.05-.25,0-.29,0l-.47.32c0,.65-.07,2.42-.07,4.1,0,1,0,2.21.11,3.21.37-.15.69-.43.74-.41a.52.52,0,0,1,.27.53,1.16,1.16,0,0,1-.5.89l-1.61.93c-.22.13-.81.33-.81-.2A1.23,1.23,0,0,1,116.26,165Z" style="fill:#fff"></path><path d="M120.28,153.56a1.34,1.34,0,0,1,.45-1c.24-.14.79.19.79.72a1.17,1.17,0,0,1-.37.78A.56.56,0,0,1,120.28,153.56Zm.15,6.4a30,30,0,0,1,.22-3.4c0-.18.16-.78.42-.93s.34.13.34.51c0,1-.12,2.61-.12,3.6s.21,2.18.21,3.08a1.14,1.14,0,0,1-.39,1c-.37.21-.54.13-.61-.35A33,33,0,0,1,120.43,160Z" style="fill:#fff"></path><path d="M130.31,156.47c.22-.13.33.19.49.28s.31-.06.41-.11a4,4,0,0,0,1.58-2.94c0-.19,0-1.29,0-3.27,0-.83-.07-1.6-.07-2.45a1.63,1.63,0,0,1,.52-1.4c.3-.17.38.39.38.64,0,.87.05,2.22.05,3.61a27.54,27.54,0,0,1-.21,3.59,6,6,0,0,1-2.45,3.59c-.39.23-1.24.49-1.24-.46A1.43,1.43,0,0,1,130.31,156.47Z" style="fill:#fff"></path><path d="M135.52,153c0-1,0-1.87,0-2.45,0-.76,0-1.2,0-1.81s.07-1.37.47-1.59.44.12.46.46-.09,3-.07,3.66c0,.93,0,1.86,0,2.76,0,2.73-.36,5-2.68,6.36-.25.15-.84.49-.87-.19a1,1,0,0,1,.69-1,3.54,3.54,0,0,0,1.74-1.86,5.65,5.65,0,0,0,.15-1.22C135.43,155.82,135.52,154.62,135.52,153Zm-.32-7.93a1.3,1.3,0,0,1,.55-1.09c.22-.13.67.43.67.77a.91.91,0,0,1-.46.9C135.7,145.81,135.2,145.29,135.2,145.08Z" style="fill:#fff"></path><path d="M145.36,146.87c0-2.13,0-5.24,0-6.63a1.21,1.21,0,0,1,.44-1c.19-.11.4,0,.4.38l0,2.91c0,.18,0,.75,0,1l.77-1.76a1.85,1.85,0,0,1,.53-1c.1-.25.31-.74.49-1.19s.39-.9.46-1.06c.18-.49.23-.72.64-1,.12-.07.34-.06.34.37,0,.84-.44,1.16-.72,1.89-.05.09-.46,1.11-.65,1.62a4.48,4.48,0,0,0,.26.49c.37.75.7,1.55,1.11,2.4a8.52,8.52,0,0,1,.93,2.45,1.2,1.2,0,0,1-.49,1.11c-.34.2-.67-.92-.76-1.24s-1.44-3.84-1.7-3.89a18.09,18.09,0,0,0-1.17,2.73c0,.21,0,.34,0,.54a12.44,12.44,0,0,0,.08,1.37c0,.4,0,.82.05,1.26a1.29,1.29,0,0,1-.45.83c-.26.15-.52.05-.54-.26C145.35,148.59,145.36,147.81,145.36,146.87Z" style="fill:#fff"></path><path d="M151.73,143l.08-7.28a1.11,1.11,0,0,1,.46-.92c.17-.1.43,0,.43.44,0,1.45-.11,2.88-.11,4.22,0,.55,0,1.1,0,1.7.83-1.88,1.5-3.22,2.23-4.76.17-.37.37-1,.64-1.12s.49-.09.49.38a1.5,1.5,0,0,1-.35.9c-.14.24-.43.8-.68,1.29l-.48,1,.77,2.15c.26.72.46.95.75,1.8a2.21,2.21,0,0,1,.05.25,1.42,1.42,0,0,1,.06.38,1.93,1.93,0,0,1-.5,1.37c-.37.21-.38-.8-.51-1.16l-1.24-3.51-.31.77a7.39,7.39,0,0,1-.94,2l0,2a1.26,1.26,0,0,1-.48,1c-.35.21-.51-.23-.51-.44C151.62,144.75,151.73,143.64,151.73,143Z" style="fill:#fff"></path><path d="M164.63,137.52c0-1.21,0-1,0-1.7,0-1.7-.16-3.38-.16-5.21,0-1.53,0-2,.39-2.24s.49.1.49.53,0,.8,0,1.17c0,2.07.1,4.06.12,6.32,0,.16,0,.16.12.09.33-.17,1.18-.6,2.32-1.25.24-.14.47-.38.73-.54s.45.12.45.5a1.55,1.55,0,0,1-.52,1.07c-.36.21-.49.06-1,.37s-1.26.89-1.9,1.25c-.21.13-.42.15-.64.28,0,0-.14.11-.22.15s-.22.09-.22-.24A2.13,2.13,0,0,1,164.63,137.52Z" style="fill:#fff"></path><path d="M170.21,133.21c0-1.29-.1-2.45-.08-3.78l0-3.8c0-.64.11-1.14.43-1.33s.4.12.4.39V130a24.47,24.47,0,0,0,.14,3.11c0,.33.17.32.29.25a.61.61,0,0,0,.19-.24.79.79,0,0,1,.34-.47c.23-.13.34.12.34.41a2,2,0,0,1-.89,1.51c-.65.4-1,.17-1.18-.63A5.82,5.82,0,0,1,170.21,133.21Z" style="fill:#fff"></path><path d="M180.46,127.37c0-4.23.06-5.67.06-6.39,0-.87.22-1.77.54-2s.41.2.41.57v0a.87.87,0,0,1,0,.21,20.6,20.6,0,0,0,1.15,3,10.56,10.56,0,0,0,.63,1.47,2.43,2.43,0,0,0,.39-.77c.11-.32.26-.75.63-1.92s1-2.93,1.32-4.09c.05-.21.1-.44.17-.68a1.23,1.23,0,0,1,.41-.85c.32-.19.52,0,.52.49,0,2.91-.09,6-.09,9a.85.85,0,0,1-.35.67s-.65.24-.65-.43c0-.47.18-1.08.2-1.55v-3.65c0-.36,0-.75,0-1.14-.73,1.9-1.33,4.66-2.13,6.14a.91.91,0,0,1-.44.49c-.4.23-1.15-1.46-1.33-1.95l-.62-1.59c0,.5,0,1.12,0,1.91v2.61a5.3,5.3,0,0,1,.09.63c0,.63-.09,1.12-.37,1.28-.57.33-.6-.19-.6-.89C180.41,127.84,180.46,127.58,180.46,127.37Z" style="fill:#fff"></path><path d="M188.33,120.55c0-1.45,0-2.06.06-2.89a1,1,0,0,1,.34-.73c.16-.1.35-.11.42.23a3.74,3.74,0,0,1,1.28-1.45,1.17,1.17,0,0,1,1.78.76,5,5,0,0,1,1.95-2.63c1.45-.84,2.41,0,2.41,3.41,0,.79-.06,1.5-.11,2.73a1.27,1.27,0,0,1-.4.84c-.36.21-.61-.19-.61-.54,0-.78.24-1.1.24-2.16,0-.46,0-.87,0-1.34,0-1.09-.58-2.26-1.56-1.7a3.61,3.61,0,0,0-1.48,2.38v3.13c0,.1,0,.66,0,.74a1.33,1.33,0,0,1-.42,1.07c-.29.16-.63.23-.63-.38,0-.12.07-.84.07-.9v-2.44c0-1-.48-2.15-1.25-1.7-1,.56-1.22,1.26-1.22,2.59,0,.7,0,1.47.05,2.1l.15,1.74a1.41,1.41,0,0,1-.47,1c-.37.22-.53.09-.58-.58S188.33,122.12,188.33,120.55Z" style="fill:#fff"></path><path d="M205.25,112.43c0-1.24,0-2.78,0-4.17,0-.71-.05-1.37-.05-2.18,0-.27.11-1,.37-1.1.8-.46.73,1.43,1.09,2.18.41.9,1,2.16,1.45,2.89s.91,1.34,1,1.28.14-2.29.16-3c0-2.52,0-3.74,0-4.79s.09-1.53.47-1.75.45-.19.45.63c0,1,0,2-.06,3,0,1.73-.11,3.56-.17,5.36,0,.84,0,2-.75,2.4a.3.3,0,0,1-.4-.09,16.34,16.34,0,0,1-2.8-4.61c0,2.4.06,3.56.08,3.69a9.21,9.21,0,0,1,.09,1.13c0,.54-.11,1.06-.45,1.25-.49.28-.54-.21-.54-.81C205.26,113.35,205.25,112.84,205.25,112.43Z" style="fill:#fff"></path><path d="M212,109.7c0-1.32-.12-2.86-.12-4.62,0-.68.06-1.83.41-2s.41.58.41,1.33a5.93,5.93,0,0,1,2.1-2.83c1.84-1.07,2.31,1.33,2.31,3.36v1.24c0,1.24-.22,2.56-.59,2.77s-.5.24-.5-.57.24-1.79.24-2.59a5.32,5.32,0,0,0-.35-2.36c-.25-.48-.49-1-1.28-.5a6.07,6.07,0,0,0-1.88,2.88v1.85a11.07,11.07,0,0,0,.11,1.3,8.12,8.12,0,0,1,.14,1c0,.45,0,.84-.42,1.07s-.59.26-.59-.52C212,110.35,212,110.11,212,109.7Z" style="fill:#fff"></path><path d="M103.91,181.26c2-1.14,3.17.2,3.17,3.54,0,2.9-1.57,5.8-3.25,6.77s-3.35-.87-3.35-3.19C100.48,184.63,102.2,182.25,103.91,181.26Zm-.14,9.12a6.12,6.12,0,0,0,2.47-5.27c0-2.43-.95-3.41-2.21-2.68a6.09,6.09,0,0,0-2.69,5.23C101.34,189.63,102.51,191.1,103.77,190.38Z" style="fill:#fff"></path><path d="M111,179.26c1.57-.91,2.52.19,2.52,2.82,0,2.29-1.24,4.59-2.57,5.36s-2.67-.66-2.67-2.5C108.31,181.94,109.68,180,111,179.26Zm-.15,7a4.65,4.65,0,0,0,1.86-3.88c0-1.74-.65-2.57-1.53-2.06a4.83,4.83,0,0,0-2.09,3.92C109.12,185.71,110,186.81,110.88,186.3Z" style="fill:#fff"></path><path d="M122.27,177.75v-.6a.94.94,0,0,1-.13-.43.82.82,0,0,1,0-.26l0-.15c0-1.93,0-2.22,0-2.7a5.57,5.57,0,0,1,.38-2.42.66.66,0,0,1,.25-.27.21.21,0,0,1,.2,0,5.82,5.82,0,0,1,1.4-1.38c1.65-1,2.47-.54,2.47,1.15a6,6,0,0,1-.54,2.71,10.52,10.52,0,0,1-2.85,3.17,1.73,1.73,0,0,1-.3.16l-.18.06c.06,1.25.19,1.89.19,3a.75.75,0,0,1-.43.67c-.12.07-.3.14-.4.09A9.49,9.49,0,0,1,122.27,177.75Zm1.56-2.69a7.49,7.49,0,0,0,2-2,4,4,0,0,0,.34-1.5c0-1.13-.44-1.51-1.56-.86-.47.27-1.1.75-1.21,1.29a2,2,0,0,1-.27.83c0,.3,0,1,0,1.34s0,.92,0,1.21A6.36,6.36,0,0,0,123.83,175.06Z" style="fill:#fff"></path><path d="M128.33,170.94a4.68,4.68,0,0,1,2-2.68c2-1.14,3.07-.26,3.07,1.62,0,2.86-1.12,5.15-2.94,6.2a2.69,2.69,0,0,1-1.27.45v.57c0,.91.16,1.81.16,2.65a1.12,1.12,0,0,1-.5.88c-.29.16-.51.08-.51-.6,0-.42,0-1.26,0-1.75v-7.34Zm1.72,4.17a5,5,0,0,0,2.47-4.47c0-1.59-.83-1.93-2.17-1.16a2.77,2.77,0,0,0-1.2,1.66v2.05c0,.2,0,.72,0,1.19l0,.9C129.17,175.6,129.85,175.22,130.05,175.11Z" style="fill:#fff"></path><path d="M145,157.54c1.78-1,3.34.85,3.34,3.18a9.94,9.94,0,0,1-.69,3.79,2.49,2.49,0,0,1,.78,1.27.87.87,0,0,1-.39.75c-.16.09-.52.24-.6,0,0-.05-.21-.34-.48-.71a6.07,6.07,0,0,1-2,2c-2,1.15-3.17-.2-3.17-3.55C141.74,161.42,143.31,158.51,145,157.54Zm-.19,9.14a5.09,5.09,0,0,0,1.59-1.53,4.43,4.43,0,0,0-1.06-1V164c0-.42.08-.73.3-.86s.83.22,1,.4a3.65,3.65,0,0,0,.39.37,6.7,6.7,0,0,0,.45-2.43c0-2-1.17-3.5-2.42-2.77s-2.47,2.81-2.47,5.31S143.54,167.41,144.8,166.68Z" style="fill:#fff"></path><path d="M152.22,155.55c1-.56,2.46-.41,2.48,1.62a.52.52,0,0,1,.06.28v2c0,.45,0,.85,0,1.27s0,.71,0,1.17c0,1,0,2.15,0,3.2a1,1,0,0,1-.47.84c-.32.19-.5.16-.5-.36l.07-2.76c0-.31,0-.82,0-1.62a4.58,4.58,0,0,1-1.68,2.29c-1.57.91-2.49-.56-2.49-2.36C149.7,158.72,150.77,156.39,152.22,155.55Zm.05,6.62a4.09,4.09,0,0,0,1.5-3.21,7.41,7.41,0,0,1,.2-1.33c-.19-1.13-1-1.3-1.55-1a4.43,4.43,0,0,0-1.85,3.8C150.57,161.69,151.08,162.85,152.27,162.17Z" style="fill:#fff"></path><path d="M163.76,154.93c0-.64-.27-2.79-.27-4.09a7,7,0,0,1,.33-2.67,6.66,6.66,0,0,1,2.3-2.77c.86-.5,1.8-.37,1.8,1.23a4.4,4.4,0,0,1-1.28,2.78c.54-.29,1.36-.27,1.59.15a9.92,9.92,0,0,1,.5,4.14,1.44,1.44,0,0,1-.49,1c-.38.21-.42-.24-.42-.82,0-.3.05-.61.05-1a6.94,6.94,0,0,0-.18-1.74c-.32-1-1.29-.64-2.05-.2a4.48,4.48,0,0,0-1.17,1.18,21.22,21.22,0,0,0,.28,3.07c0,.05,0,.07,0,.13a1.24,1.24,0,0,1-.58,1c-.25.14-.47-.15-.47-.52S163.76,155.23,163.76,154.93Zm3.3-7.65c0-1-.51-.95-1-.68a3.82,3.82,0,0,0-1.75,2.53c0,.58,0,1.07,0,1.57C164.89,150.37,167.06,148.21,167.06,147.28Z" style="fill:#fff"></path><path d="M170.17,151.36c0-.3,0-.6,0-.91,0-.49,0-1.09,0-1.53l.16-3a1.12,1.12,0,0,1,.46-1c.28-.16.41.09.45.33a5.3,5.3,0,0,1,1.87-1.92c.53-.31,1.47-.71,1.47.4a1,1,0,0,1-.44.92c-.2.12-.29,0-.38-.11s-.18-.23-.63,0c-1.42.82-2.06,2.07-2.06,4.19,0,.79,0,1.36.07,2.15,0,.3.05.62.05.93a1.29,1.29,0,0,1-.46.95c-.43.25-.55,0-.55-.65C170.14,151.9,170.17,151.61,170.17,151.36Z" style="fill:#fff"></path><path d="M183.28,143.17c.41.93.64.86,1.28.49a4.33,4.33,0,0,0,1.73-2.55c0-.46-.57-.64-1.26-.49-1.19.43-2.65.91-2.65-1a6.45,6.45,0,0,1,2.72-5.17c.91-.52,1.49,0,1.49.9,0,.48,0,1.34-.4,1.58-.25.14-.25-.2-.25-.44,0-1-.36-1.06-1-.7a5,5,0,0,0-1.73,3.24c0,.91.89.65,1.75.38,1.06-.32,2.17-.48,2.17,1.21,0,2-2,3.94-2.72,4.38-.58.33-1.7.79-1.7-.73C182.73,143.94,183,142.83,183.28,143.17Z" style="fill:#fff"></path><path d="M189.46,140.19c.41.48.62.38,1.25,0a4.69,4.69,0,0,0,1.67-1.81c0-.31-.55-.34-1.21-.13-1.16.43-2.59.92-2.59-.9a5.92,5.92,0,0,1,2.66-4.66c.89-.51,1.46-.11,1.46.66,0,.48,0,1.33-.39,1.56-.25.15-.25-.21-.25-.45,0-.74-.35-.7-.95-.35a4.23,4.23,0,0,0-1.68,2.67c0,.75.85.45,1.69.16,1-.35,2.12-.55,2.12.93s-1.92,3.23-2.65,3.65c-.57.33-1.66.8-1.66-.43C188.93,140.86,189.23,139.93,189.46,140.19Z" style="fill:#fff"></path><path d="M203.77,131.82c0-.61-.1-1.15-.1-1.81,0-1-.13-2-.14-3.09v-1.53c-.4.26-1,.78-1.43,1s-.57.19-.59-.12a1.49,1.49,0,0,1,.74-1.44c.93-.54,1.87-1.16,2.87-1.74.29-.17.57-.49.88-.67s.5.18.5.62a1.73,1.73,0,0,1-.5,1.07c-.28.16-.48-.08-.63,0a11,11,0,0,0-1,.65V126c0,1,.05,1.91.13,2.86s0,1.86.13,2.8c0,.14.14.69.14.87a.82.82,0,0,1-.45.88c-.55.35-.58-.22-.58-.88C203.75,132.31,203.77,132.08,203.77,131.82Z" style="fill:#fff"></path><path d="M208.64,125c-.17.1-.3.17-.43.26s-.23.16-.49.31-.57.1-.57-.31a1.21,1.21,0,0,1,.53-1l1-.54c0-.25,0-.51.05-.75,0-.58,0-1,.1-1.49a1.54,1.54,0,0,1,.48-1c.14-.08.35.05.35.42a10.36,10.36,0,0,1-.05,1.28c0,.23,0,.48-.07,1,.72-.44,1.25-.79,2-1.22.25-.14.39.24.39.47a1.09,1.09,0,0,1-.42.87l-1.92,1.06a.25.25,0,0,0,0,.07c0,1.54-.19,4.77.78,4.21a3.31,3.31,0,0,0,.76-.89,1.16,1.16,0,0,1,.28-.35c.24-.14.27,0,.27.34a1.41,1.41,0,0,1-.08.43,4.49,4.49,0,0,1-1.19,1.75C208.52,131,208.67,127.21,208.64,125Z" style="fill:#fff"></path><path d="M101.28,205.47a36.78,36.78,0,0,1,.25-4,1.21,1.21,0,0,1,.47-.81c.3-.17.38.08.38.42,0,.11,0,.24,0,.36-.1.93-.2,2.3-.2,3.17,0,1.88.14,4.51,1.35,3.82a3.66,3.66,0,0,0,1.65-3.11l.11-4.07c.06-2.07.31-2.91.71-3.14.21-.12.35.19.35.69,0,.22-.28,2.22-.28,4.3,0,1.07,0,2.33,0,3.46a1.43,1.43,0,0,1-.57,1.19c-.14.08-.23-.24-.28-.36a5,5,0,0,1-1.88,2.33C101.66,210.67,101.28,207.76,101.28,205.47Z" style="fill:#fff"></path><path d="M108.05,199.27a1.09,1.09,0,0,1,.46-.72c.23-.13.38.08.38.43a19.08,19.08,0,0,0-.29,3.08c0,.95.13,3.36,1.28,2.7,1-.57,1.49-2.4,1.73-3.07.11-1.75.07-2.09.07-3.56v-.86a.93.93,0,0,1,.45-.79c.15-.09.37-.08.37.28v6.88c0,.5-.12.7-.38.85-.46.27-.47.09-.47-.7v-.49a4.34,4.34,0,0,1-1.7,2.67c-2,1.13-2.19-1.72-2.19-3.23A23.08,23.08,0,0,1,108.05,199.27Z" style="fill:#fff"></path><path d="M120.88,190.9c0-.24,0-.78.36-1a.3.3,0,0,1,.46.25,42.54,42.54,0,0,0,1.23,5.44c0,.11.07.62.14.58a7.17,7.17,0,0,0,.35-1.26c.85-2.58,1.6-5.29,2.48-7.87a1.36,1.36,0,0,1,.55-.83c.09-.05.3,0,.3.5a3.09,3.09,0,0,1-.12.67c-.42,1.16-2.63,8.2-3,9.46-.24.84-.06,1-.85,1.43A36.53,36.53,0,0,1,120.88,190.9Z" style="fill:#fff"></path><path d="M128,191.05c-.09-.38-.18-.79-.29-1.16a4.16,4.16,0,0,1-.38-1.42.92.92,0,0,1,.36-.83c.39-.23.46-.07.6.45a31.12,31.12,0,0,0,1.26,4.29c0,.12.13.56.2.52s1-3.65,1.27-4.57c.2-.75.82-3,1-3.39a1,1,0,0,1,.27-.32c.23-.13.38.11.38.54a6.88,6.88,0,0,1-.45,1.71c-.17.5-.37,1.1-.49,1.6a56.61,56.61,0,0,1-1.67,5.54,1.21,1.21,0,0,1-.48.54c-.15.08-.32.07-.35,0A12.64,12.64,0,0,1,128,191.05Z" style="fill:#fff"></path><path d="M140.71,179.84a9.24,9.24,0,0,1-.2-1.34,1.55,1.55,0,0,1,.43-1c.42-.24.45.52.54,1.14.2,1.46.4,1.91.89,4.92a4,4,0,0,0,.13.8l.13-.7c.19-1,.62-3.45,1-5,.28-1.06.42-1.57.66-1.7s.44.3.54,1.34a30.79,30.79,0,0,0,.66,4.29c.29-1.25.43-3,.86-5.25.21-1.11.47-2.22.59-2.6s.24-1.59.71-1.86c.27-.16.47.18.47.52a4.56,4.56,0,0,1-.36,1.15c-.37,1-.59,1.95-1.35,7.37-.11.88-.38,3-1,3.32-.18.11-.42.08-.48-.27-.21-1.51-.62-3.19-.82-5-.26,1.31-.84,4.28-1,5.19h0a6.7,6.7,0,0,1-.7,2c-.37.22-.54.06-.59-.38C141.55,184.26,141.19,182.21,140.71,179.84Z" style="fill:#fff"></path><path d="M149.17,177.6c0-1.89.34-2.34.56-2.47s.37,0,.37.47-.07.78-.07,1.14c0,.83.09,4.75,1,4.42s1.47-2.56,1.47-4.28c0-.51-.09-1.62-.09-2.17a1.56,1.56,0,0,1,.54-1.14c.22-.13.43.19.44.43s0,.74,0,1.17c0,1.73,0,4.21.76,3.78.92-.53,2-2.5,2-4.87a11,11,0,0,0-.17-2,3.82,3.82,0,0,1-.23-.87,1.19,1.19,0,0,1,.48-1.06c.18-.1.43-.09.48.48a17,17,0,0,1,.26,2.68c0,2.95-1.4,6.22-2.88,7.07-.7.41-1-.35-1.3-1.35-.31,1.37-1,3.06-1.8,3.51C149.29,183.56,149.17,178.47,149.17,177.6Z" style="fill:#fff"></path><path d="M166.06,169.45c.06-.21.22-1,.28-1.25a11.57,11.57,0,0,0-1.05-2.68,2,2,0,0,1-.15-.71,1.31,1.31,0,0,1,.35-.89c.55-.32.9,1.55,1.41,2.45.37-1.26.7-2.31,1.14-3.91a4.35,4.35,0,0,1,.81-1.85c.21-.12.36.15.36.43s-.66,2.46-.73,2.65c-.17.45-1.13,3.6-1.13,3.78a11.92,11.92,0,0,0,1.19,2.77c.27.44.62.21.62,1.11a.71.71,0,0,1-.32.67c-.7.4-1-.16-1.39-1.12-.32-.72-.49-1.2-.59-1.43-.18.66-.52,1.89-.58,2.4s.07,1.1-.44,1.39-.59-.13-.59-.67C165.25,172.39,165.87,170.07,166.06,169.45Z" style="fill:#fff"></path><path d="M170.89,168.38c.15-.43.74-1.85.82-2.09,0,0-.54-1.15-.86-1.89a2.19,2.19,0,0,1-.41-1.12.93.93,0,0,1,.4-.79c.4-.24,1.13,1.91,1.41,2.32.41-1.07,1.32-3.94,2-4.32.26-.16.41,0,.41.29a1.06,1.06,0,0,1-.1.43s-.81,1.67-1,2.21c-.29.7-.51,1.31-.81,2.14a5.44,5.44,0,0,0,.54,1c.4.57.71,1.1,1.1.87.13-.08.17-.18.28-.06a.78.78,0,0,1,.11.47,1.28,1.28,0,0,1-.46,1.16c-.42.24-1-.21-1.3-.57a5.1,5.1,0,0,1-.49-.72c-.11-.16-.21-.34-.32-.53-.28.69-.84,2.08-.87,2.24s-.11,1.06-.48,1.28-.58.2-.58-.34A5.72,5.72,0,0,1,170.89,168.38Z" style="fill:#fff"></path><path d="M184.24,160a4.15,4.15,0,0,0,.2-.77,1.09,1.09,0,0,0-.12-.45c-.28-.56-2-2.79-2-3.78a1,1,0,0,1,.36-.75c.17-.1.25-.08.36.12a35,35,0,0,0,1.9,3.18c.07-.18.2-.56.23-.67.47-1.5,1.12-3.8,1.56-4.88.21-.53.34-.87.59-1s.32.05.32.32a11.31,11.31,0,0,1-.46,1.61c-.87,2.76-2.17,7.06-2.81,10,0,.17-.18.71-.36.81a.43.43,0,0,1-.57-.36A18.77,18.77,0,0,1,184.24,160Z" style="fill:#fff"></path><path d="M189.81,158.68c-.49-1.07-1.43-3.54-1.7-4.29a1.83,1.83,0,0,1-.15-.62,1.36,1.36,0,0,1,.52-1.1c.26-.14.28.13.38.42.44,1.32,1.17,3.26,1.46,3.94l1.87-6.09a2.38,2.38,0,0,1,.84-1.28c.17-.09.28.13.28.34,0,.47-.21.47-1.55,4.73l-1.18,4a22.29,22.29,0,0,0-.9,3.91,1.47,1.47,0,0,1-.42,1.08.47.47,0,0,1-.64-.4,12.74,12.74,0,0,1,.63-2.82Z" style="fill:#fff"></path><path d="M201.67,149.94c.79-2.33,1.73-4.52,2.48-7.14l-.75.37c-.77.38-1.76,1.12-2,1.28s-.59,0-.59-.51a1.07,1.07,0,0,1,.5-.9c.38-.21.7-.3,1.08-.52l1.37-.81a14.64,14.64,0,0,1,1.37-.71c.18-.07.23.21.23.48a65.87,65.87,0,0,1-2.34,7.07,24.86,24.86,0,0,0-.74,2.41l2.86-1.57a1.47,1.47,0,0,0,.49-.42,1.56,1.56,0,0,1,.4-.46c.36-.21.47.06.47.43a1.6,1.6,0,0,1-.46,1.19c-.29.17-.54.13-.8.28-.44.26-1.67,1.17-2.63,1.72a9.55,9.55,0,0,1-1.06.53c-.28.12-.34-.09-.34-.39A7.3,7.3,0,0,1,201.67,149.94Z" style="fill:#fff"></path><path d="M208.87,144.58c.06-.23.6-1.51.94-2.87a.2.2,0,0,0,0-.07c0-.1-.08-.16-.25-.06-.69.4-1.38,1-2.11,1.41-.24.15-.51.23-.51-.3,0-.25.09-.85.32-1l2-1.14c.38-.22.74-.57,1.15-.81s.42.39.42.73a15.31,15.31,0,0,1-1.14,4.13l-.87,2.52a.3.3,0,0,0,0,.1c0,.24.38,0,.74-.22a4.54,4.54,0,0,0,1.52-1.38.53.53,0,0,1,.13-.13c.27-.15.42.48.42.81a1.38,1.38,0,0,1-.56,1.1c-.25.15-.4.12-.61.24-.65.38-1.09.68-1.74,1.06-.48.27-1.07.62-1.07-.17C207.61,148.25,208.38,146.33,208.87,144.58Z" style="fill:#fff"></path></g></g></g><g id="freepik--character-1--inject-72"><g id="freepik--character--inject-72"><g id="freepik--Bottom--inject-72"><path d="M257.52,252.29c1.87-6.63,2.25-18.8,3.34-24.83,1.27-7.07,6.95-13.83,6.95-13.83s-1.29-18.27-1.73-26.41c-1-19.1,2.91-26.28,5.06-29a37.56,37.56,0,0,0,2.36-3.34,31,31,0,0,0,2.17-3.88l25.63,2c1.63,3.54,3.7,9.57,3.31,14.51,2.22,10,.11,41.44-.92,52.78-.62,6.79-6.6,36.55-6.74,37.47-.07.39-1.35,2.05-4,1.46s-3.36-1.58-3.35-1.87c.05-1,0-2.08-.06-3.07-.22-6.44-2-20.27-2.41-26.85a16.89,16.89,0,0,1,2.73-10.2l-3.07-17.8a130.11,130.11,0,0,1-7.09,24.24c-3.48,8.46-15.23,33.44-15.23,33.44-1.09,2.64-6.72,1-7.22-3.64Z" style="fill:#ffa8a7"></path><path d="M257.52,252.29c-1.42-.32-1.48,4.65-2.48,7.61-1.07,3.18-2.8,5.27-3.71,7.87a10,10,0,0,0-.26,7.15c.57,2.19,4.95,6.06,7.41,3.71a14,14,0,0,0,3.95-8.55,49.53,49.53,0,0,1,1.66-7.7c.74-2.53,2.33-6.95,1.29-7.34l-.67,1.44c-.89,1-7.21-.71-7.49-3.07Z" style="fill:#37474f"></path><path d="M288,257.42a28,28,0,0,0-.23,5.82,5.73,5.73,0,0,0,3,2.58l1.32-5.89Z" style="fill:#263238"></path><polygon points="290.72 265.82 296.09 264.3 297.55 259.65 291.53 262.21 290.72 265.82"></polygon><path d="M297.92,252.67l.27-1.38c.71.38.37,6.13,4,10.38,2.68,3.14,5.81,5.06,7,6.69,1.6,2.18-2.58,5.5-7.78,4.16-2.58-.66-6.46-2.49-7.46-4.29s-1.6-4.69-2.42-6-3.22-2.44-3.73-3.89.06-3.7.57-5.14.29-2.77.91-2.77l.08,1.09c.32.73,2.38,1.78,5,2C295.64,253.65,297.3,253.8,297.92,252.67Z" style="fill:#37474f"></path><path d="M304.47,162.21s-6.08,3.87-17.37,2.52-16-6.54-16-6.54a25.12,25.12,0,0,0-4.93,10.42c-.86,4.81-.46,19.65.12,30.31s.87,14.33.87,14.33a25.4,25.4,0,0,0-5.82,9.29c-2.66,8.77-4.16,28.42-4.16,28.42,2,2.25,5.92,2.91,9.6,3.33,0,0,11.1-22.63,13.91-31.24s4.48-11.6,6-23.68L289,217.22a21.1,21.1,0,0,0-2.28,9c-.1,8.76,1.41,19.27,1.64,23.08,0,0,5.19,3.64,10.71,1.09,0,0,2.22-11.27,4.29-24.66A279.93,279.93,0,0,0,306.12,194,202.69,202.69,0,0,0,304.47,162.21Z" style="fill:#455a64"></path><path d="M286.76,199.37l2.43-17.64s7.38-3.79,9.31-7.5a12.22,12.22,0,0,1-6.07,8.9L289,200.93v16.29Z" style="fill:#37474f"></path></g><g id="freepik--Top--inject-72"><path d="M292.14,112.55a3.77,3.77,0,0,1,.58-1.06,5,5,0,0,1,1.22-.86,15.53,15.53,0,0,1,2.69-1c1.57-.5,3.25-1.18,4-2.63a1.84,1.84,0,0,0,.22-1.35,1,1,0,0,0-1.05-.71,5.06,5.06,0,0,0,1.47-1.48,2.3,2.3,0,0,0,.23-2,1.51,1.51,0,0,0-1.68-.93A7.48,7.48,0,0,0,302,97.87a2.23,2.23,0,0,0-.59-2.6,6.92,6.92,0,0,0-2.78-.59,44.17,44.17,0,0,1-7-1.62,21,21,0,0,0-9-.39c-4.5.9-5.66,2.83-6.08,4.84,0,0-2.78.06-4.47,3.9-2.12,4.82-.49,10,2.66,14.1,1.54,2,4.49,4.26,5.57,5.4.35.35,8.32-2.59,9.21-3.89A34.4,34.4,0,0,0,292.14,112.55Z" style="fill:#263238"></path><path d="M279.42,89.53c3.14,3,.55,5.44-2.48,8.58s-5.34,5.81-8.48,2.79a7.9,7.9,0,0,1,11-11.37Z" style="fill:#263238"></path><path d="M294.29,97.83c1.65.84,5,4.52,4.66,13.06-.27,7.1-1.55,8.76-3.5,9.58-1.16.49-3,.43-5.21.2l-.12,4.28s6.3,4.54,1.37,5.48a10.89,10.89,0,0,1-7.75-1.86,10.67,10.67,0,0,1-3.08-3l-.5-9.56s-1.19,1.32-3.47-.44c-1.88-1.44-2.64-4-1.34-5.53a3.22,3.22,0,0,1,5.11.65s1.2.69,2.32-1.74a31.84,31.84,0,0,0,5.92-3.14A12.33,12.33,0,0,0,294.29,97.83Z" style="fill:#ffa8a7"></path><path d="M288.89,114.2l3.85,1.09a2,2,0,0,1-2.44,1.45A2.1,2.1,0,0,1,288.89,114.2Z" style="fill:#b16668"></path><path d="M291.18,116.78a1.87,1.87,0,0,0-1.95-1.74,2.2,2.2,0,0,0-.37.06,2.05,2.05,0,0,0,1.44,1.64A2,2,0,0,0,291.18,116.78Z" style="fill:#f28f8f"></path><path d="M297.36,105.81l-2.1-.63a1.06,1.06,0,0,1,1.33-.76A1.15,1.15,0,0,1,297.36,105.81Z" style="fill:#263238"></path><path d="M287.74,106l-2,.92a1.05,1.05,0,0,1,.5-1.45A1.17,1.17,0,0,1,287.74,106Z" style="fill:#263238"></path><polygon points="292.33 107.1 292.4 113.1 295.68 112.64 292.33 107.1" style="fill:#f28f8f"></polygon><path d="M290.24,120.67c-2.3-.15-7.32-2-8.17-3.86a4.8,4.8,0,0,0,1.92,3,24.93,24.93,0,0,0,6.21,2.23Z" style="fill:#f28f8f"></path><path d="M280.34,109l.24,3.72h0A2.54,2.54,0,0,0,283,110l-.22-3.44Z" style="fill:#263238"></path><path d="M295.18,108a1,1,0,0,0,.89,1.09,1,1,0,0,0,1.07-.85,1,1,0,0,0-.88-1.09A1,1,0,0,0,295.18,108Z" style="fill:#263238"></path><path d="M287.84,108a1,1,0,0,0,.89,1.09.94.94,0,0,0,1.07-.85,1,1,0,0,0-.89-1.09A1,1,0,0,0,287.84,108Z" style="fill:#263238"></path><path d="M310,162l-5.69,5.82s-2.6-6.7-2.44-6.71,3.15-4.3,3.15-4.3Z" style="fill:#ffa8a7"></path><path d="M293.83,123.89c6.2-3,6.69.7,11.69,6.15,3.47,3.79,10.34,10.75,12.43,13.69,2.37,3.31,2.79,4.71,1.47,7.5s-10.64,12.29-10.64,12.29a13.63,13.63,0,0,1-5.22-5.84l5.28-8.32-12.77-10.8Z" style="fill:#683CE4"></path><path d="M293.83,123.89c6.2-3,6.69.7,11.69,6.15,3.47,3.79,10.34,10.75,12.43,13.69,2.37,3.31,2.79,4.71,1.47,7.5s-10.64,12.29-10.64,12.29a13.63,13.63,0,0,1-5.22-5.84l5.28-8.32-12.77-10.8Z" style="fill:#fff;opacity:0.85"></path><path d="M308.84,149.36c1.2.76,4.91.82,6.36,0,0,0-1.86,2.22-7,1Z" style="fill:#683CE4;opacity:0.30000000000000004"></path><path d="M275.67,151l-2.75-11.83c-1.51-5.43-.79-8.95-.33-10.62.73-2.31,8-4.05,8-4.05,1.11-.29,4.35-.14,5.35-.25l7.4-.28A34.13,34.13,0,0,1,303.77,134c2.23,3.24,4.26,7.79-.85,12.3.1,2.08-.77,4.31-1.62,6.6" style="fill:#ffa8a7"></path><path d="M290.15,124.06s2.59,4.2,1.34,6.37c-5.87-.82-8.93-4.06-10.89-6,0,0-5.71,1.29-7.16,1.69s-3,5.44-2.17,10.72,4,13.87,4,13.87c-3.4,5-6.27,9.57-7.7,13,2.9,7.79,26,10.34,38.07,4.72a52.11,52.11,0,0,0-3.69-15.62s1.77-3.61,1.33-6.39a8.84,8.84,0,0,0,3.14-5.72c.23-3.6-1.5-6.11-4.82-10.1a43.69,43.69,0,0,0-7.72-6.76Z" style="fill:#683CE4"></path><path d="M290.15,124.06s2.59,4.2,1.34,6.37c-5.87-.82-8.93-4.06-10.89-6,0,0-5.71,1.29-7.16,1.69s-3,5.44-2.17,10.72,4,13.87,4,13.87c-3.4,5-6.27,9.57-7.7,13,2.9,7.79,26,10.34,38.07,4.72a52.11,52.11,0,0,0-3.69-15.62s1.77-3.61,1.33-6.39a8.84,8.84,0,0,0,3.14-5.72c.23-3.6-1.5-6.11-4.82-10.1a43.69,43.69,0,0,0-7.72-6.76Z" style="fill:#fff;opacity:0.7000000000000001"></path><path d="M281.38,145.19a7.59,7.59,0,0,0,7.3,3.8,8,8,0,0,0,6.68-4.44s-.05,5.59-6.64,5.78S281.38,145.19,281.38,145.19Z" style="opacity:0.2"></path><path d="M274.24,126c-4.33.49-8,1.14-9.51,4.63s-8.5,22.35-8.75,24.75,4.35,3.59,7.76,2.46c3.11-4.57,9.27-17.25,9.27-17.25S277.12,132.07,274.24,126Z" style="fill:#ffa8a7"></path><path d="M247.52,135.68l12,12.62,8.42,2.15c-3.26,7.76-4.67,9.56-7.87,9.34-3.82-.27-4.48-1.61-8.44-6.19-3.52-4.07-6.79-9.64-8-11.23-1.75-2.28-3.86-2.44-4.49-3.72-.56-1.13,7.66-4,7.66-4Z" style="fill:#ffa8a7"></path><path d="M242.48,131.15q-3.47-8.64-7-17.26l-6.95-17.28.07,0L236,113.67q3.64,8.56,7.38,17.1Z" style="fill:#fafafa"></path><path d="M246.28,134.07c-1.92-3.8-5.68-6.3-7.15-6.18s-1.6,2.51-1.6,2.51a2.22,2.22,0,0,0-1.55,1.71c-.12,1.28.44,1.63.44,1.63a2.08,2.08,0,0,0-.33,1.79,3.94,3.94,0,0,0,.8,1.19s-.34,1.15.1,1.71c1.64,2,3.45,2.08,5.39,3.2a6.1,6.1,0,0,1,2.06,1.87Z" style="fill:#ffa8a7"></path><path d="M240.17,131.2a4.44,4.44,0,0,1,1.93,1.3,6.12,6.12,0,0,1,.57,1.88.84.84,0,0,1-1.38.67,1.57,1.57,0,0,1,.41,1.28c-.13.74-.94.47-.94.47s.75.91.25,1.5a.85.85,0,0,1-1.17.08,1.1,1.1,0,0,0,.88-.25c.33-.34-.39-1.74-.39-1.74s.64.41,1,0-.46-1.74-.46-1.74,1.09.58,1.4.06a2.65,2.65,0,0,0-.42-2.13A11.85,11.85,0,0,0,240.17,131.2Z" style="fill:#f28f8f"></path><path d="M247.25,137.6s1.71.16,1.51-.2a4.13,4.13,0,0,1-.51-1.34c-.09-.49-.18-1-.24-1.5a14.66,14.66,0,0,0-.31-1.91,1.72,1.72,0,0,0-.74-1.21,3.42,3.42,0,0,0-1.76-.28c-.77,0-1.11-.33-1.88-.36-.38,0-1.24-.2-1.62-.16-.68.08-.27,1.87.53,2.39a3,3,0,0,0,1.85.62s-1.82,1.44-.31,4.48C244.45,139.5,247.25,137.6,247.25,137.6Z" style="fill:#f28f8f"></path><path d="M250,138.31a7.43,7.43,0,0,1-1-1.36,4,4,0,0,1-.51-1.34c-.09-.48-.18-1-.24-1.49a14.55,14.55,0,0,0-.31-1.92,1.74,1.74,0,0,0-.74-1.21,3.41,3.41,0,0,0-1.76-.27l-2.32-.07a7.08,7.08,0,0,0-1.13,0c-.68.08-.36,1.27.43,1.8a8.77,8.77,0,0,0,2.65.81,4.57,4.57,0,0,0-1.1,5.33C244.65,140,250,138.31,250,138.31Z" style="fill:#ffa8a7"></path><path d="M272.65,142.87S271,145.78,268,152s-4.74,8.38-6.79,8.9-5.05-1.32-7.34-4.12-4.92-6.62-4.92-6.62c5.75-2.2,6.57-6.07,6.57-6.07l3.16,2.76s5.08-14,5.63-16.24,1.33-5.61,3.86-5.62,3.36,1.16,6.84.82C276.41,128.26,277,136.45,272.65,142.87Z" style="fill:#683CE4"></path><path d="M272.65,142.87S271,145.78,268,152s-4.74,8.38-6.79,8.9-5.05-1.32-7.34-4.12-4.92-6.62-4.92-6.62c5.75-2.2,6.57-6.07,6.57-6.07l3.16,2.76s5.08-14,5.63-16.24,1.33-5.61,3.86-5.62,3.36,1.16,6.84.82C276.41,128.26,277,136.45,272.65,142.87Z" style="fill:#fff;opacity:0.85"></path><path d="M258.65,146.81c2.83,2.6,3.18,7.3,3.18,7.3s1.78-4.12-2.53-9.14Z" style="fill:#683CE4;opacity:0.30000000000000004"></path><path d="M279.54,124.71s3.16,5.26,6.62,7.47a38.21,38.21,0,0,0,8.79,3.66s1.57-5.53-3.77-11.82l2.65-.13a42.63,42.63,0,0,1,9.87,8.68c4.32,5.34,4.24,10.7,0,14,0,0-.54,3.23-1.06,6.38a47.2,47.2,0,0,1,3.18,12.65l-4,1.45-4.68-4.45-5.38,5.75c-16.68,1.19-23.62-6.73-23.62-6.73a47.56,47.56,0,0,1,5.33-10.87c-.06-.49-.82-7.87-.82-7.87s7.69-5.27,2.33-17.1Z" style="fill:#455a64"></path><path d="M295,135.84c1.27.48,2.25.55,2.93,9.13s.06,15.63-.74,17.62c2.54-5.51,1.86-14,1.39-18.2C297.9,138.93,298.12,136.12,295,135.84Z" style="fill:#37474f"></path><path d="M280.51,122.64s2,5.2,11,7.79a4.7,4.7,0,0,1-1.47,3.14,3.07,3.07,0,0,1-4.84-1,8.86,8.86,0,0,1-5.9-1.77,6.42,6.42,0,0,1-2.42-5.54s2.18-4.34,3.55-4.35Z" style="fill:#683CE4"></path><path d="M280.51,122.64s2,5.2,11,7.79a4.7,4.7,0,0,1-1.47,3.14,3.07,3.07,0,0,1-4.84-1,8.86,8.86,0,0,1-5.9-1.77,6.42,6.42,0,0,1-2.42-5.54s2.18-4.34,3.55-4.35Z" style="fill:#fff;opacity:0.85"></path><path d="M291.49,130.43s1.57,2.57,3.46,2.14,0-4.31,0-4.31.6-.73-.5-2.53-3-4.2-4.29-4.41v2.74A9.47,9.47,0,0,1,291.49,130.43Z" style="fill:#683CE4"></path><path d="M291.49,130.43s1.57,2.57,3.46,2.14,0-4.31,0-4.31.6-.73-.5-2.53-3-4.2-4.29-4.41v2.74A9.47,9.47,0,0,1,291.49,130.43Z" style="fill:#fff;opacity:0.85"></path></g></g></g></svg>